<svg width="155" height="39" viewBox="0 0 155 39" fill="none" xmlns="http://www.w3.org/2000/svg">
<path d="M70.1376 15.2104L73.0826 13.0264H63.3176V25.9744H73.0826V23.7904H66.1076V20.5144H71.9976V18.3304H66.1076V15.2104H70.1376ZM57.9701 15.2104L60.9151 13.0264H49.7551V25.9744H55.5676C58.8226 25.9744 60.6826 24.4924 60.6826 21.9184C60.6826 19.4224 58.9776 18.0964 55.8776 18.0964H52.4676V15.2104H57.9701ZM55.4901 20.2024C57.2726 20.2024 58.0476 20.8264 58.0476 21.9964C58.0476 23.1664 57.1951 23.7904 55.4901 23.7904H52.5451V20.2024H55.4901ZM80.9101 13.0264H75.6401V25.9744H78.4301V22.3084H80.9876C84.3976 22.3084 86.4901 20.5144 86.4901 17.6284C86.4901 14.7424 84.3201 13.0264 80.9101 13.0264ZM80.9101 20.1244H78.4301V15.1324H80.9101C82.6926 15.1324 83.7001 15.9904 83.7001 17.6284C83.6226 19.2664 82.6926 20.1244 80.9101 20.1244ZM45.0276 23.1664C44.2526 23.5564 43.4776 23.7904 42.6251 23.7904C40.1451 23.7904 38.2851 21.9964 38.2851 19.5004C38.2851 17.0044 40.0676 15.2104 42.6251 15.2104C43.5551 15.2104 44.4076 15.5224 45.1826 15.9904L47.1976 14.5084L47.0426 14.3524C45.8801 13.3384 44.3301 12.7924 42.5476 12.7924C40.6101 12.7924 38.9051 13.4164 37.5876 14.6644C36.3476 15.9124 35.5726 17.6284 35.6501 19.4224C35.6501 21.2164 36.3476 22.9324 37.5876 24.2584C38.9051 25.5064 40.6876 26.2084 42.4701 26.1304C44.4851 26.1304 46.1901 25.4284 47.4301 24.1804L45.6476 22.8544L45.0276 23.1664ZM128.65 18.3304H122.683V13.0264H119.893V25.9744H122.683V20.6704H128.65V25.9744H131.44V13.0264H128.65V18.3304ZM109.818 13.0264L104.238 25.9744H107.028L108.113 23.4004H114.003L115.088 25.9744H118.033L112.608 13.0264H109.818ZM109.043 21.2164L111.213 15.9904L113.228 21.2164H109.043ZM141.515 19.2664L146.553 13.0264H143.375L139.19 18.5644H137.64V13.0264H134.85V25.9744H137.64V20.7484H139.423L143.685 25.9744H147.25L141.515 19.2664ZM98.4251 18.0964H95.0151V15.2104H102.3V13.0264H92.2251V25.9744H98.0376C101.293 25.9744 103.153 24.4924 103.153 21.9184C103.23 19.4224 101.525 18.0964 98.4251 18.0964ZM97.9601 23.8684H95.0151V20.2804H97.9601C99.7426 20.2804 100.518 20.9044 100.518 22.0744C100.595 23.2444 99.6651 23.8684 97.9601 23.8684Z" fill="white"/>
<path d="M26.7233 12.7773C27.2265 13.4408 27.6524 14.1617 27.9925 14.9253L18.3446 22.1796L14.3125 19.6015V16.4999L18.3446 19.078L26.7233 12.7773Z" fill="white"/>
<path d="M10.1969 19.3825C10.1969 19.2433 10.2002 19.1051 10.2069 18.9676L7.76331 18.8455C7.75499 19.0236 7.75 19.2035 7.75 19.385C7.74896 20.8033 8.02247 22.2078 8.55484 23.518C9.08721 24.8283 9.86795 26.0184 10.8523 27.0201L12.5856 25.253C11.8279 24.4833 11.2268 23.5684 10.8168 22.5609C10.4069 21.5534 10.1962 20.4732 10.1969 19.3825Z" fill="white"/>
<path d="M18.3412 11.0754C18.4776 11.0754 18.6131 11.0805 18.7478 11.0873L18.8701 8.59403C18.6949 8.58555 18.5186 8.58131 18.3412 8.58131C16.95 8.57958 15.5723 8.85815 14.287 9.40103C13.0017 9.94391 11.8342 10.7404 10.8516 11.7448L12.5849 13.5127C13.3395 12.7396 14.2366 12.1263 15.2245 11.708C16.2124 11.2897 17.2715 11.0748 18.3412 11.0754Z" fill="white"/>
<path d="M18.3423 27.6906C18.2059 27.6906 18.0703 27.6906 17.9348 27.6795L17.8125 30.172C17.9883 30.181 18.1649 30.1856 18.3423 30.1856C19.7329 30.187 21.1099 29.9083 22.3945 29.3652C23.6791 28.8222 24.8458 28.0256 25.8278 27.0212L24.0978 25.2542C23.343 26.0269 22.446 26.6398 21.4583 27.058C20.4706 27.4761 19.4117 27.6911 18.3423 27.6906Z" fill="white"/>
<path d="M22.9304 12.5249L24.9897 10.9767C23.1074 9.42204 20.7579 8.57576 18.3359 8.58009V11.0751C19.976 11.073 21.578 11.5785 22.9304 12.5249Z" fill="white"/>
<path d="M28.9339 19.3829C28.9352 18.7339 28.8795 18.086 28.7675 17.447L26.4878 19.1607C26.4878 19.2345 26.4878 19.3083 26.4878 19.3829C26.4884 20.5437 26.2498 21.6917 25.7877 22.7524C25.3254 23.8131 24.6498 24.7629 23.8047 25.5402L25.449 27.3939C26.5477 26.3821 27.4257 25.1462 28.0261 23.7662C28.6265 22.3861 28.9357 20.8928 28.9339 19.3829Z" fill="white"/>
<path d="M18.3422 27.6911C17.2041 27.6914 16.0785 27.448 15.0385 26.9766C13.9985 26.5052 13.0671 25.8162 12.3047 24.9543L10.4883 26.6306C11.4801 27.7515 12.6917 28.6472 14.0448 29.2597C15.3978 29.8722 16.8619 30.1878 18.3422 30.186V27.6911Z" fill="white"/>
<path d="M12.88 13.2255L11.2366 11.3718C10.1375 12.3834 9.25917 13.6193 8.65853 14.9993C8.0579 16.3794 7.74836 17.8728 7.75001 19.3827H10.1969C10.1964 18.222 10.435 17.0741 10.8972 16.0134C11.3594 14.9527 12.0349 14.0029 12.88 13.2255Z" fill="white"/>
</svg>
