<svg width="155" height="39" viewBox="0 0 155 39" fill="none" xmlns="http://www.w3.org/2000/svg">
<path d="M48.4117 15.3851C47.247 15.3851 46.2534 16.3719 46.2534 17.5441V19.4051H43.266V15.3851H43.1673C42.0026 15.3851 41.0024 16.3719 41.0024 17.5441V24.9085H41.1011C42.2658 24.9085 43.266 23.9217 43.266 22.7495V20.9548H46.2534V24.9085H48.517V15.3851H48.4117ZM138.336 15.3851C137.171 15.3851 136.172 16.3719 136.172 17.5441V19.4051H133.184V15.3851H133.086C131.921 15.3851 130.92 16.3719 130.92 17.5441V24.9085H131.02C132.184 24.9085 133.178 23.9217 133.178 22.7495V20.9548H136.165V24.9085H138.429V15.3851H138.336ZM35.6001 23.2264C34.2182 23.2264 33.3036 20.9481 33.3036 18.2792C33.3036 15.6103 34.2709 13.7427 35.6001 13.7427C36.9359 13.7427 37.9492 15.6103 37.9492 18.2792C37.9492 21.2991 37.0806 23.2264 35.6001 23.2264ZM35.6001 11.9016C32.9745 11.9016 31.2769 14.1798 31.04 17.4911H28.3684V12.0936H28.3487C27.0458 12.0936 26.0391 13.1334 26.0391 14.4049V24.9085H26.0587C27.3353 24.8952 28.3684 23.8489 28.3684 22.5442V19.1931H31.04C31.244 22.3058 32.9483 25.1072 35.6001 25.1072C38.6467 25.1072 40.2588 22.1468 40.2588 18.2925C40.2654 14.6897 38.5414 11.9016 35.6001 11.9016ZM56.5711 15.3851C55.8276 15.3851 55.1629 15.6235 54.6366 16.4712L51.682 21.6369V15.3851H49.4185V24.9085H50.3792C51.1095 24.9085 51.7742 24.6701 52.3137 23.8224L55.4327 18.4779V22.7495C55.4327 23.9217 56.4263 24.9085 57.591 24.9085H57.6963V15.3851H56.5711ZM102.073 15.3851C101.329 15.3851 100.665 15.6235 100.138 16.4712L97.1838 21.6369V15.3851H94.9201V24.9085H95.8811C96.6119 24.9085 97.2761 24.6701 97.8155 23.8224L100.935 18.4779V22.7495C100.935 23.9217 101.928 24.9085 103.099 24.9085H103.199V15.3851H102.073ZM65.7308 20.266C65.2043 19.0739 64.4213 18.2262 63.2895 17.7825L67.3626 12.087H64.8227L60.8877 17.7295V12.1135H60.8351C59.5322 12.1135 58.5518 13.0672 58.5518 14.3586V24.9085H58.6044C59.9073 24.9085 60.8811 23.9548 60.8811 22.6634V18.7494C62.0459 18.7494 62.9276 19.5309 63.3487 20.5508L65.0201 24.9019H67.5863L65.7308 20.266ZM110.489 15.3851H103.685V17.2063H105.975V24.9085H106.074C107.252 24.9085 108.199 23.9349 108.199 22.7627V17.2063H110.489V15.3851ZM87.0507 23.1733C88.097 22.0541 88.5968 20.0475 88.834 18.4978L88.9851 17.1203H90.742L91.2814 23.1733H87.0507ZM93.3739 23.1071L92.5974 15.3917H87.1755L86.8399 17.703C86.5369 19.7627 86.0572 22.3455 84.2274 23.4515L84.3793 27.3919H84.4971C85.3922 27.3919 86.1161 26.6635 86.1161 25.7628L86.1494 24.9085H92.3215L92.4067 27.3919H92.5253C93.4204 27.3919 94.1443 26.6635 94.1443 25.7628L94.2225 23.4448L93.3739 23.1071ZM145.786 21.8621C145.285 20.862 144.687 20.1004 143.792 19.7295L147.141 15.3917H144.706L141.462 19.6832V15.3851H139.199V24.9085H139.297C140.462 24.9085 141.462 23.9217 141.462 22.7495V20.5839C142.403 20.5839 143.081 21.2925 143.456 22.1203L144.818 24.9085H147.253L145.786 21.8621ZM117.945 23.3389H116.576V18.7892C116.866 18.7229 117.372 18.6236 117.807 18.6236C119.445 18.6236 120.399 19.6037 120.399 20.8223C120.405 22.1269 119.484 23.3389 117.945 23.3389ZM118.05 16.8885C117.49 16.8885 116.898 16.9812 116.582 17.0672V14.0805H119.583C120.655 14.0805 121.524 13.2062 121.524 12.1268V12.0936H114.319V24.9085H117.984C120.728 24.9085 122.774 23.4184 122.774 20.8686C122.768 18.6832 121.07 16.8885 118.05 16.8885ZM78.2661 19.4845C78.2661 17.8024 78.8582 16.9017 80.1214 16.8686H80.2075C80.8321 16.8686 81.9969 17.0739 82.0628 18.9613L78.2661 19.4845ZM84.0236 19.8951C84.0236 17.0408 82.6549 15.3917 80.1873 15.3917C77.6872 15.3917 76.1669 17.2792 76.1669 20.1865C76.1669 23.1799 77.8057 25.0476 80.5562 25.0476C82.076 25.0476 83.1416 24.6701 83.7143 24.3654V22.4779C83.1416 22.8885 82.3457 23.3985 80.7732 23.3985C79.3581 23.3985 78.5753 22.5839 78.3909 21.0342L84.0174 20.2528V19.8951H84.0236ZM128.243 23.7495C128.026 23.8025 127.466 23.8356 126.993 23.8356C125.775 23.8356 125.064 23.3058 125.064 22.1336C125.064 20.5508 126.262 20.1468 128.236 19.9614V23.7495H128.243ZM123.057 22.2064C123.057 23.9946 124.36 25.0476 126.854 25.0476H127.328C128.203 25.0476 129.657 24.9085 130.283 24.7892V18.7362C130.283 16.3586 128.697 15.3851 126.788 15.3851C125.334 15.3851 124.222 15.8089 123.63 16.1004V17.6104C124.623 17.0805 125.519 16.7428 126.413 16.7428C127.493 16.7428 128.236 17.0672 128.236 18.2726V18.9017C125.419 19.1799 123.057 19.7561 123.057 22.2064ZM71.0804 23.5839C70.758 23.5839 70.5079 23.5508 70.2843 23.4647V16.9878C70.5737 16.8885 70.8567 16.8355 71.2318 16.8355C72.6992 16.8355 73.3441 17.9083 73.3441 20.1865C73.3441 21.7097 72.9558 23.5839 71.0804 23.5839ZM71.2778 15.3851C69.9947 15.3851 68.9287 15.6036 68.1062 16.0474L68.0536 16.0805V28.6768H68.172C69.3367 28.6768 70.2843 27.7099 70.2843 26.5376V24.8886C70.6067 24.9747 71.0476 25.0409 71.5345 25.0409C73.9823 25.0409 75.5879 23.0674 75.5879 20.1137C75.5879 17.1732 73.9692 15.3851 71.2778 15.3851Z" fill="white"/>
<path d="M15.9489 14.2328C15.9555 14.2262 15.9555 14.2196 15.9621 14.2129C16.0871 14.0342 16.0344 13.9016 15.9489 13.8288C15.8963 13.7825 14.679 13.0408 14.679 13.0408C14.5934 12.9812 14.5342 12.8818 14.5342 12.7626C14.5342 12.5838 14.6394 12.4447 14.8895 12.3718C15.6725 12.1533 18.4362 12.0407 19.3706 12.0407C19.6931 12.0407 20.259 12.0407 20.759 12.054L20.7393 12.0341C19.364 10.8553 17.5742 10.14 15.6265 10.14C11.2769 10.14 7.75 13.6897 7.75 18.0673C7.75 19.9945 8.43433 21.7562 9.56614 23.127C10.5532 21.6965 13.001 18.1667 13.534 17.4448C14.1525 16.6103 15.5607 14.7626 15.7976 14.4514L15.8107 14.4381L15.9489 14.2328ZM10.823 24.3522C12.1522 25.3853 13.8169 25.9946 15.6265 25.9946C19.976 25.9946 23.503 22.4449 23.503 18.0673C23.503 16.7428 23.1806 15.4911 22.6081 14.3983C22.8778 14.1335 23.1937 13.7162 22.9832 13.1996C22.9174 13.0474 22.6147 12.6898 22.5357 12.6036L22.5489 12.6367C22.7397 13.2195 22.3646 13.5838 22.0882 13.8288C21.9369 13.9679 19.9365 15.862 17.594 17.9282C15.5278 19.7495 13.2116 21.5972 11.8758 22.6104C9.99386 24.0277 9.62534 24.233 9.62534 24.233C9.57272 24.2595 9.49375 24.286 9.43454 24.286C9.32263 24.286 9.21739 24.233 9.15818 24.1535C9.145 24.18 9.145 24.1999 9.15159 24.2132C9.35557 24.5443 9.69114 24.9217 9.88195 24.9217C9.94124 24.9217 10.0267 24.8953 10.0794 24.8688C10.0728 24.8621 10.2242 24.7826 10.823 24.3522Z" fill="white"/>
<path d="M15.961 14.213C16.0794 14.0342 16.0334 13.9017 15.9478 13.8288C15.8952 13.7825 14.6779 13.0408 14.6779 13.0408C14.5923 12.9812 14.5331 12.8818 14.5331 12.7627C14.5331 12.5772 14.6449 12.4447 14.8885 12.3719C15.6714 12.1533 18.4352 12.0408 19.3695 12.0408C19.8104 12.0408 20.6921 12.0408 21.2646 12.0738C21.9095 12.1136 22.403 12.2527 22.528 12.5639C22.7649 13.1799 22.3701 13.564 22.0871 13.8223C21.9358 13.9614 19.942 15.8554 17.5929 17.9217C15.5267 19.7429 13.2105 21.5906 11.8747 22.6038C9.99278 24.0211 9.62427 24.2264 9.62427 24.2264C9.57164 24.2529 9.49267 24.2794 9.42687 24.2794C9.22948 24.2794 9.07812 24.1271 9.07812 23.935C9.07812 23.8622 9.09789 23.7894 9.13733 23.7363C9.13733 23.7363 12.8486 18.3588 13.5197 17.4448C14.1975 16.5376 15.8162 14.405 15.8162 14.405C15.8162 14.405 15.8426 14.3852 15.961 14.213Z" fill="#031C17"/>
</svg>
