<svg width="155" height="38" viewBox="0 0 155 38" fill="none" xmlns="http://www.w3.org/2000/svg">
<path d="M34.875 0L15.5 14.44V17.556L34.875 3.116L44.5625 9.804V6.612L34.875 0Z" fill="white"/>
<path d="M15.5 19.152V22.268L34.875 7.90398L44.5625 14.516V11.324L34.875 4.71198L15.5 19.152Z" fill="white"/>
<path d="M15.5 23.864V27.056L34.875 12.616L44.5625 19.228V16.036L34.875 9.42401L15.5 23.864Z" fill="white"/>
<path d="M37.9728 20.824H31.6953V26.98H37.9728V20.824Z" fill="white"/>
<path d="M89.6675 15.58H89.5125V13.908H86.955V15.58H86.7225C85.7925 15.58 84.8625 15.808 84.01 16.264C83.235 16.72 82.615 17.328 82.15 18.088C81.685 18.924 81.4525 19.836 81.4525 20.748C81.4525 21.66 81.685 22.572 82.15 23.408C82.615 24.168 83.235 24.776 84.01 25.232C84.8625 25.688 85.7925 25.916 86.7225 25.84H86.8775V27.436H89.435V25.84C90.1325 25.84 90.9075 25.764 91.605 25.536C92.3025 25.308 92.9225 24.928 93.465 24.396C93.93 23.94 94.3175 23.332 94.55 22.724C94.7825 22.116 94.9375 21.432 94.86 20.748C94.86 19.76 94.6275 18.848 94.1625 18.012C93.6975 17.252 93.0775 16.568 92.3025 16.188C91.5275 15.732 90.5975 15.504 89.6675 15.58ZM85.6375 17.86C86.025 17.708 86.335 17.632 86.7225 17.708H86.8775V23.788H86.8C86.4125 23.788 86.025 23.788 85.6375 23.636C85.25 23.484 84.94 23.256 84.7075 23.028C84.165 22.42 83.9325 21.66 83.9325 20.9C83.855 20.064 84.165 19.228 84.7075 18.62C85.0175 18.24 85.3275 18.012 85.6375 17.86ZM89.5125 23.712V17.708H89.6675C90.055 17.708 90.4425 17.708 90.83 17.86C91.2175 18.012 91.5275 18.24 91.76 18.468C92.3025 19.076 92.535 19.912 92.4575 20.748C92.535 21.508 92.225 22.344 91.6825 22.952C91.45 23.256 91.14 23.408 90.7525 23.56C90.365 23.712 90.055 23.788 89.6675 23.712H89.5125ZM62.465 16.492H56.8075V18.924H58.9C60.14 18.848 61.4575 19.228 62.465 19.988C62.93 20.368 63.24 20.748 63.4725 21.28C63.705 21.812 63.7825 22.344 63.7825 22.876C63.7825 23.408 63.705 24.016 63.4725 24.472C63.24 25.004 62.93 25.46 62.465 25.764C61.4575 26.524 60.2175 26.904 58.9775 26.904H54.25V14.44H62.62V16.492H62.465ZM56.8075 21.052V24.928H58.9C59.52 24.928 60.0625 24.776 60.5275 24.396C60.76 24.244 60.915 24.016 60.9925 23.712C61.07 23.484 61.1475 23.18 61.1475 22.952C61.1475 22.724 61.1475 22.42 60.9925 22.192C60.915 21.964 60.76 21.736 60.5275 21.584C60.0625 21.204 59.52 21.052 58.9775 21.052H56.8075ZM75.95 21.888H74.4V26.98H71.765V21.888H70.215L67.425 26.98H64.17L68.1225 20.292L64.4025 14.44H67.6575L70.525 19.456H71.8425V14.44H74.4V19.456H75.7175L78.5075 14.44H81.7625L78.0425 20.216L81.995 26.904H78.6625L75.95 21.888ZM108.267 16.492H102.61V18.924H104.625C105.942 18.848 107.182 19.228 108.19 19.988C108.655 20.368 108.965 20.748 109.197 21.28C109.43 21.812 109.507 22.344 109.507 22.876C109.507 23.408 109.43 24.016 109.197 24.472C108.965 25.004 108.655 25.46 108.19 25.764C107.182 26.524 105.942 26.904 104.702 26.904H99.8975V14.44H108.267V16.492ZM102.533 21.052V24.928H104.625C105.245 24.928 105.787 24.776 106.252 24.396C106.485 24.244 106.64 24.016 106.717 23.712C106.795 23.484 106.873 23.18 106.873 22.952C106.873 22.724 106.872 22.42 106.717 22.192C106.64 21.964 106.485 21.736 106.252 21.584C105.787 21.204 105.245 21.052 104.702 21.052H102.533ZM116.095 26.144C116.173 26.448 116.25 26.676 116.328 26.98H118.885V26.828C118.575 26.22 118.497 25.536 118.497 24.852V20.824C118.497 20.368 118.42 19.912 118.265 19.456C118.11 19 117.8 18.696 117.49 18.392C116.715 17.784 115.707 17.48 114.7 17.556C114.002 17.556 113.228 17.708 112.608 17.936C112.065 18.164 111.522 18.544 111.135 19.076C110.825 19.532 110.592 20.064 110.592 20.596H113.15C113.15 20.444 113.15 20.292 113.227 20.14C113.305 19.988 113.382 19.836 113.537 19.76C113.847 19.532 114.158 19.456 114.545 19.456C114.778 19.456 114.932 19.456 115.087 19.532C115.242 19.608 115.475 19.684 115.553 19.836C115.785 20.14 115.94 20.52 115.862 20.9V21.28H114.7C113.537 21.204 112.452 21.508 111.522 22.04C111.135 22.268 110.825 22.648 110.67 23.028C110.438 23.408 110.36 23.864 110.438 24.32C110.438 24.7 110.515 25.08 110.67 25.384C110.825 25.764 111.057 26.068 111.367 26.296C111.987 26.828 112.84 27.132 113.692 27.056C114.157 27.056 114.622 26.98 115.01 26.828C115.397 26.752 115.785 26.448 116.095 26.144ZM115.32 25.004C115.01 25.156 114.622 25.232 114.312 25.232C114.002 25.232 113.693 25.156 113.382 24.928C113.305 24.852 113.15 24.7 113.15 24.548C113.072 24.396 113.072 24.244 113.072 24.168V24.016C113.15 23.18 113.847 22.724 115.087 22.724H116.017V24.32C115.862 24.624 115.553 24.852 115.32 25.004ZM128.495 26.98H125.938V23.408H122.76V26.98H120.202V17.632H122.76V21.356H125.938V17.632H128.495V26.98ZM132.99 23.56H133.997L136.09 26.98H139.422L136.012 22.116L139.112 17.708H135.935L133.842 21.204H132.912V17.708H130.355V26.98H132.912L132.99 23.56Z" fill="white"/>
</svg>
