<svg width="155" height="39" viewBox="0 0 155 39" fill="none" xmlns="http://www.w3.org/2000/svg">
<path d="M27.125 34.0297L41.6959 34.0098L41.686 19.4942C38.6492 25.2885 32.9613 29.0519 27.125 30.4954C27.1448 31.5906 27.125 34.0297 27.125 34.0297Z" fill="white"/>
<path d="M31.7812 26.7222C37.2812 23.9247 39.9322 18.8173 39.9322 18.8173C39.9322 18.8173 39.9125 17.1348 39.9125 17.1049C36.8856 16.0297 34.1355 14.4567 31.7912 12.1071C31.801 16.0894 31.7812 26.7222 31.7812 26.7222ZM32.5628 4.74976C32.5628 4.74976 32.5628 9.19002 32.5528 10.2951C34.007 11.6491 34.7291 12.2763 36.2327 13.242L36.2425 7.28848C34.5313 6.34268 33.8685 5.84489 32.5628 4.74976Z" fill="white"/>
<path d="M54.187 9.42888C54.0584 8.63243 53.6132 8.10476 52.8713 7.85586C52.5054 7.73638 52.0997 7.66668 51.6051 7.63682C51.3084 7.6169 51.0018 7.63682 50.7149 7.66668H50.5962V5.93437L52.0008 5.94433L53.5539 6.16336L53.6132 4.74963H48.8156L49.0035 6.51181L49.0234 10.4543L48.8058 12.326H49.0827C49.0827 12.326 49.7356 12.3161 50.0521 12.326C50.2203 12.326 50.3885 12.3359 50.5566 12.3459C50.794 12.3559 51.0314 12.3758 51.2689 12.3758H51.437C52.3372 12.3559 53.0296 12.1269 53.544 11.6889C54.3255 11.0019 54.2859 10.076 54.187 9.42888ZM52.624 9.81717C52.624 9.98643 52.6142 10.1257 52.5943 10.2552C52.5351 10.6136 52.347 10.8625 52.0405 10.9919C51.6348 11.1712 51.1897 11.2109 50.5863 11.1413V8.89123C51.1304 8.82158 51.6645 8.80169 52.1591 9.05051C52.4757 9.21977 52.624 9.46866 52.624 9.81717ZM58.945 5.61578L58.7175 4.67993L57.1348 4.69984L56.9567 5.52618L55.0475 10.5041L54.2166 12.2862L55.8686 12.3161L56.1555 10.9521L56.5512 9.9167H58.9252L59.4693 11.2408L59.7562 12.3061H61.8929L61.1608 11.0417L58.945 5.61578ZM58.4801 8.76183C58.2328 8.76183 57.9756 8.77181 57.7184 8.78172C57.4711 8.7917 57.2139 8.7917 56.9765 8.80161C57.1249 8.4432 57.2732 8.07488 57.4217 7.71646C57.5403 7.44765 57.6491 7.17884 57.7579 6.91004L58.4801 8.76183ZM74.2679 12.3061L76.4442 12.2862L72.982 8.33369L76.2365 4.7297L74.3273 4.73966L73.7535 5.54607C73.7535 5.54607 72.2896 7.16887 71.4982 8.05491V6.09365L71.7257 4.74961H69.7275L69.8462 6.07374L69.8759 10.743L69.7275 12.2961H71.7257L71.5081 10.7529V8.90121L74.2679 12.3061ZM68.3523 10.0362C68.3523 9.52841 68.3722 6.12355 68.3722 6.12355L68.5502 4.76955H66.5718L66.7301 6.08372C66.7301 6.08372 66.73 7.07931 66.74 7.67665H63.9405C63.9207 6.82045 63.9307 5.94434 64.1483 5.08814L64.2274 4.77951H62.1699L62.1995 5.05827C62.2095 5.15783 62.3281 6.20319 62.348 6.69103C62.3776 7.70652 62.3677 8.75184 62.3578 9.74744V9.97644C62.3578 10.4046 62.2589 11.7187 62.2095 11.9576L62.1501 12.2464H64.1384L64.1087 11.9676C64.0889 11.7884 64.0691 11.6191 64.0493 11.44C63.9999 11.0517 63.9504 10.6734 63.9307 10.305C63.9108 9.92668 63.9108 9.5384 63.9207 9.1601V8.89123H66.7696C66.7696 9.08046 66.7696 9.26961 66.7796 9.45876C66.7894 10.315 66.7993 11.1313 66.5817 11.9378L66.5026 12.2464H68.5799L68.5106 11.9477C68.3722 11.2508 68.3523 10.5539 68.3523 10.0362ZM93.2804 16.0296L93.3393 15.7309H89.0962L89.1257 16.0097C89.2737 17.2939 89.383 18.4887 89.462 19.6833C89.5116 20.5395 89.5015 21.4156 89.4915 22.2718C89.4915 22.5706 89.4814 22.8791 89.4814 23.1779H81.5485C81.509 20.8382 81.4795 18.4189 82.0825 16.0494L82.1615 15.7408H77.7897L77.8293 16.0196C77.8293 16.0494 78.1555 18.8968 78.2051 20.2508C78.2842 22.8592 78.264 25.5175 78.2346 28.086V28.6933C78.2245 29.8184 77.9773 33.2332 77.8587 33.8405L77.799 34.1392H82.0135L81.9833 33.8604C81.9344 33.4124 81.8748 32.9744 81.8252 32.5363C81.6965 31.5606 81.5779 30.5551 81.5191 29.5794C81.4594 28.5938 81.4795 27.5783 81.4888 26.6026C81.4888 26.2442 81.4989 25.8858 81.4989 25.5274H89.5612C89.5612 26.1347 89.5612 26.752 89.5705 27.3493C89.6007 29.5894 89.6302 31.7 89.0567 33.8306L88.9676 34.1491H93.3494L93.2905 33.8505C92.9441 32.0385 92.8844 30.2365 92.8743 28.8726C92.8651 27.5086 92.8743 21.4853 92.934 19.8128C92.9836 18.2198 93.0921 16.9853 93.2804 16.0296ZM67.4027 31.8991V25.3681C69.4306 25.4279 73.2983 25.7365 73.3379 25.7365L73.605 25.7564L73.6149 22.7697L67.4027 23.1281V17.9809C69.2525 17.961 72.7246 17.9411 74.5249 18.4986L74.8019 18.5882L74.8415 18.2995C74.9701 17.3537 74.8811 16.0296 74.8712 15.9798L74.8514 15.7508H63.6438L63.6932 16.0395C64.0691 18.4588 64.0493 20.9079 64.0196 23.2774C64.0098 23.825 64.0098 24.3725 64.0098 24.9301C64.0394 28.4345 63.6635 33.8206 63.6537 33.8704L63.6338 34.1392L74.7821 34.189L74.792 33.9401C74.8118 33.3427 74.8613 31.7398 74.8909 31.5108L74.9305 31.1724L74.5942 31.2421C72.3784 31.6901 70.2813 31.8892 67.4027 31.8991ZM57.8767 23.8349C57.9262 23.8051 57.9756 23.7653 58.0251 23.7354C59.0341 23.0485 60.1914 22.033 60.2607 20.3006C60.3596 17.9112 59.0637 16.2188 56.6996 15.6711C54.6618 15.1933 52.5647 15.273 50.2896 15.9002L50.2599 15.9101C49.1619 16.2188 48.9739 16.3183 49.0036 16.5772C49.063 17.065 49.1619 17.6026 49.2509 18.1303C49.3201 18.5185 49.3894 18.9068 49.4389 19.2851C49.4586 19.4245 49.5576 19.534 49.6862 19.5838C49.8147 19.6236 49.9631 19.5838 50.0522 19.4843L50.1907 19.3349C51.2589 18.2 52.6538 17.6723 54.4244 17.7022C55.5521 17.7221 56.4918 18.4389 56.7094 19.4444C57.0063 20.8283 56.5017 22.033 55.4433 22.5108C54.9289 22.7398 54.3354 22.9091 53.6232 23.0385C52.9307 23.158 51.5656 23.2575 51.5458 23.2575L51.2985 23.2774L51.3974 25.627L51.6447 25.617C51.6547 25.617 52.8714 25.5772 53.8902 25.5772C54.3453 25.5772 55.8192 25.6768 56.571 26.1348C57.2337 26.533 57.7086 27.19 57.8471 27.887C58.0449 28.9323 58.2229 31.4213 55.5224 32.0186C53.1879 32.5363 51.2788 32.0186 49.8642 30.4855C49.7455 30.356 49.6169 30.2266 49.4785 30.0673L49.33 29.908C49.241 29.8084 49.1124 29.7785 48.9839 29.8184C48.8651 29.8583 48.7761 29.9678 48.7563 30.0972L48.687 30.6746C48.6178 31.2421 48.5585 31.7697 48.4694 32.2874C48.4002 32.7354 48.5485 33.0341 48.9739 33.2631C50.5468 34.1293 52.2878 34.5673 54.1474 34.5673C54.5036 34.5673 54.8597 34.5474 55.2257 34.5175C56.7194 34.3881 58.0944 33.8405 59.1924 32.9246C60.7949 31.6005 61.5268 29.9976 61.3488 28.1557C61.2103 26.0352 60.0233 24.5816 57.8767 23.8349ZM111.304 26.1248V24.9599V23.8747C111.294 21.2663 111.284 18.5683 111.749 16.0395L111.798 15.7408H107.426L107.485 16.0395C107.633 16.826 107.762 17.6623 107.861 18.5185C107.891 18.7873 107.861 18.9167 107.723 19.0661C106.338 20.5594 104.973 22.0827 103.667 23.5562C102.47 24.9002 101.233 26.2841 99.9671 27.658C99.9966 26.5031 99.9772 25.3581 99.9478 24.2331C99.8881 21.4156 99.8385 18.7475 100.531 16.0693L100.61 15.7508H96.1293L96.2278 16.0693C96.6432 17.4433 96.6432 18.7873 96.6532 20.211V21.5849C96.6633 23.9842 96.6734 26.4632 96.6432 28.8925C96.6432 29.2609 96.6532 29.6292 96.6633 29.9876C96.6835 30.6646 96.7028 31.3516 96.6339 32.0285C96.5943 32.4367 96.4951 32.835 96.396 33.2531C96.3471 33.4423 96.3076 33.6414 96.2673 33.8405L96.2084 34.1392H100.521L100.472 33.8505C100.383 33.2531 100.314 32.6558 100.254 32.0783C100.214 31.7398 100.185 31.4113 100.145 31.0728C100.125 30.9334 100.195 30.7244 100.274 30.6347C101.501 29.2907 102.718 27.9367 103.885 26.6225C105.21 25.1292 106.585 23.5959 107.99 22.0728V24.6015C107.98 25.4179 107.99 26.2442 107.999 27.0407C108.009 28.2752 108.029 29.5495 107.97 30.794C107.94 31.481 107.822 32.158 107.702 32.8748C107.644 33.1934 107.594 33.5219 107.544 33.8405L107.505 34.1292H111.798L111.739 33.8306C111.294 31.4212 111.304 28.7332 111.304 26.1248ZM122.343 18.19C122.343 18.1501 122.343 18.1004 122.353 18.0406L127.873 18.7575L127.517 15.711H113.717L113.41 18.7575L119.316 18.0406V29.6591L118.742 34.1592H122.927L122.403 29.7388C122.403 29.6491 122.353 21.9931 122.343 18.19Z" fill="white"/>
</svg>
