<svg width="155" height="39" viewBox="0 0 155 39" fill="none" xmlns="http://www.w3.org/2000/svg">
<path d="M33.9686 24.8423C33.6493 24.8423 33.4643 25.0351 33.4643 25.3839V28.1393H29.2626V25.3839C29.2626 25.0369 29.0776 24.8423 28.7583 24.8423C28.4425 24.8423 28.254 25.0351 28.254 25.3839V32.0271C28.254 32.3741 28.4425 32.5669 28.7583 32.5669C29.0776 32.5669 29.2626 32.3741 29.2626 32.0271V29.0858H33.4643V32.0271C33.4643 32.3741 33.6493 32.5669 33.9686 32.5669C34.2845 32.5669 34.4694 32.3741 34.4694 32.0271V25.3839C34.4711 25.0351 34.2845 24.8423 33.9686 24.8423ZM39.1563 28.6143L42.079 25.6784C42.2169 25.5399 42.2762 25.4278 42.2762 25.27C42.2762 25.0386 42.1174 24.8423 41.8452 24.8423C41.7038 24.8423 41.5905 24.8915 41.463 25.0177L38.6066 27.887C38.4461 28.0482 38.2838 28.1376 38.057 28.1376H37.4689V25.3822C37.4689 25.0351 37.284 24.8406 36.9646 24.8406C36.6488 24.8406 36.4604 25.0334 36.4604 25.3822V32.0253C36.4604 32.3723 36.6488 32.5651 36.9646 32.5651C37.284 32.5651 37.4689 32.3723 37.4689 32.0253V29.0841H37.989C38.214 29.0841 38.3763 29.1752 38.5368 29.3347L41.5695 32.3811C41.7038 32.5143 41.8208 32.5651 41.9708 32.5651C42.257 32.5651 42.4227 32.36 42.4227 32.1182C42.4227 31.9516 42.36 31.8342 42.2151 31.6888L39.1563 28.6143ZM45.4676 15.6963C45.0139 15.9364 44.3928 16.1082 43.7977 16.1082C42.8171 16.1082 42.2029 15.6823 42.2029 14.9391C42.2029 14.2696 42.7282 13.7507 43.7908 13.7507C44.3509 13.7507 44.8465 13.8331 45.4676 14.0189V15.6963ZM43.9321 9.52827C43.0788 9.52827 42.3093 9.74737 41.8173 9.94892C41.402 10.119 41.2257 10.3608 41.2275 10.6834C41.231 11.0637 41.5171 11.3424 41.8731 11.3424C42.0441 11.3424 42.2343 11.2758 42.4368 11.1951C42.7578 11.0654 43.2865 10.9252 43.8152 10.9252C44.9895 10.9252 45.4676 11.3705 45.4676 12.2801V12.8936C44.7924 12.7113 44.241 12.6307 43.6093 12.6307C41.6864 12.6307 40.7476 13.7315 40.7476 14.9391C40.7476 16.3361 41.7999 17.3878 43.6634 17.3878C45.1117 17.3878 46.2145 16.9039 46.6559 16.599C46.867 16.4518 46.9421 16.3115 46.9421 16.0258V12.3134C46.9404 10.4029 45.8463 9.52827 43.9321 9.52827ZM62.327 14.4781C61.9816 14.4852 61.7878 14.6919 61.657 14.9216C61.3917 15.4947 60.8316 15.8996 60.0656 15.8996C58.9838 15.8996 58.3469 15.2441 58.2578 14.2748C58.2108 13.7559 58.2108 13.1565 58.2578 12.6377C58.3469 11.6666 58.9925 11.0111 60.0656 11.0111C60.8316 11.0111 61.3865 11.409 61.657 11.9962C61.7931 12.2188 61.9816 12.4309 62.327 12.4344C62.7702 12.4379 63.0686 12.1609 63.0686 11.7245C63.0686 11.4984 62.9831 11.2723 62.847 11.0252C62.4021 10.1926 61.4353 9.52647 60.0447 9.52647C58.1672 9.52647 56.9038 10.7167 56.7467 12.4186C56.6926 12.9848 56.6926 13.9225 56.7467 14.4904C56.9108 16.1924 58.1672 17.386 60.0447 17.386C61.4353 17.386 62.4021 16.7235 62.8522 15.8856C62.9884 15.6367 63.0704 15.4124 63.0704 15.1862C63.0686 14.7568 62.7685 14.4676 62.327 14.4781ZM28.0552 16.003L25.4238 13.3599L27.9208 10.8516C28.1144 10.6571 28.2139 10.4643 28.2139 10.2417C28.2139 9.87178 27.947 9.59659 27.5665 9.59659C27.3449 9.59659 27.1792 9.67725 26.9646 9.89284L24.4275 12.4414C24.2896 12.5816 24.1412 12.6605 23.9441 12.6605H23.4258V10.4064C23.4258 9.89455 23.1293 9.59659 22.6616 9.59659C22.1975 9.59659 21.9026 9.89455 21.9026 10.4064V16.5061C21.9026 17.0179 22.1992 17.3194 22.6616 17.3194C23.1293 17.3194 23.4258 17.0179 23.4258 16.5061V14.0715H23.8586C24.0558 14.0715 24.2041 14.1504 24.342 14.2906L27.0501 17.0092C27.2734 17.2335 27.4479 17.3212 27.68 17.3212C28.0813 17.3212 28.3622 17.0337 28.3622 16.6428C28.3622 16.4097 28.2593 16.2064 28.0552 16.003ZM53.7456 14.2765C53.6565 15.2493 53.0546 15.9066 51.9517 15.9066C51.3812 15.9066 50.664 15.7314 50.3097 15.4807V11.4353C50.664 11.1812 51.3794 11.0058 51.9517 11.0058C53.0546 11.0058 53.6583 11.6666 53.7456 12.6395C53.7891 13.1285 53.7926 13.7472 53.7456 14.2765ZM51.9989 9.52827C50.6657 9.52827 49.5996 10.0015 49.1703 10.2557C48.8197 10.4643 48.783 10.629 48.783 11.2162V19.0336C48.783 19.5419 49.0779 19.8434 49.542 19.8434C50.0097 19.8434 50.308 19.5419 50.308 19.0336V16.9933C50.7652 17.2159 51.4649 17.3878 52.1315 17.3878C53.8938 17.3878 55.1048 16.2081 55.2636 14.5061C55.3177 13.933 55.3177 12.9883 55.2636 12.4098C55.1083 10.7043 53.8956 9.52827 51.9989 9.52827ZM25.4168 31.1612C24.8584 31.4626 24.0994 31.6835 23.3962 31.6835C22.1381 31.6835 21.4279 31.1471 21.4279 30.2199C21.4279 29.3873 22.0526 28.7651 23.3962 28.7651C24.0627 28.7651 24.6264 28.8632 25.4168 29.0981V31.1612ZM23.6125 24.7757C22.7332 24.7757 21.8764 25.0159 21.4122 25.2279C21.0999 25.3647 20.9586 25.5102 20.9655 25.7608C20.9743 26.0202 21.1732 26.2253 21.4192 26.2253C21.5396 26.2253 21.6844 26.178 21.8258 26.1114C22.1817 25.9589 22.8535 25.7573 23.5113 25.7573C24.8131 25.7573 25.4168 26.2902 25.4168 27.4768V28.1831C24.6002 27.9448 24.0121 27.8624 23.3072 27.8624C21.4 27.8624 20.4316 28.9649 20.4316 30.2111C20.4316 31.6747 21.5274 32.637 23.2636 32.637C24.6979 32.637 25.7955 32.1304 26.2003 31.8342C26.3643 31.7168 26.4114 31.6222 26.4114 31.3978V27.4505C26.4114 25.6241 25.3592 24.7757 23.6125 24.7757ZM16.2595 31.5029H13.4083V27.4417H16.2595C17.7514 27.4417 18.3656 28.1761 18.3656 29.4452C18.3656 30.7422 17.7514 31.5029 16.2595 31.5029ZM16.3886 26.4672H13.4083V23.3332H18.3743C18.7059 23.3332 18.9344 23.1474 18.9344 22.8284C18.9344 22.5234 18.7059 22.3341 18.3743 22.3341H13.2809C12.7103 22.3341 12.384 22.6531 12.384 23.2333V31.5976C12.384 32.1777 12.7086 32.4985 13.2809 32.4985H16.3869C18.2958 32.4985 19.4021 31.3837 19.4021 29.4364C19.4021 27.5417 18.2976 26.4672 16.3886 26.4672ZM33.9094 12.4361H36.408C37.5894 12.4361 38.1163 13.0408 38.1163 14.0838C38.1163 15.1442 37.5894 15.7769 36.408 15.7769H33.9094V12.4361ZM33.5324 17.251H36.5721C38.549 17.251 39.7199 16.0977 39.7199 14.0505C39.7199 12.1189 38.549 11.0391 36.5721 11.0391H33.9094V8.57121H38.3833C38.8718 8.57121 39.1894 8.28206 39.1894 7.81929C39.1894 7.37934 38.8718 7.08838 38.3833 7.08838H33.5324C32.7647 7.08838 32.3442 7.50729 32.3442 8.28206V16.0591C32.3424 16.8339 32.7629 17.251 33.5324 17.251ZM14.5739 12.664L15.9698 8.6641C16.0239 8.52394 16.0693 8.4748 16.174 8.4748C16.2769 8.4748 16.3223 8.52394 16.3729 8.6641L17.7759 12.664H14.5739ZM20.7335 16.5815C20.7335 16.4395 20.709 16.301 20.6288 16.0872L17.8124 8.36443C17.4722 7.42141 16.9767 7.02002 16.188 7.02002C15.4027 7.02002 14.9037 7.42141 14.5652 8.36443L11.7297 16.0907C11.6424 16.3308 11.625 16.4746 11.625 16.5867C11.625 16.9881 11.9426 17.3212 12.384 17.3212C12.7453 17.3212 13.0157 17.1389 13.1658 16.6937L14.0836 14.0679H18.2714L19.1962 16.7007C19.3428 17.1389 19.6132 17.3212 19.9692 17.3212C20.4176 17.3212 20.7335 16.9864 20.7335 16.5815Z" fill="white"/>
<path d="M143.722 19.0964C142.681 16.4441 140.111 14.9996 137.33 15.5051L131.613 16.5411C130.665 16.713 130.035 17.627 130.204 18.5821C130.374 19.5373 131.281 20.1721 132.229 20.0016L137.944 18.9656C139.305 18.7188 140.145 19.5388 140.477 20.3866C140.81 21.236 140.752 22.413 139.594 23.1698L131.204 28.6493C130.424 29.1578 129.475 29.1931 128.663 28.7479C127.85 28.3026 127.363 27.4782 127.363 26.5451V8.78968C127.363 7.81843 126.583 7.03077 125.62 7.03077C124.655 7.03077 123.876 7.81843 123.876 8.78968V26.548C123.876 28.7904 125.042 30.7683 126.997 31.8395C127.905 32.3362 128.883 32.5846 129.857 32.5846C130.981 32.5846 132.101 32.2568 133.101 31.603L141.49 26.1234C143.866 24.5717 144.763 21.7488 143.722 19.0964ZM114.212 15.5066L108.496 16.5426C107.549 16.7145 106.919 17.6285 107.088 18.5836C107.258 19.5388 108.165 20.1735 109.113 20.0031L114.828 18.9671C116.19 18.7203 117.029 19.5402 117.363 20.3881C117.695 21.2375 117.638 22.4145 116.478 23.1712L108.088 28.6508C107.309 29.1592 106.361 29.1946 105.547 28.7493C104.734 28.304 104.248 27.4797 104.248 26.5466V13.057C104.248 10.8132 103.082 8.83523 101.127 7.76402C99.1727 6.69426 96.8911 6.78243 95.0234 8.00063L73.9209 21.7826C71.5461 23.3329 70.6496 26.1557 71.6905 28.8081C72.7299 31.459 75.2984 32.902 78.0826 32.3979L96.5075 29.0593C97.4553 28.8874 98.0862 27.9734 97.9157 27.0183C97.7452 26.0631 96.8384 25.4268 95.8906 25.5988L77.4662 28.9374C76.1046 29.1843 75.2664 28.3643 74.934 27.5164C74.6002 26.667 74.6571 25.49 75.8175 24.7318L96.9159 10.9527C97.6925 10.4458 98.6434 10.409 99.4564 10.8543C100.27 11.301 100.755 12.1254 100.755 13.0585V26.548C100.755 28.7904 101.922 30.7683 103.877 31.8395C104.784 32.3362 105.764 32.5846 106.738 32.5846C107.862 32.5846 108.98 32.2568 109.98 31.603L118.371 26.1234C120.745 24.5731 121.641 21.7503 120.601 19.0979C119.565 16.4441 116.994 15.0025 114.212 15.5066Z" fill="white"/>
</svg>
