<svg width="154" height="39" viewBox="0 0 154 39" fill="none" xmlns="http://www.w3.org/2000/svg">
<path d="M43.8166 5.45996L42.4861 9.15697H60.9175L62.248 5.45996H43.8166ZM41.8216 11.0039L40.4911 14.7001H58.9225L60.253 11.0039H41.8216ZM39.8305 16.5479L38.5 20.2433H56.9314L58.2604 16.5471C58.2611 16.5479 39.8305 16.5479 39.8305 16.5479Z" fill="white"/>
<path d="M77.245 21.4035V21.4803C78.0727 21.7882 78.8641 22.3274 79.2779 22.6737C80.5574 23.7519 81.1228 25.1757 81.1228 27.0234C81.1228 30.0662 79.5417 32.2594 76.9433 32.9529C76.152 33.1841 75.3243 33.2609 73.7811 33.2609H65.9141V11.0083H72.8791C74.3102 11.0083 75.2879 11.0851 76.1536 11.3155C78.6761 12.009 80.333 13.7799 80.333 16.5899C80.333 18.092 79.8063 19.363 78.9407 20.2093C78.5639 20.594 78.0371 21.0564 77.2466 21.4027L77.245 21.4035ZM70.2808 23.7519V29.6038H73.293C74.1957 29.6038 75.0249 29.527 75.6268 28.9495C76.2294 28.372 76.4924 27.6401 76.4924 26.6779C76.4924 25.9476 76.3036 25.2541 75.9277 24.7534C75.2879 23.9447 74.4966 23.7519 73.1421 23.7519H70.28H70.2808ZM70.2421 19.9013H72.6896C73.4423 19.9013 73.819 19.9013 74.1949 19.7861C75.2121 19.4774 75.8519 18.5551 75.8519 17.2841C75.8519 15.7828 75.1742 15.1277 74.1949 14.8205C73.7803 14.7045 73.3672 14.6669 72.5387 14.6669H70.2421V19.9021V19.9013ZM87.6733 33.2617V14.7429H81.3866V11.0091H98.8557L97.6134 14.7429H92.0407V33.2617H87.6733ZM100.211 33.2617V11.0091H114.367L113.125 14.7429H104.541V19.6717H108.043C110.867 19.6717 112.335 20.3652 113.352 21.2499C114.143 21.9434 115.498 23.4824 115.498 26.5251C115.498 29.5278 114.105 31.1828 112.937 32.0306C111.582 32.9921 110.152 33.2624 107.252 33.2624H100.212H100.211V33.2617ZM104.541 29.5263H107.816C109.058 29.5263 109.811 29.2183 110.338 28.5248C110.601 28.1793 110.977 27.5618 110.977 26.4075C110.977 25.2533 110.601 24.4438 109.848 23.8663C109.397 23.5208 108.794 23.3288 107.777 23.3288H104.539V29.5263H104.541Z" fill="white"/>
</svg>
