<svg width="155" height="38" viewBox="0 0 155 38" fill="none" xmlns="http://www.w3.org/2000/svg">
<path fill-rule="evenodd" clip-rule="evenodd" d="M11.625 19.0631C11.625 25.8141 17.2589 31.2869 24.2087 31.2869C31.1591 31.2869 36.793 25.8141 36.793 19.0631C36.7905 15.8153 35.4632 12.7033 33.1072 10.4203C30.7376 8.12401 27.5403 6.8378 24.2087 6.84003C17.2589 6.84003 11.625 12.3137 11.625 19.0631ZM47.3598 16.2666C48.6116 16.1753 49.7621 16.936 50.1336 18.1012H45.7884C45.7216 18.0916 45.6542 18.1124 45.6058 18.1584C45.5579 18.2037 45.5341 18.2697 45.5422 18.3343V19.7014C45.5381 19.7363 45.543 19.7712 45.5558 19.8031C45.5668 19.8313 45.5837 19.8573 45.6058 19.8788C45.6542 19.9248 45.721 19.9478 45.7884 19.9404H50.204C49.9216 21.2259 48.7105 22.1165 47.3598 22.0311C46.2782 22.0927 45.244 21.5903 44.6389 20.7093C44.5508 20.6239 44.4632 20.6239 44.3398 20.7093L43.2081 21.5242C43.1236 21.5888 43.1082 21.7075 43.1729 21.7921C44.3964 23.5407 46.6463 24.3163 48.731 23.707C50.8157 23.0984 52.2519 21.2459 52.2796 19.1314C52.3051 17.8585 51.7927 16.6317 50.8641 15.7426C49.9304 14.8467 48.6647 14.3643 47.3598 14.4044C45.715 14.3888 44.1725 15.1852 43.2545 16.5226L43.2448 16.5352C43.1837 16.6191 43.2042 16.7364 43.2903 16.7965L44.375 17.6055C44.3852 17.6151 44.3964 17.624 44.4085 17.6322C44.5086 17.6967 44.6435 17.6693 44.7093 17.5713C45.3087 16.7223 46.3072 16.2309 47.3598 16.2666ZM55.6717 14.6011C55.6248 14.5558 55.5589 14.5335 55.4933 14.541H53.9565C53.8903 14.5343 53.8245 14.5558 53.7766 14.6011C53.7287 14.6464 53.7047 14.7102 53.7104 14.7748V23.5689C53.7026 23.635 53.7261 23.6996 53.7745 23.7456C53.823 23.7908 53.8903 23.8124 53.9565 23.8027H55.4927C55.5586 23.8101 55.6242 23.7879 55.6711 23.7426C55.7181 23.6973 55.741 23.6335 55.7334 23.5697V19.9411H60.0496V23.54C60.0432 23.5905 60.0566 23.6424 60.0858 23.684C60.0937 23.6959 60.103 23.7062 60.1132 23.7159C60.1616 23.7619 60.229 23.7827 60.2958 23.773H61.8437C61.9096 23.7805 61.9752 23.7589 62.0221 23.7129C62.0691 23.6676 62.0919 23.6038 62.0844 23.54V14.7748C62.0919 14.7102 62.0691 14.6464 62.0221 14.6011C61.9752 14.5558 61.9096 14.5335 61.8437 14.541H60.3075C60.2413 14.5335 60.1749 14.5558 60.127 14.6011C60.0791 14.6464 60.0551 14.7102 60.0608 14.7748V18.0493H55.7334V14.7748C55.741 14.7102 55.7181 14.6464 55.6717 14.6011ZM72.745 22.475C72.8139 22.4015 72.8087 22.2864 72.7332 22.2189L71.8943 21.0796C71.8846 21.067 71.8729 21.0559 71.8601 21.0462C71.7821 20.9883 71.6716 21.0039 71.6129 21.0796C70.7566 21.7721 69.6658 22.1239 68.5576 22.0653C67.2242 22.1484 66.0086 21.3268 65.6264 20.0829H73.1139C73.2553 20.0829 73.3255 19.9975 73.3255 19.8439V19.1663C73.3836 17.8979 72.8973 16.6636 71.984 15.7641C71.0654 14.8594 69.8066 14.3673 68.5052 14.4044C67.1805 14.351 65.8918 14.8341 64.9424 15.7418C63.9982 16.6436 63.4809 17.8912 63.5152 19.1833C63.5152 21.9116 65.5969 23.9274 68.5756 23.9274C70.0925 23.9504 71.5681 23.4391 72.7332 22.4868L72.745 22.475ZM71.2495 18.2319H65.6086C65.976 16.9984 67.1671 16.1708 68.4874 16.2324C69.8713 16.2324 71.1087 17.0473 71.2495 18.2319ZM74.7773 26.4093C74.824 26.4553 74.8893 26.4791 74.9555 26.4739L76.5271 26.4568C76.5942 26.4642 76.6616 26.4412 76.7095 26.3944C76.7409 26.364 76.7617 26.3254 76.7702 26.2839C76.7748 26.2623 76.7759 26.2401 76.7732 26.2178V23.045C77.5628 23.6476 78.548 23.9497 79.547 23.894C80.8566 23.9534 82.1313 23.4732 83.062 22.5677C83.9872 21.6682 84.479 20.425 84.4139 19.1485C84.4729 17.8726 83.9806 16.631 83.0569 15.73C82.1282 14.8237 80.8566 14.3369 79.547 14.3873C78.4905 14.351 77.4599 14.7139 76.6677 15.4012H76.5449L76.392 14.7399C76.3676 14.6182 76.2542 14.5328 76.1278 14.541H74.9555C74.8899 14.5335 74.824 14.5558 74.7773 14.6011C74.7304 14.6464 74.7073 14.7102 74.715 14.7748V26.2341C74.7078 26.2987 74.7307 26.3633 74.7773 26.4093ZM79.4884 22.0482C78.4557 22.0831 77.4536 21.7016 76.7146 20.9943V17.3546C77.422 16.5968 78.443 16.196 79.4884 16.2666C80.2759 16.2398 81.038 16.5404 81.5863 17.0948C82.1318 17.6463 82.4102 18.4003 82.35 19.1663C82.4066 19.9292 82.1267 20.6796 81.5818 21.2273C81.3137 21.4967 80.9949 21.706 80.6473 21.8456C80.284 21.9918 79.8893 22.0623 79.4884 22.0482ZM85.9143 23.7159C85.9627 23.7619 86.0301 23.7834 86.0969 23.7738L87.6096 23.773C87.6764 23.7827 87.7438 23.7619 87.7922 23.7159C87.8406 23.6706 87.8641 23.6053 87.8563 23.54V16.4039H92.9341C93.0015 16.4113 93.0681 16.3883 93.1165 16.3415C93.1646 16.2948 93.1884 16.2294 93.1809 16.1641V14.7748C93.1746 14.6464 93.0666 14.5439 92.9341 14.541H86.0969C86.0322 14.5395 85.9694 14.5632 85.923 14.607C85.8767 14.6508 85.8507 14.7117 85.8507 14.7748V23.54C85.8426 23.6053 85.8664 23.6706 85.9143 23.7159ZM103.43 19.2286C103.47 16.6176 101.334 14.4638 98.646 14.4044C97.3298 14.3755 96.057 14.8646 95.1112 15.7619C94.1702 16.6547 93.6391 17.8823 93.638 19.1663C93.6422 21.778 95.8135 23.8977 98.5022 23.9155C101.191 23.9319 103.391 21.8404 103.43 19.2286ZM98.6343 22.0371C97.0016 22.0371 95.6784 20.7508 95.6784 19.1663C95.6784 17.581 97.0016 16.2948 98.6343 16.2948C100.266 16.2948 101.59 17.581 101.59 19.1663C101.59 20.7508 100.266 22.0371 98.6343 22.0371ZM112.389 14.5514C112.358 14.541 112.325 14.5373 112.291 14.541H105.307C105.242 14.5335 105.176 14.5558 105.129 14.6011C105.082 14.6464 105.059 14.7102 105.067 14.7748V23.54C105.063 23.5756 105.068 23.6105 105.081 23.6424C105.092 23.6691 105.108 23.6929 105.129 23.7137C105.176 23.7589 105.242 23.7812 105.307 23.7738H109.723C111.746 23.7738 113.388 22.5722 113.388 20.6581C113.388 18.744 111.746 17.5535 109.723 17.5535H107.09V16.369H112.291C112.357 16.3742 112.422 16.3512 112.469 16.3051C112.516 16.2591 112.539 16.1946 112.531 16.13V14.7748C112.539 14.7102 112.516 14.6464 112.469 14.6011C112.446 14.5788 112.419 14.5617 112.389 14.5514ZM109.723 21.945H107.09V19.3711H109.723C110.778 19.3711 111.364 19.861 111.364 20.6581C111.364 21.4552 110.773 21.945 109.723 21.945ZM117.61 23.9274C118.851 23.9705 120.059 23.5259 120.964 22.6917L121.046 22.7206L121.486 23.7849C121.499 23.8465 121.541 23.897 121.598 23.9237C121.655 23.9504 121.722 23.9504 121.779 23.9222L123.022 23.5348C123.045 23.5296 123.068 23.5214 123.089 23.5096C123.202 23.445 123.24 23.3032 123.175 23.1926L122.952 22.4809C122.777 21.8582 122.699 21.2132 122.723 20.5675V17.6166C122.723 15.3321 120.858 14.4326 118.8 14.4326C117.322 14.391 115.875 14.8453 114.696 15.7196C114.685 15.727 114.675 15.7359 114.665 15.7448C114.56 15.845 114.558 16.0105 114.66 16.1129L115.34 17.0414C115.447 17.1616 115.629 17.1839 115.763 17.0926C116.659 16.5041 117.722 16.2087 118.8 16.2495C119.844 16.2495 120.7 16.5916 120.7 17.3887V17.5884L117.627 17.9817C115.481 18.2489 114.208 19.3028 114.208 21.0455C114.208 22.7889 115.604 23.9274 117.61 23.9274ZM117.622 19.7237L120.694 19.2338V20.7776C120.015 21.6467 118.937 22.1306 117.815 22.0712C116.713 22.0712 116.226 21.6266 116.226 20.9319C116.226 20.3337 116.666 19.878 117.622 19.7237ZM126.603 14.6011C126.555 14.5558 126.489 14.5343 126.423 14.541H124.899C124.832 14.5343 124.767 14.5558 124.719 14.6011C124.671 14.6464 124.647 14.7102 124.652 14.7748V23.5689C124.644 23.6342 124.668 23.6996 124.716 23.7456C124.765 23.7916 124.832 23.8124 124.899 23.8027H126.435C126.502 23.8124 126.569 23.7908 126.617 23.7448C126.641 23.7226 126.658 23.6966 126.669 23.6676C126.681 23.6365 126.686 23.6031 126.682 23.5697V19.9411H131.009V23.54C131.001 23.6038 131.024 23.6676 131.071 23.7129C131.118 23.7589 131.184 23.7805 131.25 23.773H132.774C132.84 23.7827 132.908 23.7619 132.956 23.7159C133.004 23.6706 133.028 23.6046 133.02 23.54V14.7748C133.025 14.7102 133.002 14.6464 132.954 14.6011C132.906 14.5558 132.84 14.5343 132.774 14.541H131.237C131.172 14.5335 131.106 14.5558 131.059 14.6011C131.012 14.6464 130.989 14.7102 130.997 14.7748V18.0493H126.669V14.7748C126.675 14.7102 126.651 14.6464 126.603 14.6011ZM136.66 14.5462C136.634 14.5395 136.607 14.538 136.58 14.541H135.043C134.977 14.5335 134.911 14.5558 134.863 14.6011C134.815 14.6464 134.791 14.7102 134.797 14.7748V23.5281C134.789 23.5934 134.813 23.6587 134.861 23.704C134.909 23.75 134.977 23.7716 135.043 23.7619H136.58C136.645 23.7693 136.711 23.7471 136.758 23.7018C136.805 23.6565 136.827 23.5927 136.82 23.5289V20.5096L137.853 19.7407L141.048 23.6083C141.159 23.7255 141.319 23.7864 141.482 23.773H143.576C143.734 23.773 143.804 23.6424 143.681 23.5229L139.248 18.5903L143.417 14.7903C143.54 14.6768 143.487 14.5402 143.329 14.5402H141.2C141.038 14.5343 140.879 14.5818 140.749 14.6768L136.82 18.4367V14.7748C136.827 14.7102 136.805 14.6464 136.758 14.6011C136.731 14.5744 136.696 14.5558 136.66 14.5462Z" fill="white"/>
<path fill-rule="evenodd" clip-rule="evenodd" d="M23.8504 26.554C20.8971 26.418 18.2833 24.657 17.1176 22.0184C15.9519 19.3792 16.4412 16.3176 18.3735 14.1538C18.5621 13.9433 18.8893 13.9224 19.1044 14.1078C19.1111 14.1133 19.1177 14.1193 19.1238 14.1253L20.4608 15.4239C20.6468 15.6018 20.6621 15.8887 20.4964 16.0847C19.1452 17.6687 19.0239 19.938 20.1993 21.652C21.3747 23.3684 23.5685 24.1352 25.6002 23.5389C27.6314 22.9431 29.0219 21.1246 29.0224 19.0633C29.0193 17.9491 28.6024 16.8739 27.8495 16.0392C27.6727 15.8508 27.6727 15.5608 27.8495 15.3724L29.2156 14.0568C29.4098 13.8554 29.734 13.8464 29.9399 14.0368C29.947 14.0433 29.9536 14.0498 29.9603 14.0568C32.0399 16.2971 32.5267 19.5506 31.1907 22.2823C29.8553 25.0139 26.9601 26.6984 23.8504 26.5535V26.554Z" fill="#031C17"/>
</svg>
