<svg width="155" height="39" viewBox="0 0 155 39" fill="none" xmlns="http://www.w3.org/2000/svg">
<path d="M131.747 13.3024H134.353L134.34 17.5368H134.904L136.388 13.3024H139.209L137.186 18.9004L139.5 25.0986H136.446L134.943 20.3553H134.327L134.34 25.0986H131.734V13.3024H131.747ZM122.963 13.3024H125.556V17.5564H127.41V13.3024H129.996V25.0986H127.41V20.3684H125.556V25.0986H122.963V13.3024ZM113.933 25.1182H116.629L116.954 23.076H118.808L119.131 25.1182H121.828L119.559 13.322H116.214L113.933 25.1182ZM117.887 16.8973L118.38 20.4858H117.382L117.887 16.8973ZM106.698 25.0986H109.855C110.542 25.0986 113.414 24.7985 113.427 21.2231C113.427 18.2219 111.203 17.6999 109.764 17.6999H109.291V16.134H112.804V13.3024H106.704L106.698 25.0986ZM109.284 22.7303V20.0617H109.667C109.991 20.0617 110.814 20.0747 110.814 21.2948C110.814 22.528 109.985 22.7303 109.667 22.7303H109.284ZM96.41 13.3024H98.666L100.656 16.0883L102.666 13.3024H104.902V25.0986H102.251V17.9087L100.656 19.9638L99.0613 17.9087V25.0986H96.41V13.3024ZM90.9323 25.2422C94.0765 25.2422 95.1328 22.2017 95.1328 19.1874C95.1328 16.1731 94.0765 13.1327 90.9323 13.1327C87.7881 13.1327 86.731 16.1666 86.731 19.1874C86.731 22.2083 87.7943 25.2422 90.9323 25.2422ZM90.9323 22.3779C89.9984 22.3779 89.5187 21.2557 89.5187 19.1874C89.5187 17.1192 89.9922 15.9904 90.9323 15.9904C91.8724 15.9904 92.3389 17.1127 92.3389 19.1874C92.3389 21.2622 91.8724 22.3844 90.9323 22.3779ZM79.0562 25.0986H81.7075V21.21H82.5956C85.2143 21.21 86.0312 18.7764 86.0312 17.2236C86.0312 15.7099 85.0981 13.3024 82.5956 13.3024H79.0562V25.0986ZM81.7075 15.8991H82.336C82.9327 15.8991 83.3148 16.2775 83.3148 17.2562C83.3148 18.5219 82.6669 18.6133 82.336 18.6133H81.7075V15.8991ZM70.2978 13.3024H77.5325V25.0986H74.8811V16.1536H72.9493V25.0986H70.2978V13.3024ZM64.8589 17.876C65.2868 17.876 66.0711 17.589 66.0711 16.7212C66.0711 15.6968 65.1701 15.6316 64.9043 15.6316C64.5996 15.6316 64.0162 15.6838 63.4457 15.9644L63.4133 13.4003C64.3144 13.1653 64.9627 13.1001 65.7276 13.1001C67.9057 13.1001 68.8717 14.666 68.8717 16.1992C68.8717 17.6868 68.0419 18.5872 67.2316 18.933V19.0439C68.0159 19.2983 69.0532 20.0747 69.0532 21.8755C69.0532 24.1069 67.5492 25.3401 65.6174 25.3401C64.5932 25.327 63.9125 25.1834 63.1021 24.7267L63.1475 22.2735C63.8995 22.6062 64.4051 22.6389 64.9107 22.6389C65.7665 22.6389 66.1035 21.9864 66.1035 21.5167C66.1035 20.8512 65.6887 20.4075 64.7876 20.4075H63.7115V17.876H64.8589ZM54.4348 25.0986H57.1187L57.4557 23.0564H59.3097L59.6339 25.0986H62.3178L60.0488 13.3024H56.7102C56.7037 13.3024 54.4348 25.0986 54.4348 25.0986ZM58.3698 16.8647L58.8754 20.4662H57.8641L58.3698 16.8647ZM49.3005 13.3024H54.7395V16.2449H51.9974V25.0986H49.3005V13.3024ZM16.1742 19.3375C16.1742 26.5927 21.9113 32.5039 28.9645 32.5039C36.0046 32.5039 41.7352 26.5927 41.7352 19.3375C41.7352 12.0692 36.0046 6.15808 28.9645 6.15808C21.9048 6.15156 16.1742 12.0627 16.1742 19.3375ZM15.5 19.3375C15.5 11.6843 21.5353 5.45996 28.9645 5.45996C36.3741 5.45996 42.4095 11.6778 42.4095 19.3375C42.4095 26.9777 36.3741 33.1954 28.9645 33.1954C21.5353 33.1954 15.5 26.9777 15.5 19.3375Z" fill="white"/>
<path d="M24.9444 10.5751C24.4776 10.7839 24.0368 11.0449 23.6285 11.3451C26.8308 9.87704 30.7399 9.96838 32.8403 10.934C33.5015 11.2472 33.9423 11.4429 34.1433 11.8213C31.9651 11.2211 31.0317 11.1101 29.21 11.1559C26.6169 11.2015 23.1682 12.2585 21.8522 13.0675L21.2688 13.8178C23.1682 12.663 26.7077 11.9061 28.6719 11.8409C30.8631 11.8083 32.568 12.017 34.1303 12.5978C34.0396 13.0088 33.8386 13.2111 33.5015 13.4198C27.2458 12.2976 23.5507 13.6221 20.2121 15.8665L19.9657 16.6103C23.6933 13.9744 28.2571 13.2437 32.6588 14.0331C31.0835 14.6007 29.197 14.7312 27.6153 15.1031C26.2669 15.4228 25.5473 15.5142 23.7516 16.134C21.93 16.7473 20.8539 17.3802 20.1796 18.1892C19.8555 18.5676 19.6092 19.0113 19.5509 19.4876C19.5249 19.7681 19.5379 20.0291 19.6286 20.277C19.7 20.4988 19.875 20.7207 20.0565 20.9425C19.8426 21.321 19.6546 21.8103 19.9657 22.3844C20.1019 22.652 20.4584 22.9194 20.7955 23.1739L20.6983 23.4544C20.6529 23.7872 20.6075 24.1852 20.8215 24.5114C21.1845 25.1117 21.6318 25.5096 22.3384 25.8881C22.4486 26.3774 22.6107 26.7754 22.9802 27.1212C23.7646 27.865 25.5084 29.2873 28.6201 29.5092C30.9538 29.6657 32.6199 28.9416 33.2487 28.6218L34.0136 28.2108C32.7106 28.7458 30.5195 29.0655 28.7238 28.9024C26.1178 28.6806 23.7905 26.9255 23.4988 26.4166C23.5896 26.4818 23.7127 26.5275 23.8164 26.5732C26.8698 28.0933 30.8047 28.9154 35.8547 26.795L36.2696 26.3839C31.6799 27.8519 27.6672 27.8063 23.3561 25.4836C23.4016 25.2618 23.4988 25.066 23.6933 24.9159C24.7953 25.4183 25.8585 25.8359 27.142 26.0968C28.646 26.3839 30.3639 26.4492 31.7706 26.3839C33.1969 26.3187 36.0168 25.5945 37.3522 24.8637C37.4754 24.7528 37.5337 24.5636 37.6569 24.4396C35.0509 25.4183 31.9521 25.875 30.0852 25.7315C28.2571 25.588 26.6364 25.3661 24.4907 24.3549C24.9055 24.1852 25.3334 24.0417 25.7613 23.9112C27.1745 24.3549 28.6136 24.6223 30.3121 24.7006C31.9975 24.7789 35.939 24.133 38.4218 22.5867C38.4996 22.3648 38.5774 22.1234 38.5774 22.1234C38.5774 22.1234 35.1286 24.0221 31.2196 24.0221C29.3915 24.0221 28.2765 23.7546 27.4467 23.5458C29.2878 23.2 31.6021 22.9129 34.2081 22.2343C35.5241 21.8886 37.1512 21.0926 37.8903 20.4336C38.5191 19.8465 39.0118 19.0896 38.8432 18.3132C38.8108 18.1044 38.5385 17.615 38.1949 17.4455C38.5191 17.0213 38.4867 16.6559 38.4413 16.3428C38.4089 16.1014 38.2987 15.8339 38.169 15.599C37.9551 15.3119 37.7541 15.0901 37.3392 14.8357C37.4041 14.5029 37.3587 14.1636 37.2161 13.857C36.8919 13.2893 36.315 12.8 35.3166 12.278C35.2713 12.0692 35.1481 11.8018 34.9342 11.5342C33.6766 10.2555 31.6215 9.63563 29.8907 9.60303H29.6054C27.5828 9.62261 25.9557 10.0923 24.9444 10.5751ZM34.7592 13.7395C34.9147 13.5634 35.1416 13.2959 35.2 13.074C35.6343 13.3611 36.1205 13.7852 36.1788 14.2289C35.7251 14.0527 35.2324 13.8635 34.7592 13.7395ZM35.1416 15.6643C34.4091 15.4554 33.7608 15.2076 32.9051 15.0509C33.4302 14.8421 33.7803 14.6269 34.0849 14.3724C34.7721 14.5616 35.4139 14.7965 35.939 15.0379C35.8482 15.1749 35.3231 15.6773 35.1611 15.6773C35.1546 15.6708 35.1481 15.6708 35.1416 15.6643ZM36.477 16.2188C36.678 16.0622 36.8595 15.8861 37.0281 15.6838C37.4429 16.0492 37.5661 16.2971 37.3652 16.6951C37.0864 16.4863 36.7947 16.3754 36.477 16.2188ZM20.7307 20.14C19.5962 18.5285 23.5312 17.3736 24.2832 17.1388C26.1956 16.5516 28.4386 16.1145 30.4612 15.86C31.8549 15.6838 32.5939 15.8469 33.9099 16.2058C30.5195 17.1388 27.1745 17.4389 23.9915 18.4045C21.4244 19.1679 20.7437 20.14 20.7307 20.14ZM21.5735 20.9165C22.7727 19.8725 25.2102 19.2853 26.0983 19.0831C28.9313 18.4502 31.5697 18.0522 32.6588 17.7717C33.9747 17.4389 34.8953 17.1257 35.537 16.806C35.5694 16.7604 36.6132 17.2823 36.7169 17.4063C36.3668 17.7064 35.8742 17.9609 35.3361 18.15C33.7284 18.7503 30.7982 19.3832 29.2489 19.6246C27.6866 19.8921 26.3771 20.0943 24.6527 20.5706C23.6544 20.8447 22.9802 21.1579 22.4875 21.4906C22.1245 21.2622 21.9105 21.197 21.5735 20.9165ZM23.797 22.1822C24.3026 21.9603 24.8537 21.7842 25.3852 21.6472C28.082 20.9621 30.4612 20.8381 33.7414 19.9247C35.3166 19.4941 36.4705 19.0374 37.1901 18.4698C37.2939 18.3719 37.4041 18.2936 37.5143 18.2023C38.4672 19.7224 34.8953 20.8903 32.4513 21.4319C31.1743 21.6929 29.8971 21.9408 28.6201 22.1757C27.0254 22.4432 26.5067 22.5867 25.3982 22.9194C24.8537 22.6846 24.3026 22.4497 23.797 22.1822ZM20.9252 21.7059C21.1715 21.869 21.3531 21.9929 21.6448 22.1496C21.5346 22.2475 21.3984 22.3388 21.2947 22.4497C21.0549 22.3062 20.8085 21.9929 20.9252 21.7059ZM22.2022 23.1608C22.3579 23.0173 22.5523 22.8803 22.7663 22.7367C23.2266 22.9586 23.6998 23.1608 24.147 23.3696C23.8489 23.4806 23.5636 23.6241 23.2913 23.8003C22.9218 23.5849 22.5588 23.3762 22.2022 23.1608ZM21.8003 23.9308C22.0596 24.1069 22.319 24.2504 22.5847 24.3875C22.4745 24.544 22.3968 24.668 22.3579 24.8311C21.9689 24.5049 21.7874 24.2374 21.8003 23.9308Z" fill="white"/>
</svg>
