<svg width="155" height="39" viewBox="0 0 155 39" fill="none" xmlns="http://www.w3.org/2000/svg">
<path d="M13.9492 31.6993H30.8365V35.2249H13.9492V31.6993ZM136.074 20.3815L141.398 14.4691H137.43L133.067 19.3831V14.4691H129.905V26.8945H133.082V21.6607L137.748 26.8945H141.824L136.074 20.3815ZM32.6965 21.2005C32.6112 23.5405 32.3167 23.9851 31.0302 23.9851V26.9023H31.5107C34.7425 26.9023 35.5097 25.2253 35.626 21.4891L35.7655 17.3551H38.7492V26.8945H41.9112V14.4691H32.9135L32.6965 21.2005ZM18.9712 23.3377H25.6362L26.7445 26.8945H30.4412L25.458 11.9497C24.9775 10.5067 24.4195 9.36011 22.513 9.36011C20.6065 9.36011 20.0252 10.5067 19.5137 11.9497L14.2902 26.8945H17.7622L18.9712 23.3377ZM22.3502 13.2601H22.4355L24.6675 20.3425H19.971L22.3502 13.2601ZM96.2155 16.2319H92.6892V12.7219H100.873V9.60191H89.3722V26.8945H96.2155C100.005 26.8945 102.183 24.9913 102.183 21.5125C102.183 18.2131 99.9742 16.2319 96.2155 16.2319ZM96.0527 23.7667H92.6892V19.2739H96.0527C97.8042 19.2739 98.7885 20.0539 98.7885 21.5203C98.7885 22.9867 97.8042 23.7667 96.0527 23.7667ZM64.7815 14.1805V9.57851H61.6272V14.1805C59.971 14.2355 58.4041 14.9498 57.2706 16.1665C56.1373 17.3833 55.53 19.0031 55.5822 20.6701C55.5258 22.3406 56.1309 23.9651 57.2646 25.1865C58.3982 26.408 59.9675 27.1262 61.6272 27.1831V31.8631H64.7892V27.1831C65.6113 27.1559 66.4201 26.9658 67.1691 26.6235C67.9181 26.2813 68.5927 25.7938 69.1543 25.1888C69.7157 24.5838 70.1531 23.8733 70.4414 23.0979C70.7298 22.3225 70.8632 21.4975 70.8342 20.6701C70.8674 19.8422 70.7363 19.016 70.4489 18.2396C70.1614 17.4632 69.7231 16.7522 69.1597 16.1481C68.5963 15.5441 67.9189 15.0589 67.1672 14.7211C66.4155 14.3833 65.6045 14.1995 64.7815 14.1805ZM61.635 24.1801C60.7981 24.0876 60.031 23.6677 59.4989 23.0111C58.9668 22.3545 58.7124 21.5138 58.7907 20.6701C58.7225 19.8286 58.9805 18.9931 59.5108 18.3388C60.0409 17.6845 60.8022 17.2621 61.635 17.1601V24.1801ZM64.797 24.1801V17.1601C65.6297 17.2621 66.391 17.6845 66.9212 18.3388C67.4514 18.9931 67.7094 19.8286 67.6412 20.6701C67.7154 21.5129 67.4596 22.3515 66.9282 23.0072C66.397 23.6629 65.6322 24.0838 64.797 24.1801ZM82.684 23.0803V18.8917C82.684 15.8341 80.7542 13.9231 77.5147 13.9231C74.2752 13.9231 72.3842 15.9511 72.2292 18.0649H75.43C75.5385 17.6125 76.019 16.8091 77.507 16.8091C77.7852 16.7731 78.0673 16.8026 78.3316 16.8954C78.5966 16.9882 78.8361 17.1416 79.0314 17.3437C79.2267 17.5457 79.3732 17.7908 79.4584 18.0594C79.5437 18.3282 79.5654 18.6131 79.522 18.8917H76.422C73.6165 18.8917 71.9502 20.3815 71.9502 22.8463C71.9284 23.4345 72.0294 24.0208 72.2469 24.5671C72.4644 25.1135 72.7935 25.6078 73.2128 26.0181C73.6321 26.4284 74.1324 26.7455 74.6812 26.9489C75.23 27.1522 75.8151 27.2373 76.3987 27.1987C77.0575 27.2336 77.7147 27.1045 78.3122 26.8229C78.9097 26.5412 79.429 26.1158 79.8242 25.5841C80.0815 26.0221 80.4566 26.3776 80.9069 26.6095C81.3564 26.8415 81.8625 26.9403 82.3662 26.8945H83.459V24.0241C82.9242 24.0241 82.684 23.7667 82.684 23.0803ZM79.522 22.3003C79.5351 22.6075 79.4832 22.9141 79.3693 23.1996C79.2561 23.4852 79.0841 23.7434 78.8648 23.9571C78.6447 24.1708 78.3827 24.3352 78.0952 24.4396C77.8077 24.5439 77.5015 24.5857 77.197 24.5623C76.0577 24.5623 75.1587 24.1489 75.1587 22.9087C75.1587 21.6685 76.1585 21.4891 77.0032 21.4891H79.522V22.3003ZM49.7852 18.2443H47.5145V14.4691H44.3525V26.8945H49.8395C53.2727 26.8945 54.4895 24.6481 54.4895 22.5265C54.505 19.7887 52.8 18.2443 49.7852 18.2443ZM49.5527 24.1801H47.5145V21.0601H49.5527C50.6455 21.0601 51.3042 21.5593 51.3042 22.6201C51.3042 23.6809 50.6765 24.1801 49.5527 24.1801ZM114.25 23.0803V18.8917C114.25 15.8341 112.32 13.9231 109.08 13.9231C105.841 13.9231 103.95 15.9511 103.795 18.0649H106.996C107.104 17.6125 107.585 16.8091 109.073 16.8091C109.351 16.7731 109.633 16.8026 109.897 16.8954C110.162 16.9882 110.402 17.1416 110.597 17.3437C110.792 17.5457 110.939 17.7908 111.024 18.0594C111.109 18.3282 111.131 18.6131 111.088 18.8917H107.988C105.182 18.8917 103.516 20.3815 103.516 22.8463C103.494 23.4345 103.595 24.0208 103.813 24.5671C104.03 25.1135 104.359 25.6078 104.778 26.0181C105.198 26.4284 105.698 26.7455 106.247 26.9489C106.796 27.1522 107.381 27.2373 107.964 27.1987C108.629 27.2401 109.294 27.1142 109.9 26.8324C110.504 26.5505 111.03 26.1215 111.429 25.5841C111.682 26.0144 112.05 26.365 112.491 26.5965C112.932 26.8281 113.428 26.9312 113.924 26.8945H115.017V24.0241C114.467 24.0241 114.25 23.7667 114.25 23.0803ZM111.103 22.3003C111.115 22.6072 111.062 22.9132 110.948 23.1982C110.834 23.4832 110.662 23.7408 110.443 23.9543C110.224 24.1677 109.962 24.3322 109.675 24.437C109.388 24.5418 109.083 24.5845 108.778 24.5623C107.639 24.5623 106.74 24.1489 106.74 22.9087C106.74 21.6685 107.74 21.4891 108.584 21.4891H111.103V22.3003ZM124.348 19.0945H119.985V14.4691H116.823V26.9023H119.985V22.0039H124.348V26.8945H127.51V14.4691H124.348V19.0945Z" fill="white"/>
</svg>
