<svg width="155" height="39" viewBox="0 0 155 39" fill="none" xmlns="http://www.w3.org/2000/svg">
<path fill-rule="evenodd" clip-rule="evenodd" d="M56.8395 16.9018C56.6355 14.8434 54.8132 13.3419 52.7692 13.5482H45.6211V25.3167H47.7572V21.3939H52.7692C55.2759 21.3939 56.8537 19.9932 56.8537 17.5641V17.0972L56.8395 16.9018ZM54.7186 17.7503C54.6288 18.698 53.8062 19.4022 52.862 19.3386H47.6634V15.4142H53.0479C54.0715 15.5213 54.8178 16.4396 54.7186 17.4695V17.7503ZM57.8622 19.3417C57.8622 22.9869 60.925 25.5075 64.6372 25.5075C68.3485 25.5075 71.4121 22.9869 71.4121 19.3417C71.4121 15.6966 68.3485 13.1744 64.6372 13.1744C60.9258 13.1744 57.8622 15.6966 57.8622 19.3417ZM60.0897 19.0625C60.2769 16.7188 62.3074 14.9675 64.6372 15.1397C67.4211 15.1412 69.1846 16.9158 69.1846 19.3448C69.1846 21.7724 67.4211 23.5484 64.6372 23.5484C61.8532 23.5484 60.0897 21.7724 60.0897 19.3448V19.0625ZM73.3416 19.3402C73.3416 22.9854 76.2185 25.5075 80.1166 25.5075C82.081 25.5091 83.9961 24.8886 85.5915 23.7361L84.4781 22.0547C83.2498 22.9869 81.7475 23.4786 80.2094 23.4554C77.3326 23.4554 75.5689 21.5878 75.5689 19.2518C75.5689 16.9158 77.3326 15.1412 80.2094 15.1412C81.7267 15.1676 83.1934 15.6919 84.3861 16.6365L85.4994 14.9489C83.9724 13.7297 82.0635 13.1015 80.1166 13.1744C76.3113 13.1744 73.3416 15.695 73.3416 19.3402ZM102.075 25.1306L103.375 22.3292L109.685 22.3323L110.985 25.1337H113.305L107.644 13.4583H105.417L99.7558 25.1306H102.075ZM106.531 15.6966L108.758 20.4601H104.303L106.531 15.6966ZM124.628 20.1809V25.2252H126.761V13.5482H124.628V18.3133H117.018V13.5482H114.883V25.2252H117.018V20.1809H124.628ZM130.011 13.5482V25.2252H132.145V19.5279L137.99 25.2252H140.867L134.651 19.154L140.591 13.5482H137.992L132.145 18.9664V13.5482H130.011ZM89.9469 17.7534H94.959C97.5587 17.7534 99.1365 19.0625 99.1365 21.397C99.1365 23.733 97.3729 25.1337 94.8677 25.1337H87.7195V13.4583H98.2075V15.3258H89.9469V17.7534ZM89.9484 23.1715H95.1455C96.6305 23.2661 97.2799 22.5185 97.2799 21.4916C97.2799 20.4632 96.4453 19.7156 95.1455 19.7156H89.9484V23.1715Z" fill="white"/>
<path d="M15.2266 30.7001V8.30005H37.4447V30.7001H15.2266Z" stroke="white"/>
<path d="M18.7578 18.7656H33.8449V20.2041H18.7578V18.7656Z" fill="white"/>
<path d="M15.2656 19.3262H37.3421V19.6438H15.2656V19.3262Z" fill="white"/>
</svg>
