<svg width="55" height="55" viewBox="0 0 55 55" fill="none" xmlns="http://www.w3.org/2000/svg">
<ellipse cx="27.5143" cy="36.9068" rx="25.5143" ry="11.0932" fill="#8EF6E4"/>
<path d="M27.5149 6C25.8393 5.99866 24.1797 6.32518 22.6314 6.96089C21.083 7.5966 19.6761 8.52902 18.4912 9.70482C17.3063 10.8806 16.3668 12.2767 15.7261 13.8132C15.0855 15.3497 14.7565 16.9965 14.7578 18.6593C14.7578 25.6558 27.5149 39.2795 27.5149 39.2795C27.5149 39.2795 40.2721 25.6558 40.2721 18.6593C40.2735 16.9965 39.9444 15.3497 39.3038 13.8132C38.6632 12.2767 37.7235 10.8806 36.5386 9.70482C35.3538 8.52902 33.9469 7.5966 32.3985 6.96089C30.8501 6.32518 29.1906 5.99866 27.5149 6V6ZM27.5149 23.0706C26.5151 23.0706 25.5377 22.7764 24.7064 22.2252C23.875 21.674 23.2271 20.8905 22.8444 19.9738C22.4618 19.0572 22.3617 18.0485 22.5568 17.0754C22.7518 16.1023 23.2333 15.2084 23.9403 14.5068C24.6473 13.8053 25.5481 13.3275 26.5287 13.1339C27.5093 12.9403 28.5258 13.0397 29.4495 13.4194C30.3733 13.7991 31.1628 14.4421 31.7183 15.267C32.2738 16.092 32.5702 17.0619 32.5702 18.0541C32.5702 18.7129 32.4395 19.3652 32.1855 19.9738C31.9314 20.5825 31.559 21.1355 31.0896 21.6013C30.6202 22.0672 30.0629 22.4366 29.4495 22.6888C28.8362 22.9409 28.1788 23.0706 27.5149 23.0706V23.0706Z" fill="#031C17"/>
</svg>
