<svg width="55" height="55" viewBox="0 0 55 55" fill="none" xmlns="http://www.w3.org/2000/svg">
<path d="M48.0328 22.1941C47.9488 22.8673 47.89 23.5489 47.7867 24.222C47.4105 26.6716 46.3902 28.8366 44.8038 30.7224C42.8034 33.0995 40.269 34.6301 37.2306 35.2663C34.1923 35.9024 31.2345 35.5389 28.4431 34.1311C28.0467 33.9317 27.8376 33.9713 27.5311 34.2809C24.8891 36.9568 22.2357 39.6214 19.5707 42.2748C19.512 42.3346 19.4557 42.3968 19.3725 42.4852C20.1737 43.2868 20.9718 44.0862 21.7668 44.8834C22.0431 45.161 22.3336 45.4269 22.5839 45.7248C23.0475 46.281 23.0374 46.9929 22.531 47.5104C21.378 48.6885 20.2157 49.8615 19.0324 51.0109C18.432 51.5999 17.6963 51.5646 17.1009 50.9739C16.1772 50.0609 15.2626 49.1353 14.3439 48.2156C14.2364 48.1079 14.1247 48.0044 13.9828 47.8689C13.311 48.542 12.6559 49.2043 11.9975 49.864C11.1578 50.7055 10.5027 50.7055 9.67218 49.8732C8.63476 48.8338 7.59902 47.7945 6.56497 46.7556C5.8142 45.9983 5.80916 45.2965 6.56497 44.5392C11.7789 39.3171 16.9954 34.0958 22.2144 28.8753C22.3399 28.7657 22.4729 28.6651 22.6124 28.5741C21.9297 27.2926 21.4519 26.0304 21.1907 24.6941C20.5449 21.3829 21.016 18.2376 22.6771 15.3059C24.4087 12.248 26.9701 10.1603 30.3133 9.07906C31.1531 8.80642 32.0483 8.69199 32.9166 8.50602C33.0661 8.47405 33.2156 8.44796 33.3651 8.42188H35.6283C35.7627 8.45048 35.8962 8.47909 36.0305 8.50602C36.9501 8.71302 37.894 8.84766 38.7859 9.14217C41.6151 10.0754 43.8725 11.8113 45.5781 14.2524C46.7257 15.8742 47.4802 17.7417 47.7817 19.7068C47.8858 20.3925 47.9496 21.0851 48.0336 21.7742L48.0328 22.1941ZM34.4459 15.2773C33.1243 15.2809 31.8334 15.6768 30.7361 16.4148C29.6387 17.1528 28.7842 18.2 28.2802 19.4241C27.7762 20.6483 27.6453 21.9946 27.9042 23.2932C28.163 24.5918 28.8 25.7845 29.7346 26.7208C30.6692 27.657 31.8597 28.2949 33.1558 28.554C34.4518 28.813 35.7954 28.6816 37.017 28.1763C38.2386 27.671 39.2835 26.8144 40.0198 25.7147C40.7561 24.615 41.1508 23.3215 41.1541 21.9972C41.1642 18.2948 38.1535 15.2781 34.4459 15.2773Z" fill="#8EF6E4"/>
<path fill-rule="evenodd" clip-rule="evenodd" d="M27.2634 22.5976C31.1779 22.5976 34.3512 19.4242 34.3512 15.5097C34.3512 11.5953 31.1779 8.42194 27.2634 8.42194C23.3489 8.42194 20.1756 11.5953 20.1756 15.5097C20.1756 19.4242 23.3489 22.5976 27.2634 22.5976ZM27.2634 26.0193C33.0677 26.0193 37.7729 21.314 37.7729 15.5097C37.7729 9.70551 33.0677 5.00024 27.2634 5.00024C21.4592 5.00024 16.7539 9.70551 16.7539 15.5097C16.7539 21.314 21.4592 26.0193 27.2634 26.0193Z" fill="#031C17"/>
<path d="M48.0328 22.1941C47.9488 22.8673 47.89 23.5489 47.7867 24.222C47.4105 26.6716 46.3902 28.8366 44.8038 30.7224C42.8034 33.0995 40.269 34.6301 37.2306 35.2663C34.1923 35.9024 31.2345 35.5389 28.4431 34.1311C28.0467 33.9317 27.8376 33.9713 27.5311 34.2809C24.8891 36.9568 22.2357 39.6214 19.5707 42.2748C19.512 42.3346 19.4557 42.3968 19.3725 42.4852C20.1737 43.2868 20.9718 44.0862 21.7668 44.8834C22.0431 45.161 22.3336 45.4269 22.5839 45.7248C23.0475 46.281 23.0374 46.9929 22.531 47.5104C21.378 48.6885 20.2157 49.8615 19.0324 51.0109C18.432 51.5999 17.6963 51.5646 17.1009 50.9739C16.1772 50.0609 15.2626 49.1353 14.3439 48.2156C14.2364 48.1079 14.1247 48.0044 13.9828 47.8689C13.311 48.542 12.6559 49.2043 11.9975 49.864C11.1578 50.7055 10.5027 50.7055 9.67218 49.8732C8.63476 48.8338 7.59902 47.7945 6.56497 46.7556C5.8142 45.9983 5.80916 45.2965 6.56497 44.5392C11.7789 39.3171 16.9954 34.0958 22.2144 28.8753C22.3399 28.7657 22.4729 28.6651 22.6124 28.5741C21.9297 27.2926 21.4519 26.0304 21.1907 24.6941C20.5449 21.3829 21.016 18.2376 22.6771 15.3059C24.4087 12.248 26.9701 10.1603 30.3133 9.07906C31.1531 8.80642 32.0483 8.69199 32.9166 8.50602C33.0661 8.47405 33.2156 8.44796 33.3651 8.42188H35.6283C35.7627 8.45048 35.8962 8.47909 36.0305 8.50602C36.9501 8.71302 37.894 8.84766 38.7859 9.14217C41.6151 10.0754 43.8725 11.8113 45.5781 14.2524C46.7257 15.8742 47.4802 17.7417 47.7817 19.7068C47.8858 20.3925 47.9496 21.0851 48.0336 21.7742L48.0328 22.1941ZM34.4459 15.2773C33.1243 15.2809 31.8334 15.6768 30.7361 16.4148C29.6387 17.1528 28.7842 18.2 28.2802 19.4241C27.7762 20.6483 27.6453 21.9946 27.9042 23.2932C28.163 24.5918 28.8 25.7845 29.7346 26.7208C30.6692 27.657 31.8597 28.2949 33.1558 28.554C34.4518 28.813 35.7954 28.6816 37.017 28.1763C38.2386 27.671 39.2835 26.8144 40.0198 25.7147C40.7561 24.615 41.1508 23.3215 41.1541 21.9972C41.1642 18.2948 38.1535 15.2781 34.4459 15.2773Z" fill="#8EF6E4"/>
<path fill-rule="evenodd" clip-rule="evenodd" d="M30.71 21.7066C32.8843 20.4962 34.3552 18.1746 34.3552 15.5095C34.3552 11.595 31.1819 8.4217 27.2674 8.4217C23.8663 8.4217 21.0246 10.8173 20.3378 14.0133L16.8225 14.3378C17.4052 9.085 21.8593 5 27.2674 5C33.0717 5 37.7769 9.70527 37.7769 15.5095C37.7769 19.8828 35.1057 23.6321 31.3059 25.2151C31.0937 23.9663 30.8872 22.7507 30.71 21.7066Z" fill="#031C17"/>
</svg>
