<?xml version="1.0" encoding="UTF-8"?>
<svg id="Layer_1" data-name="Layer 1" xmlns="http://www.w3.org/2000/svg" viewBox="0 0 18 18">
  <path d="M8.5,.47c-.39,0-.74,.13-1.04,.4l-.87,.82c-.29,.28-.44,.61-.44,1s.15,.72,.44,.99l3.39,3.22H1.83c-.4,0-.73,.14-.98,.41-.25,.27-.38,.6-.38,.99v1.4c0,.39,.13,.72,.38,.99,.25,.27,.58,.41,.98,.41H9.99l-3.39,3.22c-.29,.26-.44,.59-.44,.99s.15,.72,.44,.98l.87,.82c.29,.28,.64,.42,1.04,.42s.76-.14,1.05-.42l7.54-7.13c.29-.26,.43-.58,.43-.99s-.14-.73-.43-1L9.56,.88c-.3-.27-.65-.4-1.05-.4Z"/>
</svg>