<svg width="272" height="36" viewBox="0 0 272 36" fill="none" xmlns="http://www.w3.org/2000/svg">
<rect width="192.226" height="36" rx="18" fill="#8EF6E4"/>
<rect x="125.664" width="145.358" height="36" rx="18" fill="black"/>
<path d="M16.4365 23.9349C14.8226 22.4206 14.0156 20.5079 14.0156 18.1966C14.0156 15.8854 14.8226 13.9826 16.4365 12.4883C18.0503 10.974 20.0229 10.2169 22.354 10.2169C24.7051 10.2169 26.6876 10.974 28.3015 12.4883C29.9353 13.9826 30.7522 15.8854 30.7522 18.1966C30.7522 20.5079 29.9453 22.4206 28.3314 23.9349C26.7175 25.4292 24.735 26.1764 22.3839 26.1764C20.0328 26.1764 18.0503 25.4292 16.4365 23.9349ZM17.871 18.1966C17.871 19.5913 18.2994 20.737 19.1561 21.6336C20.0328 22.5103 21.1088 22.9486 22.3839 22.9486C23.6591 22.9486 24.735 22.5103 25.6117 21.6336C26.4884 20.737 26.9267 19.5913 26.9267 18.1966C26.9267 16.8218 26.4784 15.6861 25.5818 14.7895C24.7051 13.8929 23.6392 13.4446 22.3839 13.4446C21.1287 13.4446 20.0627 13.8929 19.186 14.7895C18.3094 15.6861 17.871 16.8218 17.871 18.1966Z" fill="black"/>
<path d="M33.884 25.8178V10.5755H37.6796V16.4632H44.195V10.5755H47.9906V25.8178H44.195V19.6611H37.6796V25.8178H33.884Z" fill="black"/>
<path d="M50.6325 25.9672V22.6199C51.6686 22.4804 52.4556 21.8727 52.9936 20.7968C53.5515 19.7009 53.8304 17.8878 53.8304 15.3574V10.5755H64.9483V25.8178H61.1527V13.6538H57.4467V15.3574C57.4467 18.8242 56.9187 21.4443 55.8627 23.2176C54.8067 24.971 53.0633 25.8875 50.6325 25.9672Z" fill="black"/>
<path d="M67.8587 21.6037C67.8587 20.5278 68.1476 19.6113 68.7255 18.8541C69.3232 18.097 70.1002 17.5491 71.0566 17.2104C72.0329 16.8517 72.9694 16.6027 73.866 16.4632C74.7825 16.3237 75.7389 16.254 76.7351 16.254H77.3926V16.0448C77.3926 14.2516 76.4362 13.355 74.5235 13.355C73.1288 13.355 71.7141 13.8431 70.2796 14.8194L68.8749 12.0997C69.5324 11.5817 70.419 11.1433 71.5348 10.7847C72.6506 10.4061 73.7564 10.2169 74.8522 10.2169C76.8447 10.2169 78.3988 10.7548 79.5146 11.8307C80.6303 12.8867 81.1882 14.3711 81.1882 16.2839V25.8178H77.6616V24.5326L77.7513 23.4268H77.6915C77.2133 24.2437 76.5458 24.9112 75.6891 25.4292C74.8323 25.9273 73.8959 26.1764 72.8797 26.1764C71.4651 26.1764 70.2696 25.758 69.2933 24.9211C68.3369 24.0644 67.8587 22.9586 67.8587 21.6037ZM71.6245 21.275C71.6245 21.8129 71.8237 22.2811 72.2222 22.6796C72.6406 23.0781 73.2085 23.2774 73.9258 23.2774C74.9419 23.2774 75.7787 22.859 76.4362 22.0221C77.0937 21.1853 77.4225 20.2688 77.4225 19.2725V18.8541H76.765C73.338 18.8541 71.6245 19.6611 71.6245 21.275Z" fill="black"/>
<path d="M95.5378 8.00524C94.5815 8.74244 93.4259 9.11105 92.071 9.11105C90.7161 9.11105 89.5605 8.74244 88.6041 8.00524C87.6477 7.24811 87.1696 6.24192 87.1696 4.98667V4.59814H90.0686V4.98667C90.0686 5.58441 90.2678 6.05263 90.6663 6.39135C91.0648 6.71014 91.533 6.86954 92.071 6.86954C92.6089 6.86954 93.0772 6.71014 93.4757 6.39135C93.8941 6.05263 94.1033 5.57445 94.1033 4.95679V4.59814H96.9724V4.98667C96.9724 6.24192 96.4942 7.24811 95.5378 8.00524ZM85.0476 25.8178V10.5755H88.6639V18.7346C88.6639 19.4718 88.634 20.0795 88.5742 20.5577H88.634C88.7137 20.3784 89.0923 19.7707 89.7697 18.7346L95.4183 10.5755H99.0944V25.8178H95.4781V17.6885C95.4781 17.2502 95.508 16.6425 95.5677 15.8655H95.508C95.4482 16.0049 95.0696 16.6126 94.3723 17.6885L88.7237 25.8178H85.0476Z" fill="black"/>
<path d="M103.172 25.8178V10.5755H106.968V16.4632H113.483V10.5755H117.279V25.8178H113.483V19.6611H106.968V25.8178H103.172Z" fill="black"/>
<path d="M140.594 25.8084V10.5662H144.21V18.7252C144.21 19.4625 144.18 20.0701 144.12 20.5483H144.18C144.26 20.369 144.638 19.7613 145.316 18.7252L150.964 10.5662H154.641V25.8084H151.024V17.6792C151.024 17.2409 151.054 16.6332 151.114 15.8561H151.054C150.994 15.9956 150.616 16.6033 149.918 17.6792L144.27 25.8084H140.594Z" fill="white"/>
<path d="M158.718 25.8084V10.5662H172.616V25.8084H168.82V13.7939H162.514V25.8084H158.718Z" fill="white"/>
<path d="M178.162 23.9255C176.548 22.4113 175.742 20.4985 175.742 18.1873C175.742 15.876 176.548 13.9732 178.162 12.4789C179.776 10.9647 181.749 10.2075 184.08 10.2075C186.431 10.2075 188.413 10.9647 190.027 12.4789C191.661 13.9732 192.478 15.876 192.478 18.1873C192.478 20.4985 191.671 22.4113 190.057 23.9255C188.443 25.4199 186.461 26.167 184.11 26.167C181.759 26.167 179.776 25.4199 178.162 23.9255ZM179.597 18.1873C179.597 19.582 180.025 20.7277 180.882 21.6243C181.759 22.5009 182.835 22.9393 184.11 22.9393C185.385 22.9393 186.461 22.5009 187.338 21.6243C188.214 20.7277 188.653 19.582 188.653 18.1873C188.653 16.8125 188.204 15.6768 187.308 14.7802C186.431 13.8836 185.365 13.4353 184.11 13.4353C182.855 13.4353 181.789 13.8836 180.912 14.7802C180.035 15.6768 179.597 16.8125 179.597 18.1873Z" fill="white"/>
<path d="M198.787 25.8084V13.7939H193.766V10.5662H207.604V13.7939H202.553V25.8084H198.787Z" fill="white"/>
<path d="M208.868 18.1873C208.868 15.8362 209.585 13.9234 211.02 12.449C212.474 10.9547 214.347 10.2075 216.638 10.2075C218.75 10.2075 220.404 10.8949 221.6 12.2697C222.795 13.6246 223.393 15.348 223.393 17.4401C223.393 17.7788 223.353 18.267 223.273 18.9046H212.783C212.903 20.1797 213.391 21.176 214.248 21.8932C215.104 22.5906 216.14 22.9393 217.356 22.9393C218.87 22.9393 220.325 22.3814 221.719 21.2656L223.214 23.9853C222.456 24.6627 221.52 25.2007 220.404 25.5992C219.308 25.9778 218.203 26.167 217.087 26.167C214.636 26.167 212.654 25.4 211.139 23.8658C209.625 22.3117 208.868 20.4188 208.868 18.1873ZM212.873 16.3044H219.597C219.577 15.3082 219.278 14.5212 218.701 13.9434C218.143 13.3656 217.426 13.0766 216.549 13.0766C215.592 13.0766 214.786 13.3755 214.128 13.9732C213.47 14.5511 213.052 15.3281 212.873 16.3044Z" fill="white"/>
<path d="M226.547 25.8084V10.5662H230.343V16.3941H232.196L235.902 10.5662H240.116L235.274 17.8286V17.8884L240.714 25.8084H236.32L232.315 19.6218H230.343V25.8084H226.547Z" fill="white"/>
<path d="M241.639 21.5944C241.639 20.5184 241.927 19.6019 242.505 18.8448C243.103 18.0877 243.88 17.5397 244.836 17.201C245.813 16.8424 246.749 16.5933 247.646 16.4538C248.562 16.3144 249.519 16.2446 250.515 16.2446H251.172V16.0354C251.172 14.2422 250.216 13.3456 248.303 13.3456C246.909 13.3456 245.494 13.8338 244.059 14.8101L242.655 12.0904C243.312 11.5723 244.199 11.134 245.315 10.7754C246.43 10.3968 247.536 10.2075 248.632 10.2075C250.624 10.2075 252.179 10.7455 253.294 11.8214C254.41 12.8774 254.968 14.3618 254.968 16.2745V25.8084H251.441V24.5233L251.531 23.4175H251.471C250.993 24.2344 250.326 24.9018 249.469 25.4199C248.612 25.918 247.676 26.167 246.659 26.167C245.245 26.167 244.049 25.7486 243.073 24.9118C242.117 24.055 241.639 22.9492 241.639 21.5944ZM245.404 21.2656C245.404 21.8036 245.604 22.2718 246.002 22.6703C246.42 23.0688 246.988 23.268 247.706 23.268C248.722 23.268 249.559 22.8496 250.216 22.0128C250.874 21.176 251.202 20.2594 251.202 19.2632V18.8448H250.545C247.118 18.8448 245.404 19.6517 245.404 21.2656Z" fill="white"/>
</svg>
