<svg width="184" height="26" viewBox="0 0 184 26" fill="none" xmlns="http://www.w3.org/2000/svg">
<rect width="137.488" height="25.7486" rx="12.8743" fill="#D7FF64"/>
<rect x="89.8672" width="93.2609" height="26" rx="13" fill="black"/>
<path d="M11.7549 17.1146C10.6006 16.0315 10.0234 14.6635 10.0234 13.0104C10.0234 11.3573 10.6006 9.99631 11.7549 8.9275C12.9092 7.84444 14.3201 7.30291 15.9874 7.30291C17.669 7.30291 19.087 7.84444 20.2413 8.9275C21.4098 9.99631 21.9941 11.3573 21.9941 13.0104C21.9941 14.6635 21.417 16.0315 20.2627 17.1146C19.1083 18.1834 17.6904 18.7178 16.0088 18.7178C14.3272 18.7178 12.9092 18.1834 11.7549 17.1146ZM12.781 13.0104C12.781 14.0079 13.0874 14.8273 13.7001 15.4686C14.3272 16.0957 15.0967 16.4092 16.0088 16.4092C16.9208 16.4092 17.6904 16.0957 18.3174 15.4686C18.9444 14.8273 19.258 14.0079 19.258 13.0104C19.258 12.0271 18.9373 11.2148 18.296 10.5735C17.669 9.93219 16.9066 9.61154 16.0088 9.61154C15.111 9.61154 14.3486 9.93219 13.7215 10.5735C13.0945 11.2148 12.781 12.0271 12.781 13.0104Z" fill="black"/>
<path d="M24.2341 18.4613V7.55942H26.9489V11.7705H31.6089V7.55942H34.3237V18.4613H31.6089V14.0578H26.9489V18.4613H24.2341Z" fill="black"/>
<path d="M36.2133 18.5682V16.174C36.9544 16.0743 37.5173 15.6396 37.902 14.8701C38.3011 14.0863 38.5006 12.7895 38.5006 10.9796V7.55942H46.4525V18.4613H43.7378V9.76118H41.0871V10.9796C41.0871 13.4593 40.7095 15.3332 39.9542 16.6016C39.1989 17.8556 37.9519 18.5112 36.2133 18.5682Z" fill="black"/>
<path d="M48.5342 15.4473C48.5342 14.6777 48.7409 14.0222 49.1541 13.4806C49.5816 12.9391 50.1374 12.5472 50.8215 12.3049C51.5198 12.0484 52.1895 11.8703 52.8308 11.7705C53.4864 11.6708 54.1704 11.6209 54.883 11.6209H55.3532V11.4713C55.3532 10.1887 54.6692 9.54741 53.3011 9.54741C52.3036 9.54741 51.2917 9.89656 50.2657 10.5948L49.261 8.64961C49.7313 8.27909 50.3654 7.96557 51.1635 7.70906C51.9615 7.43829 52.7525 7.30291 53.5363 7.30291C54.9613 7.30291 56.0729 7.68768 56.8709 8.45723C57.669 9.21252 58.068 10.2742 58.068 11.6423V18.4613H55.5456V17.5421L55.6097 16.7512H55.567C55.225 17.3355 54.7476 17.8129 54.1348 18.1834C53.522 18.5397 52.8522 18.7178 52.1254 18.7178C51.1136 18.7178 50.2586 18.4185 49.5603 17.82C48.8762 17.2072 48.5342 16.4163 48.5342 15.4473ZM51.2276 15.2121C51.2276 15.5969 51.3701 15.9318 51.6551 16.2168C51.9544 16.5018 52.3606 16.6443 52.8736 16.6443C53.6004 16.6443 54.1989 16.3451 54.6692 15.7465C55.1395 15.148 55.3746 14.4924 55.3746 13.7799V13.4806H54.9043C52.4532 13.4806 51.2276 14.0578 51.2276 15.2121Z" fill="black"/>
<path d="M68.3314 5.72107C67.6474 6.24835 66.8209 6.51199 65.8518 6.51199C64.8827 6.51199 64.0562 6.24835 63.3722 5.72107C62.6881 5.17954 62.3461 4.45987 62.3461 3.56207V3.28418H64.4196V3.56207C64.4196 3.98959 64.5621 4.32449 64.8471 4.56675C65.1321 4.79477 65.467 4.90877 65.8518 4.90877C66.2366 4.90877 66.5715 4.79477 66.8565 4.56675C67.1557 4.32449 67.3054 3.98247 67.3054 3.54069V3.28418H69.3575V3.56207C69.3575 4.45987 69.0155 5.17954 68.3314 5.72107ZM60.8284 18.4613V7.55942H63.4149V13.3951C63.4149 13.9224 63.3935 14.3571 63.3508 14.6991H63.3935C63.4505 14.5708 63.7213 14.1362 64.2058 13.3951L68.2459 7.55942H70.8752V18.4613H68.2887V12.647C68.2887 12.3334 68.3101 11.8988 68.3528 11.343H68.3101C68.2673 11.4428 67.9965 11.8774 67.4978 12.647L63.4577 18.4613H60.8284Z" fill="black"/>
<path d="M73.7919 18.4613V7.55942H76.5067V11.7705H81.1667V7.55942H83.8815V18.4613H81.1667V14.0578H76.5067V18.4613H73.7919Z" fill="black"/>
<path d="M100.61 12.994C100.61 11.415 101.15 10.0827 102.232 8.99715C103.327 7.89749 104.757 7.34766 106.522 7.34766C107.304 7.34766 108.073 7.48159 108.827 7.74946C109.581 8.01733 110.207 8.41913 110.705 8.95486L109.488 10.7947C108.706 10.0193 107.767 9.63158 106.671 9.63158C105.689 9.63158 104.893 9.95584 104.281 10.6044C103.669 11.2388 103.363 12.0283 103.363 12.9729C103.363 13.9174 103.676 14.7211 104.302 15.3837C104.928 16.0322 105.746 16.3565 106.756 16.3565C107.937 16.3565 109.005 15.8983 109.958 14.9819L111.004 16.8851C110.492 17.4209 109.83 17.8509 109.019 18.1751C108.222 18.4853 107.39 18.6404 106.522 18.6404C104.757 18.6404 103.327 18.1046 102.232 17.0332C101.15 15.9476 100.61 14.6012 100.61 12.994Z" fill="white"/>
<path d="M115.846 16.2296H119.879V9.75846H117.169V10.266C117.169 12.7896 116.728 14.7774 115.846 16.2296ZM111.79 16.2296H113.135C114.103 14.8197 114.586 12.6909 114.586 9.84305V7.60142H122.59V16.2296H124.148V20.9243H121.694V18.3866H114.309V20.9243H111.79V16.2296Z" fill="white"/>
<path d="M125.329 12.994C125.329 11.3304 125.842 9.97698 126.866 8.93371C127.905 7.87634 129.242 7.34766 130.879 7.34766C132.387 7.34766 133.568 7.83405 134.422 8.80683C135.275 9.76551 135.702 10.985 135.702 12.4653C135.702 12.705 135.674 13.0504 135.617 13.5016H128.125C128.211 14.4038 128.559 15.1088 129.171 15.6163C129.783 16.1097 130.523 16.3565 131.391 16.3565C132.472 16.3565 133.511 15.9617 134.507 15.1722L135.574 17.0966C135.034 17.576 134.365 17.9566 133.568 18.2386C132.785 18.5064 131.996 18.6404 131.199 18.6404C129.449 18.6404 128.033 18.0976 126.952 17.012C125.87 15.9124 125.329 14.573 125.329 12.994ZM128.189 11.6617H132.992C132.977 10.9568 132.764 10.3999 132.351 9.99108C131.953 9.58223 131.441 9.37781 130.815 9.37781C130.132 9.37781 129.555 9.58928 129.086 10.0122C128.616 10.4211 128.318 10.9709 128.189 11.6617Z" fill="white"/>
<path d="M136.931 18.4923V16.1238C137.67 16.0251 138.232 15.5951 138.617 14.8338C139.015 14.0584 139.214 12.7755 139.214 10.985V7.60142H147.154V18.3866H144.443V9.77961H141.797V10.985C141.797 13.4381 141.42 15.292 140.666 16.5468C139.911 17.7874 138.666 18.436 136.931 18.4923Z" fill="white"/>
<path d="M150.065 18.3866V7.60142H152.775V11.7252H154.099L156.745 7.60142H159.755L156.297 12.7402V12.7825L160.181 18.3866H157.044L154.184 14.0091H152.775V18.3866H150.065Z" fill="white"/>
<path d="M160.842 15.4048C160.842 14.6435 161.048 13.995 161.461 13.4593C161.888 12.9235 162.443 12.5358 163.126 12.2962C163.823 12.0424 164.492 11.8662 165.132 11.7675C165.786 11.6688 166.469 11.6194 167.181 11.6194H167.65V11.4714C167.65 10.2026 166.967 9.56814 165.601 9.56814C164.605 9.56814 163.595 9.91354 162.571 10.6044L161.568 8.67994C162.037 8.31339 162.67 8.00323 163.467 7.74946C164.264 7.48159 165.054 7.34766 165.836 7.34766C167.259 7.34766 168.369 7.72831 169.166 8.48962C169.963 9.23682 170.361 10.2871 170.361 11.6406V18.3866H167.843V17.4773L167.907 16.6948H167.864C167.522 17.2728 167.046 17.7451 166.434 18.1117C165.822 18.4641 165.153 18.6404 164.428 18.6404C163.417 18.6404 162.564 18.3443 161.866 17.7522C161.183 17.146 160.842 16.3635 160.842 15.4048ZM163.531 15.1722C163.531 15.5529 163.673 15.8842 163.958 16.1661C164.257 16.4481 164.662 16.5891 165.175 16.5891C165.9 16.5891 166.498 16.293 166.967 15.7009C167.437 15.1088 167.672 14.4602 167.672 13.7553V13.4593H167.202C164.755 13.4593 163.531 14.0302 163.531 15.1722Z" fill="white"/>
</svg>
