<svg width="192" height="26" viewBox="0 0 192 26" fill="none" xmlns="http://www.w3.org/2000/svg">
<rect width="136.179" height="25.5035" rx="12.7517" fill="#8EF6E4"/>
<rect x="89.0234" width="102.976" height="25.5035" rx="12.7517" fill="black"/>
<path d="M11.6447 16.9561C10.5014 15.8833 9.92969 14.5283 9.92969 12.8909C9.92969 11.2535 10.5014 9.90555 11.6447 8.84692C12.788 7.77417 14.1854 7.23779 15.8369 7.23779C17.5025 7.23779 18.9069 7.77417 20.0502 8.84692C21.2077 9.90555 21.7864 11.2535 21.7864 12.8909C21.7864 14.5283 21.2147 15.8833 20.0714 16.9561C18.9281 18.0147 17.5236 18.544 15.858 18.544C14.1925 18.544 12.788 18.0147 11.6447 16.9561ZM12.661 12.8909C12.661 13.879 12.9644 14.6906 13.5714 15.3258C14.1925 15.9468 14.9547 16.2574 15.858 16.2574C16.7614 16.2574 17.5236 15.9468 18.1447 15.3258C18.7658 14.6906 19.0763 13.879 19.0763 12.8909C19.0763 11.917 18.7587 11.1124 18.1235 10.4772C17.5025 9.84203 16.7473 9.52444 15.858 9.52444C14.9688 9.52444 14.2136 9.84203 13.5926 10.4772C12.9715 11.1124 12.661 11.917 12.661 12.8909Z" fill="black"/>
<path d="M24.0051 18.2899V7.49186H26.694V11.6629H31.3096V7.49186H33.9986V18.2899H31.3096V13.9284H26.694V18.2899H24.0051Z" fill="black"/>
<path d="M35.8702 18.3958V16.0245C36.6042 15.9257 37.1617 15.4951 37.5429 14.7329C37.9381 13.9566 38.1357 12.6721 38.1357 10.8795V7.49186H46.0119V18.2899H43.323V9.67265H40.6976V10.8795C40.6976 13.3355 40.3235 15.1917 39.5754 16.4479C38.8273 17.69 37.5923 18.3393 35.8702 18.3958Z" fill="black"/>
<path d="M48.0738 15.3046C48.0738 14.5424 48.2785 13.8931 48.6878 13.3567C49.1113 12.8203 49.6617 12.4322 50.3393 12.1922C51.0309 11.9381 51.6943 11.7617 52.3295 11.6629C52.9788 11.5641 53.6563 11.5147 54.3621 11.5147H54.8279V11.3665C54.8279 10.0961 54.1504 9.46092 52.7953 9.46092C51.8072 9.46092 50.8051 9.80675 49.7888 10.4984L48.7937 8.57167C49.2595 8.20468 49.8876 7.89415 50.678 7.64007C51.4685 7.37189 52.2519 7.23779 53.0282 7.23779C54.4397 7.23779 55.5407 7.6189 56.3311 8.38112C57.1216 9.12922 57.5168 10.1808 57.5168 11.5358V18.2899H55.0184V17.3795L55.0819 16.5961H55.0396C54.7008 17.1748 54.228 17.6477 53.621 18.0147C53.0141 18.3676 52.3507 18.544 51.6308 18.544C50.6286 18.544 49.7817 18.2476 49.0901 17.6548C48.4126 17.0478 48.0738 16.2644 48.0738 15.3046ZM50.7415 15.0717C50.7415 15.4528 50.8827 15.7845 51.165 16.0668C51.4614 16.3491 51.8637 16.4903 52.3718 16.4903C53.0917 16.4903 53.6846 16.1938 54.1504 15.601C54.6161 15.0082 54.849 14.3589 54.849 13.6531V13.3567H54.3833C51.9554 13.3567 50.7415 13.9284 50.7415 15.0717Z" fill="black"/>
<path d="M67.6825 5.67101C67.005 6.19327 66.1863 6.4544 65.2265 6.4544C64.2667 6.4544 63.448 6.19327 62.7705 5.67101C62.0929 5.13464 61.7542 4.42182 61.7542 3.53257V3.25732H63.8079V3.53257C63.8079 3.95602 63.9491 4.28773 64.2314 4.52769C64.5137 4.75353 64.8454 4.86645 65.2265 4.86645C65.6076 4.86645 65.9393 4.75353 66.2216 4.52769C66.518 4.28773 66.6662 3.94897 66.6662 3.5114V3.25732H68.6988V3.53257C68.6988 4.42182 68.36 5.13464 67.6825 5.67101ZM60.2509 18.2899V7.49186H62.8128V13.272C62.8128 13.7943 62.7916 14.2248 62.7493 14.5635H62.7916C62.8481 14.4365 63.1163 14.006 63.5962 13.272L67.5978 7.49186H70.2021V18.2899H67.6402V12.531C67.6402 12.2204 67.6613 11.7899 67.7037 11.2394H67.6613C67.619 11.3382 67.3508 11.7687 66.8568 12.531L62.8551 18.2899H60.2509Z" fill="black"/>
<path d="M73.091 18.2899V7.49186H75.7799V11.6629H80.3956V7.49186H83.0845V18.2899H80.3956V13.9284H75.7799V18.2899H73.091Z" fill="black"/>
<path d="M99.6016 18.2836V7.48552H102.163V13.2657C102.163 13.7879 102.142 14.2184 102.1 14.5572H102.142C102.199 14.4302 102.467 13.9996 102.947 13.2657L106.948 7.48552H109.553V18.2836H106.991V12.5246C106.991 12.2141 107.012 11.7836 107.054 11.2331H107.012C106.97 11.3319 106.701 11.7624 106.207 12.5246L102.206 18.2836H99.6016Z" fill="white"/>
<path d="M112.442 18.2836V7.48552H122.287V18.2836H119.598V9.77217H115.131V18.2836H112.442Z" fill="white"/>
<path d="M126.216 16.9497C125.073 15.877 124.501 14.5219 124.501 12.8846C124.501 11.2472 125.073 9.8992 126.216 8.84057C127.36 7.76782 128.757 7.23145 130.408 7.23145C132.074 7.23145 133.479 7.76782 134.622 8.84057C135.779 9.8992 136.358 11.2472 136.358 12.8846C136.358 14.5219 135.786 15.877 134.643 16.9497C133.5 18.0083 132.095 18.5377 130.43 18.5377C128.764 18.5377 127.36 18.0083 126.216 16.9497ZM127.233 12.8846C127.233 13.8726 127.536 14.6842 128.143 15.3194C128.764 15.9405 129.526 16.251 130.43 16.251C131.333 16.251 132.095 15.9405 132.716 15.3194C133.337 14.6842 133.648 13.8726 133.648 12.8846C133.648 11.9106 133.33 11.106 132.695 10.4709C132.074 9.83569 131.319 9.51809 130.43 9.51809C129.54 9.51809 128.785 9.83569 128.164 10.4709C127.543 11.106 127.233 11.9106 127.233 12.8846Z" fill="white"/>
<path d="M140.827 18.2836V9.77217H137.27V7.48552H147.073V9.77217H143.495V18.2836H140.827Z" fill="white"/>
<path d="M147.969 12.8846C147.969 11.219 148.477 9.86392 149.494 8.8194C150.524 7.76076 151.851 7.23145 153.474 7.23145C154.97 7.23145 156.142 7.71842 156.989 8.69236C157.836 9.65219 158.259 10.8731 158.259 12.3552C158.259 12.5952 158.231 12.941 158.174 13.3927H150.743C150.827 14.2961 151.173 15.0018 151.78 15.51C152.387 16.004 153.121 16.251 153.982 16.251C155.055 16.251 156.085 15.8558 157.073 15.0653L158.132 16.9921C157.596 17.472 156.932 17.8531 156.142 18.1354C155.365 18.4036 154.582 18.5377 153.792 18.5377C152.055 18.5377 150.651 17.9942 149.578 16.9074C148.505 15.8064 147.969 14.4654 147.969 12.8846ZM150.806 11.5507H155.57C155.556 10.8449 155.344 10.2874 154.935 9.87803C154.54 9.46869 154.032 9.26402 153.41 9.26402C152.733 9.26402 152.161 9.47575 151.695 9.8992C151.23 10.3085 150.933 10.859 150.806 11.5507Z" fill="white"/>
<path d="M160.494 18.2836V7.48552H163.183V11.6142H164.495L167.121 7.48552H170.106L166.676 12.6305V12.6728L170.53 18.2836H167.417L164.58 13.9008H163.183V18.2836H160.494Z" fill="white"/>
<path d="M171.185 15.2982C171.185 14.536 171.389 13.8867 171.799 13.3504C172.222 12.814 172.773 12.4258 173.45 12.1859C174.142 11.9318 174.805 11.7553 175.44 11.6565C176.09 11.5577 176.767 11.5083 177.473 11.5083H177.939V11.3601C177.939 10.0898 177.261 9.45458 175.906 9.45458C174.918 9.45458 173.916 9.8004 172.9 10.492L171.905 8.56532C172.37 8.19833 172.999 7.8878 173.789 7.63373C174.579 7.36554 175.363 7.23145 176.139 7.23145C177.551 7.23145 178.652 7.61255 179.442 8.37477C180.233 9.12287 180.628 10.1744 180.628 11.5295V18.2836H178.129V17.3732L178.193 16.5898H178.151C177.812 17.1685 177.339 17.6413 176.732 18.0083C176.125 18.3612 175.462 18.5377 174.742 18.5377C173.74 18.5377 172.893 18.2412 172.201 17.6484C171.524 17.0415 171.185 16.2581 171.185 15.2982ZM173.853 15.0653C173.853 15.4464 173.994 15.7782 174.276 16.0605C174.572 16.3428 174.975 16.4839 175.483 16.4839C176.203 16.4839 176.796 16.1875 177.261 15.5947C177.727 15.0018 177.96 14.3525 177.96 13.6468V13.3504H177.494C175.066 13.3504 173.853 13.922 173.853 15.0653Z" fill="white"/>
</svg>
