<svg width="33" height="33" viewBox="0 0 33 33" fill="none" xmlns="http://www.w3.org/2000/svg">
<g clip-path="url(#clip0_161_608)">
<path d="M16.5 0C12.1249 0 7.92516 1.73946 4.83398 4.8327C1.73962 7.92716 0.000857149 12.1238 0 16.5C0 20.8743 1.74023 25.0741 4.83398 28.1673C7.92516 31.2605 12.1249 33 16.5 33C20.8751 33 25.0748 31.2605 28.166 28.1673C31.2598 25.0741 33 20.8743 33 16.5C33 12.1257 31.2598 7.92593 28.166 4.8327C25.0748 1.73946 20.8751 0 16.5 0Z" fill="url(#paint0_linear_161_608)"/>
<path d="M7.46598 16.3256C12.2768 14.2301 15.4839 12.8484 17.0875 12.181C21.6714 10.275 22.6228 9.94393 23.2441 9.93271C23.3807 9.93052 23.685 9.9643 23.8835 10.1248C24.0485 10.2601 24.0949 10.4432 24.1181 10.5717C24.1387 10.7001 24.1671 10.9927 24.1439 11.2211C23.8964 13.8302 22.8213 20.1616 22.2747 23.0839C22.0453 24.3203 21.5889 24.7349 21.1481 24.7754C20.189 24.8635 19.462 24.1422 18.5339 23.534C17.0824 22.5819 16.2625 21.9894 14.8523 21.0605C13.2229 19.987 14.28 19.3969 15.2081 18.4327C15.4504 18.1803 19.6734 14.3401 19.7533 13.9918C19.7636 13.9483 19.7739 13.7859 19.676 13.7003C19.5806 13.6144 19.4388 13.6438 19.3357 13.667C19.1887 13.7 16.871 15.2335 12.3747 18.2671C11.7173 18.7194 11.1218 18.9398 10.5855 18.9282C9.9977 18.9155 8.86332 18.5951 8.02027 18.3213C6.98902 17.9854 6.1666 17.8077 6.23879 17.2372C6.27488 16.9402 6.68481 16.6362 7.46598 16.3256Z" fill="white"/>
</g>
<defs>
<linearGradient id="paint0_linear_161_608" x1="16.5" y1="0" x2="16.5" y2="33" gradientUnits="userSpaceOnUse">
<stop stop-color="#2AABEE"/>
<stop offset="1" stop-color="#229ED9"/>
</linearGradient>
<clipPath id="clip0_161_608">
<rect width="33" height="33" fill="white"/>
</clipPath>
</defs>
</svg>
