<svg width="312" height="48" viewBox="0 0 312 48" fill="none" xmlns="http://www.w3.org/2000/svg">
<path d="M0 46.3231V1.92586H10.5471V25.6914C10.5471 27.8387 10.4599 29.6088 10.2856 31.0017H10.4599C10.6924 30.4794 11.7964 28.7093 13.7722 25.6914L30.2465 1.92586H40.9679V46.3231H30.4209V22.6446C30.4209 21.3678 30.508 19.5977 30.6824 17.3343H30.508C30.3337 17.7406 29.2296 19.5106 27.1957 22.6446L10.7214 46.3231H0Z" fill="black"/>
<path d="M50.4965 46.3231V1.92586H91.0287V46.3231H79.9586V11.3276H61.5666V46.3231H50.4965Z" fill="black"/>
<path d="M193.37 46.3231V11.3276H178.726V1.92586H219.084V11.3276H204.353V46.3231H193.37Z" fill="black"/>
<path d="M222.771 24.1245C222.771 17.2763 224.863 11.7049 229.047 7.41023C233.289 3.05756 238.752 0.881226 245.435 0.881226C251.594 0.881226 256.417 2.88345 259.904 6.88791C263.391 10.8343 265.134 15.8544 265.134 21.9481C265.134 22.9347 265.018 24.3566 264.785 26.2138H234.19C234.539 29.928 235.963 32.8298 238.461 34.9191C240.96 36.9503 243.982 37.966 247.527 37.966C251.943 37.966 256.185 36.341 260.253 33.091L264.611 41.0128C262.403 42.986 259.672 44.553 256.417 45.7137C253.221 46.8164 249.996 47.3677 246.742 47.3677C239.594 47.3677 233.812 45.1333 229.396 40.6646C224.98 36.1378 222.771 30.6245 222.771 24.1245ZM234.452 18.6401H254.064C254.006 15.7383 253.134 13.4459 251.449 11.7629C249.822 10.0799 247.73 9.23835 245.173 9.23835C242.384 9.23835 240.03 10.1089 238.113 11.8499C236.195 13.533 234.975 15.7964 234.452 18.6401Z" fill="black"/>
<path d="M269.289 46.3231L283.933 23.8633L269.637 1.92586H282.189L289.075 14.0263L290.47 16.812H290.644C291.225 15.7093 291.719 14.7807 292.126 14.0263L299.012 1.92586H311.564L297.269 23.8633L312 46.3231H299.622L291.952 33.4392L290.644 31.0887H290.47C290.063 32.0173 289.656 32.8008 289.25 33.4392L281.579 46.3231H269.289Z" fill="black"/>
<path fill-rule="evenodd" clip-rule="evenodd" d="M150.825 0.880371H123.61V0.900965C116.671 1.13319 110.777 3.33168 105.929 7.49645C100.732 11.8491 98.1328 17.3915 98.1328 24.1236C98.1328 30.8558 100.7 36.4272 105.834 40.8379C110.704 44.9666 116.63 47.1372 123.61 47.3496V47.3814H150.825V47.3655C158.162 47.3028 164.359 45.1269 169.419 40.8379C174.553 36.4272 177.12 30.8558 177.12 24.1236C177.12 17.3915 174.521 11.8491 169.324 7.49645C164.286 3.16902 158.12 0.964456 150.825 0.882755V0.880371ZM143.624 37.9822H124.755V37.9651C120.698 37.965 117.275 36.6883 114.487 34.1348C111.697 31.5232 110.303 28.1861 110.303 24.1236C110.303 20.1192 111.729 16.8112 114.582 14.1996C117.37 11.5881 120.761 10.2823 124.755 10.2822V10.2795H144.299C137.26 10.9636 131.757 16.9223 131.757 24.172C131.757 31.1884 136.911 36.9956 143.624 37.9822Z" fill="black"/>
</svg>
