<svg width="27" height="36" viewBox="0 0 27 36" fill="none" xmlns="http://www.w3.org/2000/svg">
<path d="M14.1654 35.0623H12.1125C12.0271 35.0354 11.94 35.0143 11.8517 34.9992C10.5295 34.8674 9.24441 34.5744 8.03405 34.0248C3.72096 32.0611 1.06558 28.7704 0.193493 24.0819C0.124879 23.7032 0.0638113 23.3217 0 22.9416V20.6814C0.0452854 20.2773 0.0946877 19.8731 0.137229 19.4683C0.294355 17.9293 0.646347 16.4417 1.30367 15.0345C1.88552 13.7843 2.66567 12.6899 3.82044 11.9015C4.44483 11.4754 4.97385 11.6957 5.13921 12.4299C5.23665 12.8621 5.33819 13.2951 5.47611 13.7157C5.83839 14.8204 6.33173 15.8537 7.22303 16.6428C7.6601 17.0298 8.15001 17.3179 8.76822 17.4215C8.76822 17.1471 8.75244 16.9083 8.76822 16.6716C8.8979 15.0249 8.97887 13.3733 9.17991 11.7362C9.52298 8.9614 10.6894 6.50638 12.306 4.25721C13.3993 2.72167 14.722 1.36326 16.228 0.229548C16.5024 0.0237054 16.7892 -0.0847052 17.1138 0.0806553C17.4212 0.237096 17.5179 0.508123 17.5255 0.845019C17.5367 1.25415 17.5706 1.66234 17.627 2.06773C17.85 3.69045 18.4902 5.15537 19.3952 6.5009C20.3181 7.87318 21.2931 9.20636 22.2653 10.5423C24.5516 13.6821 26.0611 17.1032 26.2525 21.0485C26.3534 23.1261 26.0844 25.1338 25.2377 27.0179C23.2952 31.3441 19.9915 33.9953 15.3037 34.866C14.925 34.9381 14.5449 34.9978 14.1654 35.0623ZM14.1339 21.242C13.2357 22.3144 12.6717 23.4651 12.5249 24.79C12.4377 25.5812 12.4164 26.3805 12.3842 27.1764C12.3581 27.818 12.0507 28.1233 11.4119 28.0684C10.594 27.9998 9.9923 27.5614 9.54082 26.8965C9.43584 26.7414 9.33909 26.5809 9.22862 26.4066C8.73872 27.4139 8.63305 29.193 8.97612 30.3505C9.47838 32.0522 10.9886 33.3806 12.6127 33.5576C15.5631 33.8787 17.675 31.3256 17.5035 28.6297C17.4061 27.0989 16.8537 25.739 15.9741 24.4909C15.2633 23.4877 14.5126 22.5045 14.1339 21.242Z" fill="#031C17"/>
<path d="M14.1346 21.2421C14.5133 22.5046 15.264 23.4878 15.9707 24.491C16.8504 25.739 17.4027 27.0983 17.5001 28.6298C17.6717 31.3256 15.5618 33.8788 12.6093 33.5576C10.9859 33.3806 9.47569 32.0522 8.97274 30.3506C8.62967 29.1931 8.73877 27.4167 9.22867 26.4053C9.33914 26.5796 9.43451 26.7401 9.54087 26.8952C9.99235 27.5601 10.5941 27.993 11.412 28.0671C12.0508 28.1234 12.3582 27.8181 12.3842 27.1751C12.4165 26.3792 12.4378 25.5799 12.5249 24.7887C12.6724 23.4652 13.2364 22.3145 14.1346 21.2421Z" fill="#D7FF64"/>
</svg>
