<svg width="135" height="30" viewBox="0 0 135 30" fill="none" xmlns="http://www.w3.org/2000/svg">
<path d="M0 24.545V5.44979H4.53627V15.6713C4.53627 16.5949 4.49879 17.3562 4.42381 17.9552H4.49879C4.59876 17.7306 5.07362 16.9693 5.92339 15.6713L13.009 5.44979H17.6202V24.545H13.084V14.3609C13.084 13.8117 13.1215 13.0504 13.1964 12.0769H13.1214C13.0465 12.2517 12.5716 13.013 11.6968 14.3609L4.61125 24.545H0Z" fill="#959595"/>
<path d="M21.7185 24.545V5.44979H39.1513V24.545H34.3901V9.49347H26.4797V24.545H21.7185Z" fill="#959595"/>
<path d="M83.1681 24.545V9.49347H76.8698V5.44979H94.2276V9.49347H87.8918V24.545H83.1681Z" fill="#959595"/>
<path d="M95.8136 14.9974C95.8136 12.052 96.7134 9.65572 98.5129 7.8086C100.337 5.93653 102.687 5.00049 105.561 5.00049C108.21 5.00049 110.285 5.86164 111.784 7.58395C113.284 9.2813 114.034 11.4404 114.034 14.0613C114.034 14.4857 113.984 15.0972 113.884 15.896H100.725C100.875 17.4935 101.487 18.7415 102.562 19.6401C103.637 20.5138 104.936 20.9506 106.461 20.9506C108.36 20.9506 110.185 20.2517 111.934 18.8538L113.809 22.261C112.859 23.1097 111.684 23.7836 110.285 24.2829C108.91 24.7571 107.523 24.9943 106.123 24.9943C103.049 24.9943 100.562 24.0333 98.6629 22.1113C96.7634 20.1643 95.8136 17.793 95.8136 14.9974ZM100.837 12.6386H109.273C109.248 11.3905 108.873 10.4045 108.148 9.68068C107.448 8.95681 106.548 8.59487 105.449 8.59487C104.249 8.59487 103.237 8.96929 102.412 9.71812C101.587 10.442 101.062 11.4155 100.837 12.6386Z" fill="#959595"/>
<path d="M115.821 24.545L122.119 14.885L115.971 5.44979H121.369L124.331 10.6542L124.931 11.8523H125.006C125.256 11.378 125.468 10.9786 125.643 10.6542L128.605 5.44979H134.003L127.855 14.885L134.191 24.545H128.867L125.568 19.0036L125.006 17.9927H124.931C124.756 18.3921 124.581 18.729 124.406 19.0036L121.107 24.545H115.821Z" fill="#959595"/>
<path fill-rule="evenodd" clip-rule="evenodd" d="M64.8699 5H53.1647V5.00886C50.1802 5.10874 47.6454 6.05431 45.5603 7.84557C43.3248 9.71764 42.207 12.1014 42.207 14.9969C42.207 17.8924 43.3112 20.2886 45.5194 22.1857C47.614 23.9614 50.1625 24.895 53.1647 24.9864V25H64.8699V24.9932C68.0253 24.9662 70.691 24.0304 72.8669 22.1857C75.0752 20.2886 76.1793 17.8924 76.1793 14.9969C76.1793 12.1014 75.0616 9.71764 72.826 7.84557C70.6595 5.98434 68.0074 5.03616 64.8699 5.00103V5ZM61.7727 20.9574H53.657V20.9501C51.9123 20.9501 50.4402 20.4009 49.2407 19.3027C48.0412 18.1794 47.4414 16.7442 47.4414 14.9969C47.4414 13.2746 48.0548 11.8518 49.2816 10.7286C50.4811 9.60537 51.9396 9.04374 53.657 9.04369V9.04255H62.0629C59.0355 9.33677 56.6689 11.8996 56.6689 15.0177C56.6689 18.0354 58.8857 20.5331 61.7727 20.9574Z" fill="#959595"/>
</svg>
