<svg width="37" height="36" viewBox="0 0 37 36" fill="none" xmlns="http://www.w3.org/2000/svg">
<path d="M5.35179 30.9438C1.78393 27.5281 0 23.2135 0 18C0 12.7865 1.78393 8.49438 5.35179 5.1236C8.91965 1.70786 13.2804 0 18.4339 0C23.6315 0 28.0143 1.70786 31.5822 5.1236C35.1941 8.49438 37 12.7865 37 18C37 23.2135 35.2161 27.5281 31.6482 30.9438C28.0804 34.3146 23.6976 36 18.5 36C13.3024 36 8.91965 34.3146 5.35179 30.9438Z" fill="#031C17"/>
<path d="M18.3935 7.57898H18.5698C18.632 7.61169 18.6959 7.64131 18.7611 7.66774C21.4085 8.6125 24.0568 9.55395 26.706 10.4921C26.8858 10.5559 26.9264 10.6403 26.9264 10.8131C26.9211 13.1346 26.9304 15.4562 26.9167 17.7777C26.916 18.2998 26.8725 18.8209 26.7867 19.3362C26.4058 21.5491 25.3275 23.3889 23.5438 24.7957C22.4858 25.6312 21.3564 26.3809 20.2573 27.1655C19.6679 27.5878 19.0754 28.0053 18.4904 28.4211C18.4645 28.4095 18.4394 28.3964 18.4151 28.3819C16.8642 27.2801 15.3023 26.1905 13.7651 25.0702C11.8624 23.6815 10.6792 21.8356 10.2101 19.555C10.1413 19.2207 10.0955 18.8816 10.0391 18.5451V10.546C10.1238 10.5308 10.2075 10.511 10.2899 10.4865C12.517 9.69571 14.7439 8.9029 16.9704 8.10809C17.4461 7.9379 17.9191 7.75564 18.3935 7.57898Z" fill="white"/>
<path fill-rule="evenodd" clip-rule="evenodd" d="M22.3981 15.4722L17.546 20.5445L14.3359 16.8595L15.5546 15.6472L17.6017 17.9973L21.2338 14.2003L22.3981 15.4722Z" fill="#031C17"/>
</svg>
