<?xml version="1.0" encoding="UTF-8"?>
<svg id="Layer_1" data-name="Layer 1" xmlns="http://www.w3.org/2000/svg" viewBox="0 0 37 36">
  <defs>
    <style>
      .cls-1 {
        fill: #031c17;
      }

      .cls-2, .cls-3 {
        fill: #fff;
      }

      .cls-3 {
        fill-rule: evenodd;
      }
    </style>
  </defs>
  <path class="cls-2" d="M5.35,30.94C1.78,27.53,0,23.21,0,18S1.78,8.49,5.35,5.12C8.92,1.71,13.28,0,18.43,0s9.58,1.71,13.15,5.12c3.61,3.37,5.42,7.66,5.42,12.88s-1.78,9.53-5.35,12.94c-3.57,3.37-7.95,5.06-13.15,5.06s-9.58-1.69-13.15-5.06Z"/>
  <path class="cls-1" d="M18.39,7.58h.18c.06,.03,.13,.06,.19,.09,2.65,.94,5.3,1.89,7.94,2.82,.18,.06,.22,.15,.22,.32,0,2.32,0,4.64,0,6.96,0,.52-.04,1.04-.13,1.56-.38,2.21-1.46,4.05-3.24,5.46-1.06,.84-2.19,1.59-3.29,2.37-.59,.42-1.18,.84-1.77,1.26-.03-.01-.05-.02-.08-.04-1.55-1.1-3.11-2.19-4.65-3.31-1.9-1.39-3.09-3.23-3.55-5.52-.07-.33-.11-.67-.17-1.01v-8c.08-.02,.17-.03,.25-.06,2.23-.79,4.45-1.58,6.68-2.38,.48-.17,.95-.35,1.42-.53Z"/>
  <path class="cls-3" d="M22.4,15.47l-4.85,5.07-3.21-3.68,1.22-1.21,2.05,2.35,3.63-3.8,1.16,1.27Z"/>
</svg>