<?xml version="1.0" encoding="UTF-8"?>
<svg id="Layer_1" data-name="Layer 1" xmlns="http://www.w3.org/2000/svg" viewBox="0 0 36 36">
  <defs>
    <style>
      .cls-1 {
        fill: #031c17;
      }

      .cls-2 {
        fill: #fff;
      }
    </style>
  </defs>
  <circle class="cls-1" cx="18" cy="18" r="18"/>
  <path class="cls-2" d="M15.77,18.47v7.08h-6.48v-5.59c0-3.03,.36-5.22,1.07-6.57,.94-1.81,2.43-3.17,4.46-4.1l1.48,2.37c-1.23,.52-2.14,1.3-2.72,2.34-.58,1.02-.91,2.51-.97,4.47h3.15Zm10.4,0v7.08h-6.48v-5.59c0-3.03,.36-5.22,1.07-6.57,.94-1.81,2.43-3.17,4.46-4.1l1.48,2.37c-1.23,.52-2.14,1.3-2.72,2.34-.58,1.02-.91,2.51-.97,4.47h3.15Z"/>
</svg>