<svg width="177" height="25" viewBox="0 0 177 25" fill="none" xmlns="http://www.w3.org/2000/svg">
<rect width="132.2" height="24.7583" rx="12.3792" fill="#D7FF64"/>
<rect x="86.4141" width="89.6739" height="25" rx="12.5" fill="#031C17"/>
<path d="M11.2977 16.4557C10.1878 15.4143 9.63281 14.0988 9.63281 12.5093C9.63281 10.9198 10.1878 9.6112 11.2977 8.5835C12.4076 7.54209 13.7642 7.02139 15.3674 7.02139C16.9843 7.02139 18.3477 7.54209 19.4577 8.5835C20.5813 9.6112 21.1431 10.9198 21.1431 12.5093C21.1431 14.0988 20.5881 15.4143 19.4782 16.4557C18.3683 17.4834 17.0049 17.9973 15.388 17.9973C13.771 17.9973 12.4076 17.4834 11.2977 16.4557ZM12.2843 12.5093C12.2843 13.4685 12.5789 14.2564 13.1681 14.873C13.771 15.476 14.511 15.7774 15.388 15.7774C16.2649 15.7774 17.0049 15.476 17.6078 14.873C18.2107 14.2564 18.5122 13.4685 18.5122 12.5093C18.5122 11.5638 18.2039 10.7828 17.5872 10.1662C16.9843 9.54954 16.2512 9.24123 15.388 9.24123C14.5247 9.24123 13.7916 9.54954 13.1887 10.1662C12.5857 10.7828 12.2843 11.5638 12.2843 12.5093Z" fill="#031C17"/>
<path d="M23.2969 17.7506V7.26804H25.9073V11.3172H30.3881V7.26804H32.9984V17.7506H30.3881V13.5165H25.9073V17.7506H23.2969Z" fill="#031C17"/>
<path d="M34.8154 17.8534V15.5513C35.5279 15.4554 36.0692 15.0375 36.4392 14.2975C36.8228 13.5439 37.0147 12.2969 37.0147 10.5567V7.26804H44.6608V17.7506H42.0504V9.38511H39.5017V10.5567C39.5017 12.941 39.1386 14.7429 38.4124 15.9624C37.6861 17.1682 36.4871 17.7986 34.8154 17.8534Z" fill="#031C17"/>
<path d="M46.6624 14.8525C46.6624 14.1125 46.8611 13.4822 47.2585 12.9615C47.6696 12.4408 48.204 12.064 48.8617 11.831C49.5331 11.5844 50.1772 11.4131 50.7938 11.3172C51.4241 11.2213 52.0818 11.1733 52.767 11.1733H53.2192V11.0294C53.2192 9.79619 52.5614 9.17957 51.246 9.17957C50.2868 9.17957 49.3139 9.51528 48.3273 10.1867L47.3612 8.3163C47.8134 7.96003 48.4232 7.65857 49.1906 7.41192C49.9579 7.15157 50.7184 7.02139 51.4721 7.02139C52.8423 7.02139 53.9111 7.39136 54.6785 8.13131C55.4458 8.85755 55.8295 9.87841 55.8295 11.1939V17.7506H53.4041V16.8668L53.4658 16.1063H53.4247C53.0958 16.6681 52.6368 17.1271 52.0476 17.4834C51.4584 17.826 50.8143 17.9973 50.1155 17.9973C49.1426 17.9973 48.3204 17.7095 47.649 17.134C46.9913 16.5448 46.6624 15.7843 46.6624 14.8525ZM49.2522 14.6264C49.2522 14.9964 49.3892 15.3184 49.6633 15.5924C49.9511 15.8665 50.3416 16.0035 50.8349 16.0035C51.5337 16.0035 52.1092 15.7158 52.5614 15.1402C53.0136 14.5647 53.2397 13.9344 53.2397 13.2493V12.9615H52.7875C50.4307 12.9615 49.2522 13.5165 49.2522 14.6264Z" fill="#031C17"/>
<path d="M65.6982 5.50039C65.0405 6.00739 64.2457 6.26089 63.3139 6.26089C62.3821 6.26089 61.5874 6.00739 60.9297 5.50039C60.2719 4.97969 59.9431 4.2877 59.9431 3.42443V3.15723H61.9368V3.42443C61.9368 3.83551 62.0738 4.15752 62.3479 4.39047C62.6219 4.60971 62.944 4.71934 63.3139 4.71934C63.6839 4.71934 64.0059 4.60971 64.28 4.39047C64.5677 4.15752 64.7116 3.82866 64.7116 3.40388V3.15723H66.6848V3.42443C66.6848 4.2877 66.3559 4.97969 65.6982 5.50039ZM58.4837 17.7506V7.26804H60.9708V12.8793C60.9708 13.3863 60.9502 13.8042 60.9091 14.1331H60.9502C61.005 14.0098 61.2654 13.5918 61.7313 12.8793L65.616 7.26804H68.1441V17.7506H65.6571V12.1599C65.6571 11.8584 65.6776 11.4405 65.7188 10.9061H65.6776C65.6365 11.002 65.3762 11.42 64.8966 12.1599L61.0119 17.7506H58.4837Z" fill="#031C17"/>
<path d="M70.9486 17.7506V7.26804H73.559V11.3172H78.0398V7.26804H80.6502V17.7506H78.0398V13.5165H73.559V17.7506H70.9486Z" fill="#031C17"/>
<path d="M96.7344 12.4951C96.7344 10.9768 97.2543 9.69579 98.2941 8.65197C99.3476 7.5946 100.723 7.06592 102.419 7.06592C103.172 7.06592 103.91 7.1947 104.635 7.45227C105.361 7.70983 105.963 8.09618 106.441 8.61131L105.272 10.3804C104.519 9.63479 103.616 9.262 102.563 9.262C101.619 9.262 100.853 9.57379 100.264 10.1974C99.6759 10.8074 99.3818 11.5665 99.3818 12.4748C99.3818 13.383 99.6827 14.1557 100.285 14.7929C100.887 15.4164 101.673 15.7282 102.645 15.7282C103.78 15.7282 104.807 15.2877 105.723 14.4065L106.729 16.2366C106.236 16.7517 105.6 17.1652 104.82 17.477C104.054 17.7752 103.254 17.9243 102.419 17.9243C100.723 17.9243 99.3476 17.4092 98.2941 16.3789C97.2543 15.3351 96.7344 14.0405 96.7344 12.4951Z" fill="white"/>
<path d="M111.384 15.6062H115.263V9.384H112.657V9.87202C112.657 12.2985 112.233 14.2099 111.384 15.6062ZM107.485 15.6062H108.778C109.708 14.2506 110.173 12.2037 110.173 9.46534V7.30993H117.869V15.6062H119.367V20.1204H117.007V17.6803H109.907V20.1204H107.485V15.6062Z" fill="white"/>
<path d="M120.503 12.4951C120.503 10.8955 120.996 9.59412 121.981 8.59097C122.98 7.57427 124.266 7.06592 125.839 7.06592C127.29 7.06592 128.425 7.5336 129.246 8.46897C130.067 9.39078 130.477 10.5634 130.477 11.9868C130.477 12.2172 130.45 12.5493 130.395 12.9831H123.192C123.274 13.8507 123.609 14.5285 124.197 15.0165C124.786 15.491 125.497 15.7282 126.332 15.7282C127.372 15.7282 128.37 15.3487 129.328 14.5895L130.354 16.4399C129.834 16.9008 129.191 17.2668 128.425 17.538C127.673 17.7955 126.913 17.9243 126.147 17.9243C124.464 17.9243 123.103 17.4024 122.063 16.3586C121.023 15.3012 120.503 14.0134 120.503 12.4951ZM123.253 11.2141H127.871C127.857 10.5363 127.652 10.0008 127.255 9.60768C126.872 9.21455 126.38 9.01799 125.778 9.01799C125.121 9.01799 124.567 9.22133 124.115 9.62801C123.664 10.0211 123.377 10.5498 123.253 11.2141Z" fill="white"/>
<path d="M131.658 17.782V15.5045C132.37 15.4097 132.91 14.9962 133.28 14.2642C133.663 13.5186 133.854 12.285 133.854 10.5634V7.30993H141.489V17.6803H138.882V9.40434H136.337V10.5634C136.337 12.9221 135.975 14.7047 135.25 15.9112C134.525 17.1042 133.327 17.7277 131.658 17.782Z" fill="white"/>
<path d="M144.287 17.6803V7.30993H146.894V11.2751H148.166L150.711 7.30993H153.605L150.28 12.2511V12.2918L154.015 17.6803H150.998L148.248 13.4711H146.894V17.6803H144.287Z" fill="white"/>
<path d="M154.65 14.8132C154.65 14.0812 154.848 13.4576 155.245 12.9425C155.656 12.4273 156.189 12.0545 156.846 11.8241C157.516 11.5801 158.159 11.4106 158.775 11.3157C159.404 11.2208 160.061 11.1734 160.745 11.1734H161.197V11.0311C161.197 9.81102 160.54 9.20099 159.227 9.20099C158.269 9.20099 157.297 9.53312 156.312 10.1974L155.348 8.34696C155.799 7.99451 156.408 7.69627 157.174 7.45227C157.94 7.1947 158.7 7.06592 159.452 7.06592C160.82 7.06592 161.888 7.43193 162.654 8.16396C163.42 8.88243 163.803 9.89235 163.803 11.1937V17.6803H161.381V16.8059L161.443 16.0536H161.402C161.074 16.6094 160.615 17.0635 160.027 17.416C159.439 17.7549 158.796 17.9243 158.098 17.9243C157.126 17.9243 156.306 17.6396 155.635 17.0703C154.978 16.4874 154.65 15.735 154.65 14.8132ZM157.236 14.5895C157.236 14.9555 157.373 15.2741 157.646 15.5452C157.934 15.8163 158.324 15.9519 158.816 15.9519C159.514 15.9519 160.088 15.6672 160.54 15.0979C160.991 14.5285 161.217 13.9049 161.217 13.2271V12.9425H160.766C158.413 12.9425 157.236 13.4915 157.236 14.5895Z" fill="white"/>
</svg>
