<svg width="59" height="48" viewBox="0 0 59 48" fill="none" xmlns="http://www.w3.org/2000/svg">
<rect x="2" y="8" width="55" height="31" fill="white"/>
<path d="M56.05 6H2.95C1.32105 6 0 7.34344 0 9V39C0 40.6566 1.32105 42 2.95 42H56.05C57.679 42 59 40.6566 59 39V9C59 7.34344 57.679 6 56.05 6ZM4.425 37.5V31.5C7.68383 31.5 10.325 34.1859 10.325 37.5H4.425ZM4.425 16.5V10.5H10.325C10.325 13.8141 7.68383 16.5 4.425 16.5ZM29.5 33C25.4262 33 22.125 28.9697 22.125 24C22.125 19.0294 25.4272 15 29.5 15C33.5728 15 36.875 19.0294 36.875 24C36.875 28.9716 33.5719 33 29.5 33ZM54.575 37.5H48.675C48.675 34.1859 51.3162 31.5 54.575 31.5V37.5ZM54.575 16.5C51.3162 16.5 48.675 13.8141 48.675 10.5H54.575V16.5Z" fill="#031C17"/>
</svg>
