<svg width="60" height="60" viewBox="0 0 60 60" fill="none" xmlns="http://www.w3.org/2000/svg">
<rect x="7.6875" y="23.9786" width="44.6291" height="20.5436" fill="white"/>
<path fill-rule="evenodd" clip-rule="evenodd" d="M22.0904 14.1791V15.7612H11.0158C9.75701 15.7612 8.54978 16.2613 7.65968 17.1514C6.76958 18.0415 6.26953 19.2487 6.26953 20.5075L6.26953 48.9851C6.26953 50.2439 6.76958 51.4511 7.65968 52.3412C8.54978 53.2313 9.75701 53.7314 11.0158 53.7314H48.9859C50.2447 53.7314 51.452 53.2313 52.3421 52.3412C53.2322 51.4511 53.7322 50.2439 53.7322 48.9851V20.5075C53.7322 19.2487 53.2322 18.0415 52.3421 17.1514C51.452 16.2613 50.2447 15.7612 48.9859 15.7612H37.9113V14.1791C37.9113 12.0811 37.0779 10.0691 35.5944 8.58559C34.1109 7.1021 32.0989 6.26868 30.0009 6.26868C27.9029 6.26868 25.8908 7.1021 24.4073 8.58559C22.9238 10.0691 22.0904 12.0811 22.0904 14.1791ZM30.0009 9.43286C28.7421 9.43286 27.5348 9.93291 26.6448 10.823C25.7547 11.7131 25.2546 12.9203 25.2546 14.1791V15.7612H34.7471V14.1791C34.7471 12.9203 34.2471 11.7131 33.357 10.823C32.4669 9.93291 31.2597 9.43286 30.0009 9.43286ZM8.35789 29.5792C14.2517 35.0209 21.9791 38.0428 30.0009 38.0428C38.0227 38.0428 45.7501 35.0209 51.6439 29.5792L49.4922 27.2567C44.1835 32.1558 37.2247 34.8761 30.0009 34.8761C22.7771 34.8761 15.8182 32.1558 10.5095 27.2567L8.35789 29.5792Z" fill="#031C17"/>
</svg>
