<?xml version="1.0" encoding="UTF-8"?>
<svg id="Layer_1" data-name="Layer 1" xmlns="http://www.w3.org/2000/svg" xmlns:xlink="http://www.w3.org/1999/xlink" viewBox="0 0 45 45">
  <defs>
    <style>
      .cls-1, .cls-2 {
        fill: none;
      }

      .cls-3 {
        clip-path: url(#clippath);
      }

      .cls-4 {
        fill: #d7ff64;
      }

      .cls-2 {
        stroke: #000;
      }
    </style>
    <clipPath id="clippath">
      <rect class="cls-1" x="-.46" y=".09" width="45" height="45"/>
    </clipPath>
  </defs>
  <g class="cls-3">
    <g>
      <rect class="cls-4" x=".54" y="8.81" width="44.1" height="35.28" rx="2" ry="2"/>
      <path d="M37.47,8.19c-.02,.11-.04,.23-.05,.34-.04,.25-.08,.51-.13,.76-.28,1.26-.93,2.41-1.86,3.31-3.46,3.41-6.91,6.82-10.37,10.22-.4,.4-.94,.42-1.3,.07-.36-.35-.33-.88,.07-1.28,3.44-3.4,6.89-6.79,10.33-10.19,1.87-1.84,2.02-4.71,.38-6.7-.44-.55-1-.99-1.63-1.31-.63-.32-1.32-.51-2.03-.54-.71-.04-1.41,.07-2.08,.32-.66,.25-1.26,.63-1.76,1.12-3.73,3.64-7.44,7.3-11.14,10.98-.88,.87-1.16,1.94-.78,3.12,.39,1.19,1.26,1.89,2.51,2.08,.91,.14,1.75-.1,2.43-.71,.48-.43,.93-.88,1.38-1.33,.15-.15,.3-.3,.45-.45,2.9-2.86,5.81-5.72,8.71-8.58,.35-.34,.52-.73,.37-1.2-.05-.17-.15-.33-.28-.46-.13-.13-.29-.22-.47-.27-.18-.05-.36-.06-.54-.02-.18,.04-.35,.12-.48,.24-.06,.05-.12,.11-.18,.17-.02,.02-.03,.03-.05,.05-3.16,3.11-6.32,6.22-9.47,9.34-.24,.24-.5,.41-.86,.35-.33-.05-.57-.23-.68-.55-.11-.33-.06-.64,.19-.89,.19-.2,.39-.39,.59-.59,.08-.08,.15-.15,.23-.23,2.95-2.91,5.91-5.82,8.86-8.73,1.04-1.02,2.56-1.19,3.73-.42,1.36,.9,1.61,2.84,.54,4.11-.07,.08-.14,.16-.22,.24-3.48,3.43-6.95,6.85-10.43,10.28-1.93,1.89-4.97,1.88-6.85,0-1.85-1.85-1.87-4.81-.02-6.66,3.15-3.12,6.3-6.24,9.47-9.34,.19-.19,.39-.39,.58-.58,.54-.55,1.07-1.09,1.67-1.57,2.01-1.63,4.3-2.02,6.73-1.13,2.45,.9,3.88,2.71,4.34,5.26,.03,.15,.05,.31,.07,.47,0,.07,.02,.14,.03,.22v.69Z"/>
      <path class="cls-2" d="M37.47,8.19c-.02,.11-.04,.23-.05,.34-.04,.25-.08,.51-.13,.76-.28,1.26-.93,2.41-1.86,3.31-3.46,3.41-6.91,6.82-10.37,10.22-.4,.4-.94,.42-1.3,.07-.36-.35-.33-.88,.07-1.28,3.44-3.4,6.89-6.79,10.33-10.19,1.87-1.84,2.02-4.71,.38-6.7-.44-.55-1-.99-1.63-1.31-.63-.32-1.32-.51-2.03-.54-.71-.04-1.41,.07-2.08,.32-.66,.25-1.26,.63-1.76,1.12-3.73,3.64-7.44,7.3-11.14,10.98-.88,.87-1.16,1.94-.78,3.12,.39,1.19,1.26,1.89,2.51,2.08,.91,.14,1.75-.1,2.43-.71,.48-.43,.93-.88,1.38-1.33,.15-.15,.3-.3,.45-.45,2.9-2.86,5.81-5.72,8.71-8.58,.35-.34,.52-.73,.37-1.2-.05-.17-.15-.33-.28-.46-.13-.13-.29-.22-.47-.27-.18-.05-.36-.06-.54-.02-.18,.04-.35,.12-.48,.24-.06,.05-.12,.11-.18,.17-.02,.02-.03,.03-.05,.05-3.16,3.11-6.32,6.22-9.47,9.34-.24,.24-.5,.41-.86,.35-.33-.05-.57-.23-.68-.55-.11-.33-.06-.64,.19-.89,.19-.2,.39-.39,.59-.59,.08-.08,.15-.15,.23-.23,2.95-2.91,5.91-5.82,8.86-8.73,1.04-1.02,2.56-1.19,3.73-.42,1.36,.9,1.61,2.84,.54,4.11-.07,.08-.14,.16-.22,.24-3.48,3.43-6.95,6.85-10.43,10.28-1.93,1.89-4.97,1.88-6.85,0-1.85-1.85-1.87-4.81-.02-6.66,3.15-3.12,6.3-6.24,9.47-9.34,.19-.19,.39-.39,.58-.58,.54-.55,1.07-1.09,1.67-1.57,2.01-1.63,4.3-2.02,6.73-1.13,2.45,.9,3.88,2.71,4.34,5.26,.03,.15,.05,.31,.07,.47,0,.07,.02,.14,.03,.22v.69Z"/>
      <path class="cls-4" d="M38.3,8.81h-3.36L17.08,27.15l17.37,5.09,3.86-23.43Z"/>
    </g>
  </g>
</svg>