<svg width="155" height="39" viewBox="0 0 155 39" fill="none" xmlns="http://www.w3.org/2000/svg">
<path d="M42.1245 33.2202H32.2023V29.0003H42.1026V33.2202H42.1245ZM44.1222 26.8793H30.2266V37.4401H32.2023V35.3191H44.0783V26.8793H44.1222ZM32.2023 7.90091L36.1755 3.68104V18.4616H32.2023V7.90091ZM30.2266 20.5605H38.1292V1.56006H35.1877L30.2266 6.84042V20.5605ZM42.1245 3.68104H46.0979V18.4616H42.1245V3.68104ZM40.1489 20.5605H48.0516V1.56006H40.1489V20.5605ZM61.9033 20.5605H63.8789V1.56006H60.8935V1.58216L57.908 4.74154V1.56006H54.9226L50.0053 6.84042V20.5605H51.981V7.90091L55.9542 3.68104V20.5605H57.9299V7.90091L61.9033 3.68104V20.5605ZM30.2266 24.7804H63.9009V22.6594H30.2266V24.7804ZM55.9762 29.0003H61.9033V33.2202H55.9762V29.0003ZM54.0005 33.2202H48.0516V29.0003H54.0005V33.2202ZM55.9762 35.3191H63.9009V26.8793H46.0979V35.3191H54.0005V37.4401H55.9762V35.3191ZM93.3604 20.207H95.0948C95.8629 20.207 96.324 20.7594 96.324 21.5106C96.324 22.306 95.8629 22.8141 95.0948 22.8141H93.3604V20.207ZM93.3604 18.55V16.65H97.4873V14.993H91.5825V24.4932H95.1607C96.9386 24.4932 98.0584 23.256 98.0584 21.5327C98.0584 19.8094 96.9603 18.5721 95.1607 18.5721C95.1824 18.55 93.3604 18.55 93.3604 18.55ZM104.49 21.2455H102.273L103.414 17.7989L104.49 21.2455ZM105.5 24.4932H107.322L104.095 14.993H102.734L99.5069 24.4932H101.329L101.878 22.8141H105.017L105.5 24.4932ZM113.885 24.4932H115.62V14.993H113.885V18.8814H110.878V14.993H109.144V24.4932H110.878V20.5164H113.885V24.4932ZM122.007 19.4338L124.994 14.993H122.93L120.076 19.5001V14.993H118.342V24.4932H120.076V19.5221L123.193 24.4932H125.322L122.007 19.4338Z" fill="white"/>
<path d="M79.2868 5.60303H77.75V33.3968H79.2868V5.60303Z" fill="white"/>
</svg>
