<svg width="154" height="39" viewBox="0 0 154 39" fill="none" xmlns="http://www.w3.org/2000/svg">
<path fill-rule="evenodd" clip-rule="evenodd" d="M50.8206 15.8339C51.8216 15.8339 52.6686 16.0679 53.4386 16.3019L53.5926 14.1179C52.5916 13.8059 51.7446 13.6499 50.6666 13.6499C46.5086 13.6499 43.3516 15.9119 43.3516 20.3579C43.3516 25.1159 46.8936 26.9879 50.1276 26.9879C51.1286 26.9879 52.3606 26.8319 53.5156 26.4419L53.4386 24.1799C52.7456 24.4919 51.8986 24.7259 50.7436 24.7259C48.3566 24.7259 46.2776 23.4779 46.2776 20.2799C46.2006 17.6279 47.8946 15.8339 50.8206 15.8339ZM73.6895 26.8321H76.3845V15.9121H81.5435V26.8321H84.2385V13.8061H73.6895V26.8321ZM59.7526 13.8061L62.9866 23.1661L66.2206 13.8061H70.6866V26.8321H68.0686V15.6781H67.9916L64.2186 26.8321H61.6776L57.9816 15.6781H57.9046V26.8321H55.2866V13.8061H59.7526ZM96.4814 18.7981H94.3254V16.0681H100.1V13.8061H91.7074V26.7541H96.4814C100.254 26.7541 101.178 24.3361 101.178 23.0101C101.178 21.3721 100.331 18.7981 96.4814 18.7981ZM95.9424 24.7261H94.3254V20.7481H95.9424C97.4054 20.7481 98.3294 21.3721 98.3294 22.6981C98.3294 24.1801 97.4824 24.7261 95.9424 24.7261ZM101.332 26.8321L106.568 13.8061H109.494L114.73 26.8321H111.727L110.649 23.8681H105.259L104.181 26.8321H101.332ZM108.031 16.3801L106.183 21.6841H110.033L108.108 16.3801H108.031ZM124.125 19.0321H118.735V13.8061H116.117V26.8321H118.735V21.2161H124.125V26.8321H126.743V13.8061H124.125V19.0321ZM140.603 13.8061L135.136 19.7341L140.911 26.8321H137.523L132.672 20.3581H132.595V26.8321H129.977V13.8061H132.595V19.3441H132.672L137.369 13.8061H140.603Z" fill="white"/>
<path d="M42.2711 4.602C42.1171 4.368 39.9611 5.46 39.9611 5.46L40.0381 5.382C40.4231 5.07 41.1161 4.758 40.8851 4.446C40.7311 4.29 40.5001 4.368 39.6531 4.836C39.2681 5.07 37.2661 5.928 35.1871 6.864C33.4161 7.644 30.3361 8.97 30.1051 9.36C30.1051 9.36 30.1051 9.36 30.0281 9.438C29.9511 9.516 29.9511 9.594 29.9511 9.594C29.7971 9.828 29.7201 10.218 29.6431 10.686V10.764C29.6431 10.842 29.6431 10.842 29.6431 10.842C29.4891 11.466 29.4121 12.246 29.2581 13.104C28.8731 15.6 28.4881 19.5 28.4881 19.5C28.4881 19.5 28.4111 22.152 28.1801 23.4C28.1031 23.634 28.1031 23.79 28.0261 23.946C28.0261 24.024 27.9491 24.102 27.9491 24.18C27.8721 24.414 27.7181 24.648 27.5641 24.804C27.1021 25.35 25.9471 25.194 25.5621 25.116C24.7921 25.038 24.0221 24.492 23.9451 24.336C23.8681 24.18 23.3291 23.478 22.6361 23.4C22.4051 23.4 21.6351 23.556 21.3271 23.556C21.0191 23.556 20.6341 23.166 20.2491 23.088C19.8641 22.932 19.2481 23.322 19.2481 23.322C19.2481 23.322 20.9421 23.946 21.1731 24.258C21.4041 24.57 21.8661 25.272 22.4821 25.584C23.0981 25.896 25.2541 28.314 25.2541 28.314C25.2541 28.314 25.7161 28.782 26.4091 29.406C25.7931 29.64 25.1001 29.796 24.4071 29.874C19.4791 30.42 15.3981 27.222 14.8591 22.386C14.7051 21.294 14.7821 20.28 15.0901 19.344C15.3981 18.174 15.8601 17.004 16.6301 15.99C18.0931 14.118 20.0951 12.948 22.4821 12.714C23.9451 12.558 25.4081 12.792 26.7171 13.26C26.7171 13.104 26.7171 12.948 26.6401 12.792C25.3311 12.246 23.8681 12.09 22.4051 12.246C20.0181 12.558 17.8621 13.65 16.3221 15.6C15.2441 16.926 14.5511 18.486 14.3971 20.124C14.3201 20.358 14.3201 20.514 14.3201 20.826C14.2431 21.372 14.2431 22.464 14.3971 23.01C14.9361 27.846 19.3251 31.356 24.2531 30.81C25.2541 30.654 26.2551 30.42 27.1791 29.952C27.8721 30.498 28.7191 31.044 29.6431 31.434C31.9531 32.448 34.7251 32.526 35.4181 32.604C36.7271 32.76 37.8821 34.476 38.2671 34.788C38.6521 35.1 41.1161 34.554 41.1161 34.554C41.1161 34.554 40.8851 34.164 40.8081 33.54C40.7311 32.916 39.9611 32.604 39.8841 32.448C39.7301 32.292 36.5731 30.81 36.0341 30.498C35.5721 30.186 34.8791 29.484 34.1861 28.392C33.4931 27.3 33.8011 26.442 33.8781 26.208C34.0321 25.974 34.2631 25.974 34.4171 25.662C34.5711 25.35 34.4941 25.35 34.4171 25.194C34.4171 25.038 34.4941 24.96 34.5711 24.726C34.7251 24.492 34.6481 24.492 34.6481 24.492C34.6481 24.492 34.6481 24.492 34.7251 24.18C34.8021 23.868 34.7251 24.18 34.8021 24.024C34.8791 23.868 34.8791 23.868 34.8791 23.868C34.8791 23.868 34.8791 23.712 34.9561 23.634C35.0331 23.556 34.8791 23.4 34.8791 23.322C34.9561 23.166 34.9561 23.166 34.9561 22.932C35.0331 22.698 34.9561 22.776 35.0331 22.542C35.0331 22.308 35.1101 22.386 35.2641 22.23C35.4181 22.074 35.1101 21.918 35.1101 21.918C35.1101 21.918 35.1101 21.762 35.3411 21.372C35.5721 20.904 35.3411 21.372 35.4181 21.138C35.4951 20.904 35.3411 20.748 35.2641 20.592C35.1871 20.358 35.3411 20.436 35.3411 20.202C35.4181 19.968 35.3411 20.202 35.4181 19.968C35.4951 19.734 35.4951 19.656 35.4951 19.656L35.3411 19.188C35.3411 19.188 35.3411 19.188 35.4181 19.032C35.4951 18.876 35.4181 18.642 35.4181 18.642L35.1871 18.096C35.1871 18.096 35.1871 17.862 35.2641 17.706C35.3411 17.55 35.1101 17.004 35.1101 17.004L35.2641 16.458L35.1101 15.6L34.9561 14.898C34.9561 14.898 34.8791 13.806 34.8791 13.416C34.8791 13.026 34.8791 12.48 34.9561 12.012C35.0331 11.466 36.5731 10.764 36.8041 10.452C36.9581 10.14 35.8801 10.53 35.8801 10.53C35.8801 10.53 37.8821 9.984 38.0361 9.672C38.1131 9.438 36.7271 9.75 36.7271 9.75C36.5731 9.828 36.7271 9.75 36.7271 9.75C37.2661 9.594 38.7291 9.282 39.1911 8.814C39.7301 8.346 38.1901 8.658 37.9591 8.736C38.1901 8.658 39.8841 8.19 40.1151 7.722C40.2691 7.41 38.8831 7.644 38.8831 7.644C39.5761 7.488 40.4231 7.254 40.8851 6.942C41.8861 6.474 41.9631 6.084 41.7321 5.928C41.5011 5.772 39.8841 6.396 39.8841 6.396C39.8071 6.396 39.8071 6.396 39.8071 6.474C39.8841 6.474 39.8841 6.396 39.8841 6.396C40.3461 6.24 40.8851 6.006 41.1931 5.772C41.7321 5.46 42.5021 4.914 42.2711 4.602ZM39.6531 5.616C39.7301 5.538 39.8071 5.538 39.8841 5.46C39.8071 5.538 39.7301 5.538 39.6531 5.616Z" fill="white"/>
<path d="M37.9604 3.9C37.8064 3.744 36.7284 4.212 36.7284 4.212C36.7284 4.212 30.5684 7.176 27.7964 8.658C27.1804 8.97 26.4874 9.516 26.4874 10.452C26.4874 13.494 27.1034 18.096 27.4114 20.514C27.7194 22.932 27.9504 23.868 27.8734 23.946C27.8734 23.868 28.0274 23.634 28.1044 23.244C28.3354 21.996 28.4124 19.344 28.4124 19.344C28.4124 19.344 28.7974 15.444 29.1824 12.87C29.4134 11.154 29.6444 9.75 30.0294 9.204C30.2604 8.814 35.2654 6.708 36.1894 6.318C37.2674 5.85 37.4214 5.694 37.4214 5.304C37.4214 5.07 36.2664 5.46 36.2664 5.46C36.2664 5.46 37.2674 4.914 37.6524 4.68C37.9604 4.446 38.1144 4.134 37.9604 3.9ZM17.1704 15.21L18.7874 12.948L16.7854 14.898L15.9384 11.544L16.0924 14.898L14.4754 13.806L15.9384 15.366L13.8594 15.912L16.0154 15.756L14.2444 18.252L16.3234 16.224L17.1704 19.266L17.0164 16.224L18.5564 17.238L17.0164 15.678L19.0954 15.054L17.1704 15.21Z" fill="#BBBBBB"/>
</svg>
