<svg width="154" height="39" viewBox="0 0 154 39" fill="none" xmlns="http://www.w3.org/2000/svg">
<path d="M51.8155 29.4918C51.8155 29.601 51.8155 29.6322 51.6769 29.6322H50.9069C50.8222 29.64 50.8222 29.64 50.8222 29.4918V24.8118C50.8222 24.7026 50.8222 24.6714 50.9608 24.5934C51.4499 24.3939 51.9736 24.2957 52.5008 24.3048C53.856 24.3048 54.318 25.1706 54.318 26.286C54.318 27.4014 53.7867 28.2672 52.6471 28.2672C52.3739 28.2601 52.1014 28.2367 51.8309 28.197L51.8155 29.4918ZM52.3622 25.1628C52.1833 25.1687 52.0053 25.1922 51.8309 25.233V27.222C52.0289 27.2773 52.2341 27.301 52.4392 27.2922C52.9012 27.2922 53.2554 27.0036 53.2554 26.208C53.2554 25.4124 52.9243 25.1628 52.3622 25.1628ZM58.5222 25.8804C58.5222 26.3874 58.3066 26.5278 57.9909 26.5278H56.2122C56.2115 26.6379 56.234 26.7469 56.2778 26.8476C56.3217 26.9483 56.3861 27.0384 56.4669 27.1121C56.5476 27.1858 56.6427 27.2413 56.7462 27.275C56.8496 27.3088 56.9589 27.3199 57.0669 27.3078C57.3481 27.3037 57.6256 27.2427 57.8831 27.1284H58.0602L58.3066 27.6354C58.3143 27.6517 58.3184 27.6695 58.319 27.6875C58.3197 27.7055 58.3166 27.7234 58.3101 27.7403C58.3036 27.757 58.2939 27.7723 58.2813 27.7851C58.2688 27.798 58.2538 27.8081 58.2373 27.8148C57.8517 28.0475 57.4076 28.1613 56.9591 28.1424C55.7117 28.1424 55.1111 27.5262 55.1111 26.1924C55.0779 25.9377 55.0993 25.6787 55.1738 25.433C55.2484 25.1874 55.3744 24.9611 55.5433 24.7693C55.7121 24.5775 55.9198 24.4249 56.1522 24.3218C56.3846 24.2188 56.6362 24.1678 56.8898 24.1722C57.1134 24.1574 57.3374 24.1922 57.5462 24.2741C57.7551 24.356 57.9438 24.4831 58.0992 24.6465C58.2547 24.8098 58.373 25.0056 58.4461 25.22C58.5191 25.4345 58.5451 25.6625 58.5222 25.8882V25.8804ZM56.1737 25.8804H57.4904C57.4904 25.4514 57.3518 25.1004 56.8513 25.1004C56.6639 25.1202 56.4918 25.2139 56.3721 25.3614C56.2524 25.5089 56.195 25.6982 56.2122 25.8882L56.1737 25.8804ZM60.3009 28.1502H59.5309C59.4616 28.1502 59.3923 28.1502 59.3923 28.041V24.4764C59.3923 24.3672 59.3923 24.3672 59.5309 24.3672H60.3009C60.4087 24.3672 60.4395 24.3672 60.4395 24.4764V25.74H60.8322C60.9725 25.7504 61.1117 25.7086 61.2237 25.6225C61.3357 25.5363 61.4128 25.4117 61.4405 25.272L61.6869 24.492C61.6869 24.4218 61.7562 24.3828 61.8255 24.3828H62.5955C62.7033 24.3828 62.7033 24.453 62.6648 24.5232L62.4184 25.4592C62.3959 25.6012 62.3381 25.7351 62.2506 25.8483C62.163 25.9616 62.0486 26.0504 61.9179 26.1066C62.0726 26.1384 62.2139 26.2176 62.3227 26.3333C62.4315 26.4491 62.5025 26.596 62.5262 26.754L62.8804 28.0176C62.8804 28.0176 62.8804 28.158 62.7726 28.158H61.9333C61.9059 28.1616 61.8781 28.1569 61.8535 28.1444C61.8288 28.1319 61.8083 28.1122 61.7947 28.0878L61.4713 26.9724C61.4299 26.8458 61.347 26.7374 61.2364 26.665C61.1258 26.5927 60.994 26.5608 60.863 26.5746H60.4703V28.08C60.4703 28.08 60.4703 28.1502 60.3317 28.1502H60.3009ZM65.2828 28.2204C64.0354 28.2204 63.5041 27.5028 63.5041 26.2392C63.488 25.99 63.5226 25.7401 63.6056 25.505C63.6887 25.2699 63.8185 25.0545 63.9871 24.8722C64.1556 24.69 64.3592 24.5447 64.5854 24.4454C64.8117 24.346 65.0555 24.2948 65.3021 24.2948C65.5486 24.2948 65.7925 24.346 66.0187 24.4454C66.245 24.5447 66.4486 24.69 66.6171 24.8722C66.7856 25.0545 66.9155 25.2699 66.9986 25.505C67.0816 25.7401 67.1161 25.99 67.1 26.2392C67.1308 27.5106 66.5225 28.2282 65.3136 28.2282L65.2828 28.2204ZM65.2828 25.155C64.7823 25.155 64.5128 25.584 64.5128 26.2392C64.5128 26.8944 64.7284 27.3546 65.2212 27.3546C65.714 27.3546 65.9912 26.8866 65.9912 26.2704C65.9912 25.6542 65.8449 25.1628 65.3521 25.1628L65.2828 25.155ZM68.8402 28.1502H68.1318C68.024 28.1502 67.9932 28.1502 67.9932 28.0098V24.5154C67.9932 24.4062 67.9932 24.375 68.1318 24.375H68.8402C68.9788 24.375 69.0173 24.375 69.0173 24.5154V25.74H70.334V24.5154C70.334 24.4062 70.334 24.375 70.4726 24.375H71.181C71.3196 24.375 71.3196 24.375 71.3196 24.5154V28.0176C71.3196 28.158 71.3196 28.158 71.181 28.158H70.4726C70.3648 28.158 70.334 28.158 70.334 28.0176V26.5746H69.0866V28.0176C69.0866 28.1268 69.0558 28.158 68.9095 28.158L68.8402 28.1502ZM75.0002 27.105C75.1388 27.105 75.1388 27.105 75.1773 27.1752L75.3929 27.7134V27.9318C74.9867 28.1435 74.5325 28.243 74.0762 28.2204C72.9751 28.2204 72.3668 27.573 72.3668 26.2392C72.3336 25.9845 72.355 25.7255 72.4295 25.4798C72.5041 25.2342 72.6301 25.0079 72.799 24.8161C72.9678 24.6243 73.1755 24.4717 73.4079 24.3686C73.6403 24.2656 73.8919 24.2146 74.1455 24.219C74.5398 24.2074 74.9309 24.2931 75.2851 24.4686C75.4237 24.5388 75.4237 24.5388 75.3544 24.687L75.1388 25.2252C75.1388 25.3344 75.031 25.3344 74.9232 25.2954C74.6941 25.2179 74.4559 25.1707 74.2148 25.155C73.645 25.155 73.4448 25.662 73.4448 26.2392C73.4448 26.8164 73.6219 27.2454 74.261 27.2454C74.5255 27.2699 74.7916 27.2214 75.031 27.105H75.0002ZM78.0263 25.194V28.0098C78.0263 28.1502 78.0263 28.1502 77.8492 28.1502H77.1408C77.0022 28.1502 76.9637 28.1502 76.9637 28.0098V25.2018H76.032C75.9242 25.2018 75.8934 25.2018 75.8934 25.0614V24.5232C75.8934 24.3828 75.8934 24.3438 76.032 24.3438H79.112C79.2198 24.3438 79.2506 24.3438 79.2506 24.5232V25.0614C79.2506 25.1706 79.2506 25.2018 79.112 25.2018L78.0263 25.194ZM80.9138 29.484C80.9138 29.5932 80.9138 29.6244 80.7752 29.6244H80.0052C79.8974 29.6244 79.8666 29.6244 79.8666 29.484V24.804C79.8666 24.6948 79.8666 24.6636 80.0052 24.5856C80.4942 24.3861 81.0178 24.2879 81.5452 24.297C82.9004 24.297 83.3624 25.1628 83.3624 26.2782C83.3624 27.3936 82.8311 28.2594 81.6915 28.2594C81.4182 28.2523 81.1456 28.2289 80.8753 28.1892L80.9138 29.484ZM81.4451 25.155C81.2665 25.1609 81.0886 25.1844 80.9138 25.2252V27.222C81.1433 27.2912 81.3835 27.3177 81.6222 27.3C82.0842 27.3 82.4384 27.0114 82.4384 26.2158C82.4384 25.4202 82.0534 25.1628 81.5144 25.1628L81.4451 25.155ZM86.3269 28.7586C86.2615 29.0446 86.0959 29.2969 85.8611 29.4689C85.6255 29.641 85.3375 29.7211 85.0487 29.6946C84.8093 29.6882 84.5713 29.6516 84.3403 29.5854C84.2325 29.5854 84.2017 29.5152 84.2325 29.445L84.3711 28.8678C84.3711 28.7586 84.4404 28.7586 84.5097 28.7976C84.6275 28.8136 84.7461 28.8136 84.8639 28.7976C84.9317 28.8111 85.0018 28.8106 85.0695 28.7962C85.1373 28.7817 85.2012 28.7537 85.2582 28.7136C85.3144 28.6736 85.3629 28.6225 85.3999 28.5632C85.4368 28.504 85.4615 28.4377 85.4722 28.3686L85.6108 27.9708H85.4722C85.2566 27.9708 85.1873 27.9708 85.118 27.6432L84.0477 24.4296C84.0477 24.3204 84.0477 24.2892 84.1555 24.2892H84.9717C85.1103 24.2892 85.1488 24.2892 85.1873 24.4296L85.58 25.8726L85.9034 27.1362L86.2576 25.8414L86.6811 24.4374C86.6811 24.3282 86.7504 24.297 86.8967 24.297H87.7822C87.8515 24.297 87.89 24.297 87.8515 24.4062L86.3885 28.7352L86.3269 28.7586ZM89.353 28.1424H88.583C88.5137 28.1424 88.4444 28.1424 88.4444 28.0332V24.4764C88.4444 24.3672 88.4444 24.3672 88.583 24.3672H89.353C89.4608 24.3672 89.4916 24.3672 89.4916 24.4764V25.74H89.815C89.9552 25.7504 90.0946 25.7086 90.2062 25.6225C90.3186 25.5363 90.3956 25.4117 90.4233 25.272L90.6697 24.492C90.6697 24.4218 90.739 24.3828 90.8083 24.3828H91.5783C91.6861 24.3828 91.6861 24.453 91.6476 24.5232L91.4012 25.4592C91.3789 25.6012 91.3212 25.7351 91.2334 25.8483C91.1456 25.9616 91.0316 26.0504 90.9007 26.1066C91.0555 26.1384 91.1964 26.2176 91.3058 26.3333C91.4143 26.4491 91.4852 26.596 91.509 26.754L91.8632 28.0176C91.8632 28.0176 91.8632 28.158 91.7554 28.158H90.9392C90.9215 28.1509 90.9061 28.1404 90.893 28.127C90.88 28.1136 90.8692 28.0977 90.8622 28.08L90.5388 26.9646C90.4973 26.838 90.4149 26.7296 90.304 26.6572C90.1931 26.5849 90.0614 26.553 89.9305 26.5668H89.5378V28.08C89.5209 28.1012 89.5001 28.1184 89.4762 28.1306C89.4524 28.1427 89.4262 28.1494 89.3992 28.1502L89.353 28.1424ZM96.1521 27.3H96.4755C96.6911 27.3 96.7219 27.4404 96.7219 27.5886L96.6526 29.1486C96.6557 29.1636 96.6542 29.179 96.6503 29.1935C96.6457 29.2081 96.638 29.2213 96.6272 29.232C96.6164 29.2428 96.6034 29.2507 96.5895 29.2553C96.5749 29.2597 96.5595 29.2606 96.5448 29.2578H95.9057C95.8911 29.2606 95.8757 29.2597 95.8611 29.2553C95.8472 29.2507 95.8341 29.2428 95.8233 29.232C95.8126 29.2213 95.8049 29.2081 95.8003 29.1935C95.7964 29.179 95.7949 29.1636 95.7979 29.1486V28.1424H93.1722C93.1145 28.1502 93.0567 28.1443 93.0013 28.1255C92.9466 28.1066 92.8966 28.0753 92.8558 28.0338C92.815 27.9923 92.7842 27.9418 92.7657 27.8863C92.7472 27.8308 92.741 27.7716 92.7487 27.7134V24.5154C92.7487 24.4062 92.7487 24.375 92.8873 24.375H93.6573C93.7959 24.375 93.7959 24.375 93.7959 24.5154V27.3H95.1511V24.5154C95.1511 24.4062 95.1511 24.375 95.2897 24.375H96.0597C96.1675 24.375 96.1983 24.375 96.1983 24.5154V27.3H96.1521ZM97.5073 24.4842C97.5073 24.414 97.5073 24.375 97.6459 24.375H98.4159C98.5237 24.375 98.5545 24.375 98.5545 24.4842V26.6838C98.9087 26.0676 98.978 25.9662 99.1243 25.7478C99.2706 25.5294 99.517 25.1004 99.8327 24.5934C99.9713 24.414 100.048 24.3438 100.256 24.3438H100.61C100.857 24.3438 101.003 24.414 101.003 24.7416V28.0254C101.003 28.1346 101.003 28.1346 100.865 28.1346H100.095C99.9867 28.1346 99.9559 28.1346 99.9559 28.0254V25.8492C99.7403 26.1768 99.5632 26.5356 99.3476 26.8554C99.132 27.1752 98.9241 27.573 98.67 27.9006C98.4159 28.2282 98.4544 28.1502 98.2465 28.1502H97.9231C97.5997 28.1502 97.5304 28.0098 97.5304 27.7524L97.5073 24.4842ZM102.127 24.4842C102.127 24.414 102.127 24.375 102.266 24.375H103.036C103.144 24.375 103.175 24.375 103.175 24.4842V26.6838C103.529 26.0676 103.598 25.9662 103.744 25.7478C103.891 25.5294 104.137 25.1004 104.453 24.5934C104.591 24.414 104.668 24.3438 104.876 24.3438H105.23C105.477 24.3438 105.623 24.414 105.623 24.7416V28.0254C105.623 28.1346 105.623 28.1346 105.485 28.1346H104.715C104.607 28.1346 104.576 28.1346 104.576 28.0254V25.8492C104.36 26.1768 104.183 26.5356 103.968 26.8554C103.752 27.1752 103.544 27.573 103.29 27.9006C103.036 28.2282 103.074 28.1502 102.867 28.1502H102.543C102.22 28.1502 102.15 28.0098 102.15 27.7524L102.127 24.4842ZM108.926 24.4842C108.926 24.414 108.926 24.375 109.065 24.375H109.835C109.943 24.375 109.974 24.375 109.974 24.4842V26.6838C110.328 26.0676 110.397 25.9662 110.543 25.7478C110.69 25.5294 110.936 25.1004 111.252 24.5934C111.39 24.414 111.467 24.3438 111.675 24.3438H112.03C112.276 24.3438 112.422 24.414 112.422 24.7416V28.0254C112.422 28.1346 112.422 28.1346 112.284 28.1346H111.514C111.406 28.1346 111.375 28.1346 111.375 28.0254V25.8492C111.159 26.1768 110.982 26.5356 110.767 26.8554C110.551 27.1752 110.343 27.573 110.089 27.9006C109.835 28.2282 109.874 28.1502 109.666 28.1502H109.342C109.019 28.1502 108.95 28.0098 108.95 27.7524L108.926 24.4842ZM116.727 29.4996C116.727 29.6088 116.727 29.64 116.588 29.64H115.818C115.71 29.64 115.679 29.64 115.679 29.4996V24.8196C115.679 24.7104 115.679 24.6792 115.818 24.6012C116.307 24.4017 116.83 24.3035 117.358 24.3126C118.713 24.3126 119.175 25.1784 119.175 26.2938C119.175 27.4092 118.644 28.275 117.504 28.275C117.231 28.2679 116.958 28.2445 116.688 28.2048L116.727 29.4996ZM117.258 25.1706C117.079 25.1765 116.901 25.2 116.727 25.2408V27.222C116.924 27.2773 117.13 27.301 117.335 27.2922C117.797 27.2922 118.151 27.0036 118.151 26.208C118.151 25.4124 117.774 25.1628 117.235 25.1628L117.258 25.1706ZM123.171 27.9864C122.682 28.1811 122.157 28.2662 121.631 28.236C120.353 28.236 119.961 27.6978 119.961 27.0426C119.961 26.3874 120.461 25.7478 121.454 25.7478H122.224V25.6386C122.224 25.389 122.117 25.1316 121.616 25.1316C121.281 25.1407 120.948 25.1878 120.623 25.272C120.484 25.272 120.484 25.272 120.446 25.1628L120.338 24.6558C120.338 24.5466 120.338 24.5154 120.407 24.4764C120.855 24.3311 121.323 24.2575 121.793 24.258C122.825 24.258 123.287 24.726 123.287 25.5918V27.69C123.298 27.7469 123.291 27.8059 123.265 27.858C123.241 27.9101 123.199 27.9525 123.148 27.9786L123.171 27.9864ZM122.278 26.4264H121.662C121.416 26.4264 121.023 26.4264 121.023 26.9334C121.023 27.261 121.27 27.4014 121.631 27.4014C121.838 27.3917 122.043 27.355 122.24 27.2922V26.4264H122.278ZM124.627 25.311H124.45L124.273 24.843C124.273 24.7338 124.203 24.7026 124.342 24.6246C124.778 24.4289 125.25 24.3304 125.728 24.336C126.621 24.336 127.191 24.6636 127.191 25.3422C127.179 25.5143 127.123 25.6803 127.03 25.8249C126.938 25.9694 126.81 26.0878 126.66 26.169C126.843 26.2266 127.003 26.3413 127.118 26.4969C127.232 26.6524 127.296 26.8407 127.299 27.0348C127.299 27.8616 126.529 28.2594 125.628 28.2594C125.141 28.2706 124.658 28.1859 124.203 28.0098C124.095 28.0098 124.095 27.9006 124.134 27.8304L124.311 27.2922C124.311 27.222 124.38 27.183 124.488 27.222C124.822 27.3282 125.17 27.3886 125.52 27.4014C126.09 27.4014 126.29 27.1518 126.29 26.9334C126.29 26.715 126.044 26.5356 125.474 26.5356C125.297 26.5356 125.189 26.4654 125.189 26.286V26.0676C125.189 25.8882 125.297 25.8492 125.474 25.8492C125.936 25.8492 126.151 25.7088 126.151 25.4514C126.151 25.194 125.905 25.1238 125.543 25.1238C125.238 25.141 124.938 25.2014 124.65 25.3032L124.627 25.311ZM131.002 26.091C131.184 26.1591 131.34 26.2828 131.449 26.445C131.558 26.6072 131.614 26.7997 131.611 26.9958C131.602 27.1683 131.559 27.3372 131.484 27.4921C131.408 27.647 131.303 27.7846 131.173 27.8964C131.042 28.0083 130.891 28.0919 130.728 28.1423C130.566 28.1927 130.394 28.2087 130.225 28.1892H128.592C128.269 28.1892 128.169 28.0488 128.169 27.8304V24.765C128.169 24.5154 128.238 24.3672 128.561 24.3672H130.232C130.91 24.3672 131.441 24.6168 131.441 25.3422C131.444 25.4958 131.4 25.6465 131.318 25.7756C131.236 25.9046 131.118 26.0063 130.979 26.0676L131.002 26.091ZM129.131 25.74H129.986C130.029 25.7436 130.073 25.7375 130.114 25.7223C130.155 25.7071 130.192 25.6831 130.222 25.6519C130.253 25.6208 130.277 25.5832 130.292 25.5418C130.307 25.5005 130.313 25.4564 130.309 25.4124C130.313 25.3737 130.308 25.3345 130.295 25.2979C130.282 25.2612 130.261 25.228 130.234 25.2004C130.207 25.1728 130.174 25.1517 130.138 25.1384C130.101 25.1252 130.063 25.1203 130.024 25.1238H129.131V25.74ZM130.055 26.4576H129.131V27.3234H130.024C130.084 27.3302 130.143 27.324 130.2 27.3053C130.256 27.2867 130.308 27.256 130.352 27.2153C130.396 27.1747 130.43 27.125 130.453 27.0697C130.476 27.0143 130.488 26.9546 130.486 26.8944C130.523 26.6084 130.381 26.4654 130.063 26.4654L130.055 26.4576ZM132.442 24.4764C132.442 24.4062 132.442 24.3672 132.581 24.3672H133.351C133.459 24.3672 133.489 24.3672 133.489 24.4764V26.676C133.844 26.0598 133.913 25.9584 134.059 25.74C134.206 25.5216 134.452 25.0926 134.768 24.5856C134.906 24.4062 134.983 24.336 135.191 24.336H135.545C135.792 24.336 135.938 24.4062 135.938 24.7338V28.0176C135.938 28.1268 135.938 28.1268 135.799 28.1268H135.029C134.922 28.1268 134.891 28.1268 134.891 28.0176V25.8492C134.675 26.1768 134.498 26.5356 134.283 26.8554C134.067 27.1752 133.859 27.573 133.605 27.9006C133.351 28.2282 133.389 28.1502 133.181 28.1502H132.858C132.535 28.1502 132.465 28.0098 132.465 27.7524V24.4764H132.442ZM138.849 25.194V28.0098C138.849 28.1502 138.849 28.1502 138.672 28.1502H137.963C137.825 28.1502 137.786 28.1502 137.786 28.0098V25.2018H136.793C136.685 25.2018 136.654 25.2018 136.654 25.0614V24.5232C136.654 24.3828 136.654 24.3438 136.793 24.3438H139.873C139.981 24.3438 140.011 24.3438 140.011 24.5232V25.0614C140.011 25.1706 140.011 25.2018 139.873 25.2018H138.841L138.849 25.194ZM140.697 24.4764C140.697 24.4062 140.697 24.3672 140.835 24.3672H141.605C141.713 24.3672 141.744 24.3672 141.744 24.4764V26.676C142.098 26.0598 142.167 25.9584 142.314 25.74C142.46 25.5216 142.706 25.0926 143.022 24.5856C143.161 24.4062 143.238 24.336 143.446 24.336H143.8C144.046 24.336 144.192 24.4062 144.192 24.7338V28.0176C144.192 28.1268 144.192 28.1268 144.054 28.1268H143.284C143.176 28.1268 143.145 28.1268 143.145 28.0176V25.8492C142.93 26.1768 142.753 26.5356 142.537 26.8554C142.321 27.1752 142.113 27.573 141.859 27.9006C141.605 28.2282 141.644 28.1502 141.436 28.1502H141.112C140.789 28.1502 140.72 28.0098 140.72 27.7524L140.697 24.4764ZM147.573 26.715H147.072C146.749 26.715 146.541 26.7852 146.433 27.144C146.325 27.5028 146.256 27.7212 146.187 28.0098C146.187 28.1502 146.048 28.1502 145.94 28.1502H145.232C145.163 28.1502 145.124 28.1502 145.124 28.08V28.0098L145.448 27.0348C145.471 26.8969 145.535 26.7691 145.629 26.6667C145.723 26.5642 145.845 26.4916 145.979 26.4576C145.78 26.4033 145.607 26.2795 145.49 26.1081C145.373 25.9368 145.32 25.729 145.34 25.5216C145.344 25.3608 145.381 25.2025 145.449 25.0572C145.518 24.9118 145.615 24.7824 145.736 24.6774C145.856 24.5724 145.997 24.494 146.148 24.4473C146.3 24.4006 146.46 24.3866 146.618 24.4062H148.22C148.466 24.4062 148.612 24.5154 148.612 24.6948V28.08C148.612 28.1502 148.612 28.1892 148.474 28.1892H147.704C147.565 28.1892 147.565 28.1892 147.565 28.08L147.634 26.7072L147.573 26.715ZM146.803 26.0286H147.573V25.1628H146.803C146.742 25.1564 146.68 25.1625 146.622 25.1808C146.563 25.1991 146.509 25.2291 146.462 25.2692C146.415 25.3093 146.377 25.3585 146.35 25.414C146.322 25.4695 146.306 25.5299 146.302 25.5918C146.302 25.8492 146.51 26.0286 146.864 26.0286H146.803ZM57.7522 10.374C57.8908 10.374 57.9293 10.4442 57.8908 10.5924L55.3652 17.6592C55.2437 18.19 54.9327 18.6566 54.4921 18.9691C54.0514 19.2816 53.5122 19.4179 52.9782 19.3518C52.5786 19.3556 52.181 19.2951 51.8001 19.1724C51.5845 19.1022 51.5537 19.0632 51.5845 18.8838L51.7616 17.8386C51.7616 17.6592 51.8694 17.6592 52.0465 17.6982C52.2721 17.7145 52.4985 17.7145 52.7241 17.6982C53.2554 17.6982 53.5403 17.628 53.7174 17.082L53.8945 16.5438H53.5942C53.2015 16.5438 53.0937 16.4736 52.9166 16.0056L50.7452 10.5456C50.6759 10.3662 50.7452 10.296 50.9223 10.296H52.3622C52.6471 10.296 52.7164 10.296 52.7549 10.5456L53.6789 13.0728L54.3565 15.132H54.4258L55.0649 12.9714L55.8349 10.5534C55.9042 10.335 55.9735 10.3038 56.2276 10.3038L57.7522 10.374ZM60.1007 21.4812C60.1007 21.6606 60.1007 21.6996 59.8543 21.6996H58.5838C58.4067 21.6996 58.3374 21.6996 58.3374 21.4812V13.3302C58.3276 13.2454 58.3466 13.1597 58.3914 13.0874C58.4362 13.015 58.5041 12.9603 58.5838 12.9324C59.443 12.5847 60.3615 12.4124 61.2865 12.4254C63.5965 12.4254 64.3665 13.9386 64.3665 15.8184C64.3665 17.6982 63.4425 19.2114 61.479 19.2114C61.0133 19.2163 60.5486 19.1692 60.093 19.071L60.1007 21.4812ZM61.0786 14.04C60.765 14.0339 60.4526 14.0813 60.1546 14.1804V17.55C60.4914 17.6404 60.8381 17.6876 61.1864 17.6904C62.0026 17.6904 62.5724 17.1834 62.5724 15.8184C62.5724 14.4534 61.9641 14.04 61.0786 14.04ZM71.0886 18.837C70.2622 19.1728 69.3762 19.3322 68.486 19.305C66.2761 19.305 65.5985 18.4002 65.5985 17.2146C65.5985 16.029 66.4532 14.976 68.2011 14.976H69.5563V14.7966C69.5563 14.3286 69.3792 13.9308 68.486 13.9308C67.8955 13.9402 67.3082 14.0241 66.7381 14.1804C66.5225 14.1804 66.4532 14.1804 66.4147 14.001L66.2222 13.1196C66.2222 12.9402 66.2222 12.87 66.3608 12.831C67.1319 12.5807 67.9382 12.4595 68.7478 12.4722C70.5265 12.4722 71.3504 13.2522 71.3504 14.8122V18.4158C71.3501 18.5019 71.3242 18.5858 71.2761 18.6568C71.2281 18.7277 71.1601 18.7824 71.0809 18.8136L71.0886 18.837ZM69.5486 16.2006H68.5861C68.1241 16.2006 67.485 16.2708 67.485 17.0664C67.485 17.6436 67.9085 17.8464 68.5553 17.8464C68.9068 17.8458 69.2556 17.7851 69.5871 17.667V16.185L69.5486 16.2006ZM78.0571 12.6282C78.6269 12.6282 78.8271 12.8778 78.8271 13.4082V18.9618C78.8271 19.1412 78.7578 19.2114 78.5422 19.2114H77.2948C77.0792 19.2114 77.0099 19.1412 77.0099 18.9618V14.04H75.4622V14.6874C75.2851 17.6124 75.0695 18.7668 73.1522 19.3674C72.9366 19.4376 72.8288 19.3674 72.798 19.227L72.4746 18.3612C72.4053 18.1428 72.4053 18.0726 72.6132 17.9634C73.4679 17.5656 73.645 17.1834 73.8221 14.6484L73.8606 13.26C73.8606 12.7218 74.0762 12.5424 74.6306 12.5424H78.0879L78.0571 12.6282ZM81.2603 19.1568C80.6212 19.1568 80.4903 18.8682 80.4903 18.4392V12.831C80.4903 12.6516 80.5596 12.5814 80.7752 12.5814H81.9841C82.2305 12.5814 82.269 12.5814 82.269 12.831V14.6328H83.809C86.2268 14.6328 86.4424 16.1928 86.4424 16.8714C86.4294 17.1795 86.357 17.4819 86.2284 17.7614C86.0998 18.0409 85.9173 18.2919 85.6932 18.4999C85.4684 18.708 85.205 18.8689 84.9186 18.9736C84.6329 19.0784 84.3288 19.1247 84.0246 19.11H81.2834L81.2603 19.1568ZM83.7551 16.0368H82.2921V17.7294H83.7166C83.8321 17.7432 83.9492 17.7303 84.0593 17.6916C84.1694 17.653 84.2687 17.5897 84.3511 17.5064C84.4335 17.423 84.4959 17.3219 84.5344 17.2106C84.5721 17.0993 84.5852 16.9806 84.5713 16.8636C84.5783 16.7533 84.5613 16.6427 84.5228 16.5393C84.4843 16.4359 84.4243 16.342 84.3473 16.2638C84.2703 16.1856 84.1771 16.125 84.0755 16.0858C83.973 16.0467 83.8637 16.03 83.7551 16.0368ZM92.2251 17.3706C92.4407 17.3004 92.4715 17.3004 92.5485 17.4798L92.9027 18.4158C92.972 18.5952 92.972 18.6654 92.8334 18.7746C92.1158 19.1322 91.3227 19.3062 90.5234 19.2816C88.5984 19.2816 87.5666 18.1272 87.5666 15.8886C87.5666 13.65 88.7447 12.4254 90.6466 12.4254C91.3219 12.4181 91.9903 12.5647 92.6024 12.8544C92.818 12.9636 92.818 12.9948 92.741 13.2132L92.4022 14.196C92.3329 14.3754 92.2251 14.3754 92.0095 14.3052C91.6199 14.1691 91.2126 14.0953 90.8006 14.0868C89.8381 14.0868 89.4454 14.9526 89.4454 15.9276C89.4454 16.9026 89.7303 17.6982 90.8314 17.6982C91.3065 17.6568 91.7732 17.5465 92.2174 17.3706H92.2251ZM95.7825 19.1412H94.4273C94.2887 19.1412 94.2117 19.1412 94.2117 18.9618V12.792C94.2117 12.6126 94.281 12.6126 94.4273 12.6126H95.7825C95.9596 12.6126 95.9981 12.6126 95.9981 12.792V14.9526H96.5679C96.8105 14.9678 97.0492 14.8917 97.2401 14.7392C97.4303 14.5866 97.5582 14.3682 97.5997 14.1258L98.0232 12.753C98.0325 12.7021 98.0594 12.6561 98.0987 12.6233C98.138 12.5904 98.188 12.5728 98.2388 12.5736H99.594C99.621 12.5687 99.6487 12.5719 99.6741 12.583C99.6995 12.594 99.7203 12.6124 99.7357 12.6358C99.7504 12.6592 99.758 12.6866 99.7573 12.7144C99.7573 12.7422 99.748 12.7692 99.7326 12.792L99.2706 14.4144C99.2237 14.6661 99.1213 14.9036 98.9703 15.109C98.8202 15.3144 98.6246 15.4823 98.4005 15.6C98.6724 15.663 98.9187 15.8064 99.1097 16.012C99.2999 16.2176 99.4262 16.4761 99.4708 16.7544L100.11 18.915C100.11 18.9852 100.11 19.1334 99.9328 19.1334H98.5083C98.4614 19.1428 98.4129 19.1334 98.3728 19.1072C98.3328 19.0811 98.3035 19.0402 98.2927 18.993L97.7229 17.082C97.6583 16.8607 97.5204 16.6686 97.3326 16.5379C97.1447 16.4073 96.9183 16.346 96.6911 16.3644H95.9827V18.9618C95.975 19.1022 95.9365 19.1412 95.7594 19.1412H95.7825ZM101.411 12.792C101.411 12.6516 101.481 12.6126 101.627 12.6126H102.944C103.121 12.6126 103.19 12.6126 103.19 12.792V16.614H103.259C103.898 15.5298 104.029 15.3504 104.222 15.054C104.545 14.547 104.899 13.9386 105.431 13.0338C105.505 12.8971 105.618 12.7861 105.756 12.7151C105.893 12.6442 106.047 12.6167 106.201 12.636H106.809C107.271 12.636 107.487 12.7764 107.487 13.3224V18.9852C107.487 19.1646 107.417 19.1646 107.271 19.1646H105.954C105.777 19.1646 105.708 19.1646 105.708 18.9852V15.21H105.639L104.568 16.9416L103.382 18.72C103.167 19.0788 103.028 19.1178 102.612 19.1178H102.043C101.473 19.1178 101.365 18.8682 101.365 18.4314L101.411 12.792ZM109.211 12.792C109.211 12.6516 109.281 12.6126 109.427 12.6126H110.744C110.921 12.6126 110.99 12.6126 110.99 12.792V16.614H111.059C111.698 15.5298 111.829 15.3504 112.022 15.054C112.345 14.547 112.699 13.9386 113.231 13.0338C113.305 12.8971 113.418 12.7861 113.556 12.7151C113.693 12.6442 113.848 12.6167 114.001 12.636H114.609C115.071 12.636 115.287 12.7764 115.287 13.3224V18.9852C115.287 19.1646 115.217 19.1646 115.071 19.1646H113.754C113.577 19.1646 113.508 19.1646 113.508 18.9852V15.21H113.439L112.368 16.9416L111.183 18.72C110.967 19.0788 110.828 19.1178 110.413 19.1178H109.843C109.273 19.1178 109.165 18.8682 109.165 18.4314V12.792H109.211ZM109.92 10.5534C109.92 10.5534 109.812 10.413 109.92 10.2648L110.42 9.79684C110.597 9.65644 110.597 9.72664 110.744 9.79684C110.93 10.0381 111.163 10.2389 111.427 10.3877C111.692 10.5364 111.983 10.6299 112.284 10.6626C112.676 10.6626 113.054 10.5534 113.824 9.79684C114.001 9.65644 114.001 9.68764 114.109 9.79684L114.571 10.1946C114.748 10.335 114.678 10.413 114.571 10.4832C114.315 10.9115 113.962 11.272 113.542 11.5351C113.121 11.7982 112.646 11.9563 112.153 11.9964C111.683 11.9565 111.229 11.805 110.828 11.5543C110.426 11.3036 110.089 10.9608 109.843 10.5534H109.92ZM119.783 18.3534V11.2788C119.783 10.7016 119.961 10.413 120.553 10.413H125.358C125.535 10.413 125.574 10.4832 125.574 10.7016V11.817C125.574 11.9964 125.574 12.0666 125.358 12.0666H121.662V13.6266H123.441C126.359 13.6266 126.575 15.6078 126.575 16.4424C126.566 16.8215 126.482 17.195 126.327 17.5402C126.172 17.8854 125.95 18.1953 125.674 18.4512C125.398 18.707 125.073 18.9035 124.72 19.0288C124.366 19.1541 123.991 19.2056 123.618 19.1802H120.538C119.907 19.1412 119.768 18.9228 119.768 18.3846L119.783 18.3534ZM123.449 15.1398H121.662V17.4798H123.441C123.598 17.4901 123.756 17.4663 123.904 17.41C124.051 17.3537 124.185 17.2661 124.296 17.1532C124.408 17.0402 124.494 16.9045 124.551 16.7551C124.606 16.6056 124.629 16.4459 124.619 16.2864C124.624 16.1311 124.597 15.9763 124.537 15.8328C124.479 15.6892 124.39 15.5601 124.278 15.4543C124.166 15.3486 124.032 15.2685 123.886 15.2196C123.74 15.1707 123.586 15.1542 123.433 15.171L123.449 15.1398ZM133.174 18.7824C132.348 19.1182 131.461 19.2776 130.571 19.2504C128.361 19.2504 127.684 18.3456 127.684 17.16C127.684 15.9744 128.538 14.9214 130.286 14.9214H131.641V14.742C131.641 14.274 131.464 13.8762 130.571 13.8762C129.981 13.8856 129.393 13.9695 128.823 14.1258C128.608 14.1258 128.538 14.1258 128.5 13.9464L128.323 13.0806C128.323 12.9012 128.323 12.831 128.461 12.792C129.232 12.5417 130.039 12.4205 130.848 12.4332C132.627 12.4332 133.451 13.2132 133.451 14.7732V18.3768C133.457 18.4733 133.43 18.5689 133.375 18.6481C133.322 18.7274 133.242 18.7857 133.151 18.8136L133.174 18.7824ZM131.634 16.146H130.671C130.209 16.146 129.57 16.2162 129.57 17.0118C129.57 17.589 129.994 17.7918 130.64 17.7918C130.992 17.7912 131.34 17.7305 131.672 17.6124V16.1304L131.634 16.146ZM136.654 19.1022H135.445C135.268 19.1022 135.16 19.032 135.16 18.8526V12.831C135.16 12.6516 135.23 12.5814 135.445 12.5814H136.654C136.901 12.5814 136.939 12.5814 136.939 12.831V14.9604H139.249V12.831C139.249 12.6516 139.318 12.5814 139.534 12.5814H140.743C140.989 12.5814 141.028 12.5814 141.028 12.831V18.8916C141.028 19.11 141.028 19.1412 140.743 19.1412H139.526C139.349 19.1412 139.241 19.071 139.241 18.8916V16.38H136.931V18.8682C136.931 19.1022 136.854 19.1412 136.646 19.1412L136.654 19.1022ZM144.277 19.1022H142.914C142.776 19.1022 142.699 19.1022 142.699 18.9228V12.792C142.699 12.6126 142.768 12.6126 142.914 12.6126H144.269C144.447 12.6126 144.485 12.6126 144.485 12.792V14.9526H145.055C145.297 14.9678 145.536 14.8917 145.727 14.7392C145.917 14.5866 146.045 14.3682 146.087 14.1258L146.51 12.753C146.519 12.7021 146.546 12.6561 146.586 12.6233C146.625 12.5904 146.675 12.5728 146.726 12.5736H148.081C148.108 12.5687 148.136 12.5719 148.161 12.583C148.186 12.594 148.207 12.6124 148.223 12.6358C148.237 12.6592 148.245 12.6866 148.244 12.7144C148.244 12.7422 148.235 12.7692 148.22 12.792L147.758 14.4144C147.713 14.6646 147.612 14.9012 147.464 15.1065C147.316 15.3118 147.125 15.4805 146.903 15.6C147.175 15.663 147.421 15.8064 147.612 16.012C147.802 16.2176 147.928 16.4761 147.973 16.7544L148.612 18.915C148.612 18.9852 148.612 19.1334 148.435 19.1334H147.011C146.964 19.1428 146.915 19.1334 146.875 19.1072C146.835 19.0811 146.806 19.0402 146.795 18.993L146.225 17.082C146.161 16.8607 146.023 16.6686 145.835 16.5379C145.647 16.4073 145.421 16.346 145.193 16.3644H144.485V18.9618C144.477 19.1022 144.408 19.1412 144.262 19.1412L144.277 19.1022Z" fill="white"/>
<path d="M14.8147 28.3764C13.3933 28.3303 12.0443 27.7303 11.0488 26.7015C10.0533 25.6728 9.48801 24.2945 9.47091 22.854V11.7C9.46883 11.344 9.60481 11.0015 9.84967 10.7461C10.0945 10.4908 10.4286 10.3432 10.7799 10.335C9.82557 10.3318 8.88887 10.5961 8.07352 11.0985C7.25819 11.6009 6.59591 12.322 6.15991 13.182V23.0022C7.0152 24.5843 8.26378 25.9124 9.78184 26.8551C11.3 27.7977 13.0349 28.3222 14.8147 28.3764Z" fill="white"/>
<path d="M10.7799 10.335H14.0524C14.467 10.3062 14.8553 10.119 15.1389 9.81141C15.4225 9.5037 15.5802 9.09849 15.5802 8.67752C15.5802 8.25655 15.4225 7.85134 15.1389 7.54367C14.8553 7.236 14.467 7.04885 14.0524 7.02002H10.7799C9.55461 7.02002 8.37951 7.51309 7.51308 8.39079C6.64666 9.26845 6.15991 10.4588 6.15991 11.7V13.2132C6.59027 12.3462 7.25042 11.6178 8.06643 11.1095C8.8824 10.6012 9.82195 10.333 10.7799 10.335Z" fill="white"/>
<path d="M36.0051 12.9324C35.7123 11.2827 34.8593 9.78871 33.5937 8.70895C32.3281 7.62925 30.7297 7.03178 29.0751 7.02002H20.7899V22.854C20.7596 24.3457 20.147 25.7644 19.0862 26.7994C18.0255 27.8344 16.603 28.4015 15.1304 28.3764H14.8455C13.0555 28.3284 11.3097 27.8026 9.78469 26.8521C8.25955 25.9016 7.00919 24.5601 6.15991 22.9632C6.22241 25.315 7.19448 27.5477 8.86669 29.1804C10.5388 30.813 12.7773 31.7147 15.0996 31.6914C17.4449 31.7122 19.7027 30.7905 21.3783 29.1282C23.054 27.4658 24.0109 25.1985 24.0393 22.8228V10.3428H29.3831C31.8286 10.3576 34.1841 11.2788 36.0051 12.9324Z" fill="white"/>
<path d="M38.4999 23.1114C38.4898 21.9195 38.2347 20.7428 37.7508 19.6564C37.2669 18.57 36.5648 17.5976 35.6894 16.8012C35.9765 16.0042 36.12 15.1614 36.1129 14.313C36.1217 13.8514 36.0752 13.3904 35.9743 12.9402C34.1476 11.2697 31.7747 10.3443 29.3138 10.3428H29.1367C30.1375 10.3913 31.0802 10.8332 31.7646 11.5745C32.449 12.3158 32.8211 13.2982 32.8019 14.313C32.7959 14.5743 32.7727 14.8348 32.7326 15.093C32.6334 15.6058 32.4401 16.0953 32.1628 16.536C32.0374 16.6935 31.9473 16.8769 31.8988 17.0732C31.8504 17.2696 31.8446 17.4743 31.8819 17.6731C31.9193 17.872 31.9989 18.0602 32.1152 18.2248C32.2315 18.3894 32.3817 18.5265 32.5555 18.6264C33.0566 18.8792 33.5061 19.226 33.8799 19.6482C34.76 20.6234 35.244 21.8993 35.2351 23.2206C35.258 24.4719 34.8232 25.6876 34.0143 26.6338C33.2055 27.5798 32.0797 28.1894 30.8538 28.3452C32.4879 28.3007 34.0756 27.7845 35.43 26.8574C36.7845 25.9302 37.8495 24.6307 38.4999 23.1114Z" fill="white"/>
<path d="M30.8775 28.3375C30.7008 28.3552 30.5229 28.3552 30.3462 28.3375H25.0024C24.7781 28.3219 24.553 28.3532 24.3412 28.4295C24.1293 28.5057 23.9351 28.6253 23.7708 28.7806C23.6064 28.9361 23.4754 29.1241 23.3858 29.333C23.2962 29.5419 23.25 29.7673 23.25 29.995C23.25 30.2228 23.2962 30.4481 23.3858 30.657C23.4754 30.8659 23.6064 31.0539 23.7708 31.2094C23.9351 31.3648 24.1293 31.4843 24.3412 31.5605C24.553 31.6368 24.7781 31.6681 25.0024 31.6525H30.3077C32.4979 31.6136 34.5851 30.7032 36.1181 29.1182C37.6512 27.5332 38.5069 25.4007 38.5005 23.1817V23.0725C37.8603 24.5969 36.8018 25.9032 35.4506 26.8365C34.0994 27.7697 32.5123 28.2906 30.8775 28.3375Z" fill="white"/>
</svg>
