<svg width="155" height="39" viewBox="0 0 155 39" fill="none" xmlns="http://www.w3.org/2000/svg">
<path d="M29.9254 24.5241L29.2735 19.2568L28.2026 24.5241H26.7173L25.53 19.2568L24.8176 24.5241H22.2055L23.7187 14.0504H26.4193L27.4018 18.6733L28.4401 14.048H31.0546L32.5375 24.5241H29.9254ZM38.9235 14.0504V16.6817H36.2812V18.0313H38.1506V20.665H36.2812V21.9209H38.9235V24.5241H33.6644V14.0504H38.9235ZM40.3483 14.0504H46.1103V16.8949H44.5365V24.5218H41.8918V16.8973H40.3483V14.048V14.0504ZM47.0881 24.5241L49.6723 14.0504H52.7315L55.3156 24.5241H52.7315L52.3147 23.0245H50.089L49.7026 24.5241H47.0881ZM51.8397 20.9392L51.2182 18.2773L50.536 20.9438H51.8421L51.8397 20.9392ZM61.6992 14.0504L63.7782 24.5241H61.1359L60.0067 16.7145H59.7972L58.6401 24.5241H56.028L58.0465 14.0504H61.6992ZM70.1619 14.0504L72.2711 24.5241H69.6287L68.4996 16.7145H68.2901L67.1331 24.5241H64.5209L66.5696 14.0504H70.1619ZM81.0898 14.0504V24.5241H78.4478V19.716L76.0124 24.5241H73.4002V14.0504H76.0124V19.1021L78.6245 14.048H81.0898V14.0504ZM85.6042 14.0504V18.0313H87.5944V14.048H90.2069V24.5241H87.5944V20.6673H85.6042V24.5265H82.9916V14.0527H85.6042V14.0504ZM96.0271 14.0504C96.348 14.0414 96.6673 14.1053 96.9603 14.2376C97.2532 14.3699 97.5128 14.567 97.7197 14.8142C98.1336 15.3344 98.3436 16.0092 98.3436 16.8059C98.3436 17.4479 98.2553 17.9376 98.0755 18.3055C97.8964 18.6429 97.6616 18.8889 97.3632 18.9803C97.822 19.1027 98.2219 19.3851 98.4924 19.777C98.8187 20.2362 98.9652 20.8197 98.9652 21.4921C98.9652 22.4434 98.7582 23.2072 98.3134 23.7298C97.8383 24.2804 97.2144 24.5265 96.3829 24.5265H92.0181V14.0457H96.0271V14.0504ZM94.66 16.3138V17.8158H95.1072C95.4916 17.8158 95.7009 17.5721 95.7009 17.0824C95.7009 16.5599 95.4916 16.3138 95.1072 16.3138H94.66ZM94.66 20.2971V21.8295H95.3428C95.7613 21.8295 95.9969 21.5835 95.9969 21.0633C95.9969 20.8197 95.9388 20.6346 95.8195 20.5127C95.6947 20.3807 95.5234 20.3033 95.3428 20.2971H94.66ZM105.588 14.048V16.684H102.946V18.0337H105.558V20.6673H102.949V21.9233H105.591V24.5265H100.334V14.0527H105.591L105.588 14.048ZM111.588 17.4198C111.377 17.4119 111.168 17.4548 110.976 17.5449C110.785 17.6349 110.618 17.7696 110.489 17.9376C110.249 18.275 110.133 18.7343 110.133 19.2873C110.133 19.8074 110.249 20.2666 110.517 20.6346C110.637 20.805 110.799 20.9421 110.986 21.033C111.174 21.1239 111.381 21.1658 111.588 21.1547C111.884 21.1547 112.093 21.1547 112.24 21.0938C112.417 21.0633 112.566 21.0001 112.684 20.9415V24.5265C112.626 24.5569 112.477 24.5874 112.328 24.6178C112.182 24.6483 111.914 24.6483 111.588 24.6483C110.221 24.6483 109.12 24.1281 108.292 22.9941C107.549 21.9819 107.193 20.7564 107.193 19.2873C107.193 17.8462 107.549 16.6208 108.292 15.6086C109.092 14.5073 110.191 13.9567 111.588 13.9567C111.826 13.9567 112.03 13.9567 112.21 13.9871C112.389 14.048 112.535 14.0809 112.684 14.1089V17.6635C112.568 17.6026 112.417 17.5416 112.328 17.5088C112.087 17.4473 111.838 17.4173 111.588 17.4198ZM114.082 14.048H119.872V16.8973H118.298V24.5241H115.656V16.8973H114.082V14.048ZM124.118 17.9376H125.722C126.464 17.9376 127.088 18.2141 127.561 18.7671C128.097 19.3482 128.336 20.1144 128.336 21.1243C128.336 22.1365 128.097 22.9636 127.591 23.6079C127.371 23.8954 127.088 24.1276 126.764 24.2865C126.439 24.4454 126.082 24.5268 125.722 24.5241H121.475V14.0504H127.563V16.2529H124.118V17.94V17.9376ZM124.118 20.4822V21.9819H124.772C125.217 21.9819 125.424 21.7381 125.424 21.218C125.424 20.9719 125.366 20.7868 125.247 20.665C125.185 20.6024 125.111 20.5536 125.029 20.5221C124.947 20.4906 124.859 20.477 124.772 20.4822H124.118ZM129.168 24.5241L131.752 14.0504H134.778L137.363 24.5241H134.778L134.394 23.0245H132.136L131.749 24.5241H129.165H129.168ZM133.889 20.8806L133.265 18.3383L132.581 20.8806H133.889ZM141.341 14.048V18.0313H143.301V14.048H145.915V24.5241H143.301V20.6673H141.341V24.5265H138.699V14.0527H141.341V14.048ZM150.397 14.048V17.8462L152.211 14.0504H154.912L152.595 18.9194L155 24.5241H152.299L150.4 20.0206V24.5241H147.786V14.0504H150.4L150.397 14.048ZM8.70015 10.92C13.1235 11.084 16.6576 14.7486 16.6855 19.2404C16.6955 21.464 15.8297 23.6011 14.2777 25.1838C12.7257 26.7664 10.6139 27.6658 8.40449 27.685C6.19349 27.6987 4.06725 26.8296 2.49184 25.2682C0.916438 23.7068 0.0203813 21.5804 8.754e-05 19.3552C-0.00975066 17.191 0.809999 15.1065 2.28873 13.5352C3.76746 11.9641 5.79125 11.0273 7.93887 10.92L7.94817 13.303C6.42419 13.4043 4.99598 14.0869 3.95473 15.2115C2.91348 16.3361 2.33759 17.818 2.34448 19.3552C2.35116 20.2517 2.55701 21.1352 2.94695 21.9412C3.33689 22.7472 3.90104 23.4552 4.59807 24.0133L6.86098 18.0149L5.28952 18.0266C5.28952 18.0266 4.97988 17.9634 4.80295 18.111L4.43045 18.4719C4.43045 18.4719 4.40019 17.4831 4.44442 17.3799C4.48865 17.2534 4.61437 16.2623 5.05205 15.7561C5.49439 15.2688 6.19981 15.2009 6.19981 15.2009L11.2285 15.1657L10.5021 15.9272L12.2482 23.8657C12.9045 23.2976 13.4302 22.5925 13.7888 21.7995C14.1474 21.0065 14.3303 20.1444 14.3249 19.2732C14.3109 17.7428 13.7198 16.2749 12.6713 15.1665C11.6228 14.0581 10.195 13.392 8.6769 13.303L8.70015 10.92ZM6.7795 15.8663C6.93082 15.8663 7.05887 15.9834 7.05887 16.1287C7.05887 16.2716 6.93548 16.3911 6.78416 16.3911C6.6305 16.3935 6.50478 16.2763 6.50478 16.1334C6.50478 15.9858 6.62585 15.8686 6.7795 15.8663Z" fill="white"/>
</svg>
