<svg width="155" height="39" viewBox="0 0 155 39" fill="none" xmlns="http://www.w3.org/2000/svg">
<path d="M143.303 18.8055C145.054 18.8055 146.473 17.3895 146.473 15.6427C146.473 13.896 145.054 12.48 143.303 12.48C141.552 12.48 140.133 13.896 140.133 15.6427C140.133 17.3895 141.552 18.8055 143.303 18.8055Z" fill="white"/>
<path d="M108.997 23.0968C107.386 23.0968 106.118 21.8317 106.118 20.1905C106.118 18.5493 107.386 17.2842 108.997 17.2842C110.608 17.2842 111.91 18.5493 111.91 20.1905C111.91 21.8317 110.608 23.0968 108.997 23.0968ZM111.91 17.1987H111.567C110.933 16.0533 109.751 15.4036 108.397 15.4036C106.169 15.4036 104.096 17.4893 104.096 20.1905C104.096 22.8916 106.118 24.9431 108.397 24.9431C109.751 24.9431 110.933 24.2935 111.567 23.1481H111.91V24.7038H113.898V15.6259H111.91V17.1987ZM16.5261 23.0968C14.9153 23.0968 13.6472 21.8317 13.6472 20.1905C13.6472 18.5493 14.9153 17.2842 16.5261 17.2842C18.137 17.2842 19.4394 18.5493 19.4394 20.1905C19.4394 21.8317 18.137 23.0968 16.5261 23.0968ZM19.4394 17.1987H19.0967C18.4626 16.0533 17.2802 15.4036 15.9264 15.4036C13.6986 15.4036 11.625 17.4893 11.625 20.1905C11.625 22.8916 13.6472 24.9431 15.9264 24.9431C17.2802 24.9431 18.4626 24.2935 19.0967 23.1481H19.4394V24.7038H21.4273V15.6259H19.4394V17.1987ZM123.374 19.216H118.713V15.6259H116.725V24.7209H118.713V21.1137H123.374V24.7209H125.362V15.6259H123.374V19.216ZM132.388 20.0708L137.101 15.6259H134.376L130.144 19.7973V15.6259H128.156V24.7209H130.144V20.5324L134.411 24.7209H137.341L132.388 20.0708ZM99.3658 22.9429H96.1612V20.6521H99.3658C100.274 20.6521 100.702 21.1307 100.702 21.7975C100.702 22.4642 100.291 22.9429 99.3658 22.9429ZM99.5885 18.8741H96.144V17.3867H101.988V15.6259H94.1561V24.7209H99.6057C101.474 24.7209 102.742 23.49 102.742 21.8146C102.742 20.1392 101.439 18.8741 99.5885 18.8741ZM75.4255 23.0797C73.7804 23.0797 72.5637 21.8146 72.5637 20.1905C72.5637 18.5493 73.7804 17.2842 75.4255 17.2842C77.0193 17.2842 78.2874 18.5493 78.2874 20.1905C78.2874 21.8146 77.0536 23.0797 75.4255 23.0797ZM75.4255 15.4036C73.0264 15.4036 71.0899 17.0448 70.6615 19.2331H68.9821V15.6259H66.9771V24.7209H68.965V21.0966H70.6444C71.0556 23.3019 73.0264 24.9602 75.4084 24.9602C78.0989 24.9602 80.2753 22.8403 80.2753 20.2076C80.2924 17.5235 78.0989 15.4036 75.4255 15.4036ZM81.0122 17.5064H84.3539V24.7038H86.3417V17.5064H89.6834V15.6259H81.0122V17.5064ZM59.0427 15.6259L55.1355 24.7209H57.2433L60.2766 17.4551L63.3098 24.7209H65.5033L61.5961 15.6259H59.0427ZM39.0268 17.2671C40.9804 17.2671 41.5288 18.7715 41.5288 18.7715H43.6367C43.6367 18.7715 42.797 15.4036 39.0268 15.4036C36.3192 15.4036 34.1943 17.5235 34.1943 20.1905C34.1943 22.8745 36.3192 24.9773 39.0268 24.9773C42.797 24.9773 43.6367 21.6094 43.6367 21.6094H41.5288C41.5288 21.6094 40.9804 23.1139 39.0268 23.1139C37.4331 23.1139 36.2335 21.8488 36.2335 20.2076C36.2335 18.5664 37.4331 17.2671 39.0268 17.2671ZM29.4816 22.9087H26.2427V20.6521H29.4645C30.3727 20.6521 30.8012 21.1307 30.8012 21.7975C30.8012 22.4642 30.407 22.9087 29.4816 22.9087ZM29.7215 18.8741H26.2427V17.4038H32.1036V15.6259H24.2549V24.7209H29.7215C31.5723 24.7209 32.8576 23.49 32.8576 21.8146C32.8576 20.1392 31.5552 18.8741 29.7215 18.8741ZM49.7031 23.0797C48.0237 23.0797 46.7898 21.8146 46.7898 20.1905C46.7898 18.5493 48.0237 17.2842 49.7031 17.2842C51.3311 17.2842 52.6164 18.5493 52.6164 20.1905C52.6164 21.8146 51.3654 23.0797 49.7031 23.0797ZM49.7031 15.4036C46.9441 15.4036 44.7677 17.5235 44.7677 20.1905C44.7677 22.8403 46.9441 24.9431 49.7031 24.9431C52.445 24.9431 54.6557 22.8232 54.6557 20.1905C54.6557 17.5235 52.3936 15.4036 49.7031 15.4036Z" fill="white"/>
</svg>
