<svg width="156" height="39" viewBox="0 0 156 39" fill="none" xmlns="http://www.w3.org/2000/svg">
<path d="M145.847 20.436H142.669V17.316H141.042V25.272H142.669V21.84H145.847V25.272H147.474V17.238H145.847V20.436ZM136.934 17.316H135.074L131.897 25.35H133.679L134.299 23.556H137.709L138.329 25.35H140.112L136.934 17.316ZM134.764 22.074L135.927 18.876L137.089 22.074H134.764ZM155.999 25.272L152.512 20.904L155.844 17.238H153.829L150.962 20.67V17.238H149.334V25.272H150.962V21.216L153.984 25.272H155.999ZM130.657 21.06C130.192 20.592 129.572 20.358 128.952 20.28H127.247V18.72H130.734V17.316H125.619V25.272H128.952C129.262 25.272 129.572 25.194 129.882 25.116C130.192 25.038 130.424 24.804 130.657 24.57C130.889 24.336 131.044 24.102 131.199 23.79C131.354 23.478 131.354 23.166 131.354 22.854C131.354 22.152 131.044 21.528 130.657 21.06ZM129.262 23.634C129.029 23.868 128.797 23.946 128.487 24.024H127.169V21.684H128.487C128.642 21.684 128.797 21.684 128.952 21.762C129.107 21.84 129.262 21.918 129.339 21.996C129.417 22.074 129.572 22.23 129.572 22.386C129.649 22.542 129.649 22.698 129.649 22.854C129.649 23.088 129.494 23.4 129.262 23.634ZM33.7818 26.598H29.9843L31.6893 23.556L27.4268 15.99H31.3018L33.5493 20.436L35.7193 15.99H39.4393L33.7818 26.598ZM81.2118 26.598H76.4843C73.9268 26.598 71.8343 24.414 71.8343 21.45C71.8343 18.018 73.9268 15.99 76.4843 15.99H81.2118V18.642H78.1893C76.4068 18.642 75.3218 19.188 75.3218 21.372C75.3218 23.556 76.3293 24.024 78.1893 24.024H81.2118V26.598ZM93.5343 26.598H90.0468V19.11L86.0943 26.598H81.9093V15.99H85.3968V23.244L89.3493 15.99H93.5343V26.598ZM68.2693 15.99H64.4718L60.7518 24.804L57.0318 15.99H53.1568L48.6618 26.676H52.3043L53.0793 24.414H56.9543L57.8068 26.676H63.5418L66.3318 18.954L69.0443 26.676H72.6868L68.2693 15.99ZM54.0868 21.996L55.2493 18.954L56.3343 21.996H54.0868ZM46.8793 15.99H39.7493V26.676H43.1593V23.556H46.8793C50.4443 23.556 50.4443 20.358 50.4443 19.656C50.4443 18.954 50.4443 15.99 46.8793 15.99ZM45.7168 20.904H43.2368V18.642H45.7168C46.1043 18.642 47.1118 18.642 47.1118 19.734C47.1118 20.826 46.1043 20.904 45.7168 20.904ZM101.207 19.968H97.7193V18.564H104.307V15.912H94.2318V26.598H101.207C104.849 26.598 104.849 24.414 104.849 23.244C104.849 22.074 104.849 20.046 101.207 19.968ZM100.587 24.18H97.6418V22.464H100.587C101.362 22.464 101.362 23.01 101.362 23.244C101.362 23.478 101.362 24.18 100.587 24.18ZM12.0818 10.608C12.3143 10.608 12.6243 10.608 12.8568 10.686L12.7793 3.432H13.6318C13.5543 5.928 13.7093 8.346 13.9418 10.842C15.9568 11.31 17.8168 12.324 19.2893 13.884C20.7618 15.444 21.6918 17.316 22.0793 19.422C22.4668 21.528 22.1568 23.634 21.3043 25.584C20.4518 27.534 19.0568 29.094 17.2743 30.264C17.1968 30.186 17.1193 30.03 16.9643 29.874C13.7868 25.818 13.0118 19.812 12.7793 14.586C13.2443 14.664 13.6318 14.742 14.0968 14.82C14.7943 19.266 16.7318 23.478 19.8318 26.754C20.9168 25.428 21.5368 23.634 21.3818 21.918C21.3043 20.124 20.5293 18.486 19.3668 17.238C17.9718 15.756 16.2668 14.664 14.3293 14.196C13.3993 13.962 12.4693 13.806 11.5393 13.806C10.6093 13.806 9.6018 13.962 8.6718 14.196C4.6418 15.21 1.6193 18.408 1.6193 22.23C1.6193 23.868 2.1618 25.428 3.1693 26.754C6.2693 23.478 8.2068 19.266 8.9043 14.82C9.3693 14.742 9.7568 14.742 10.2993 14.586C10.0668 19.89 9.2918 25.818 6.1143 29.796C6.0368 29.952 5.8818 30.108 5.8043 30.186C4.0218 29.016 2.7043 27.378 1.8518 25.428C0.999297 23.478 0.766797 21.372 1.1543 19.266C1.5418 17.16 2.5493 15.288 3.9443 13.806C5.3393 12.324 7.2768 11.232 9.2918 10.842C9.6018 5.46 9.5243 3.432 9.5243 3.432H10.3768L10.2993 10.686C10.5318 10.608 10.7643 10.53 10.9968 10.608V0H11.9268C12.0043 0 12.0043 10.608 12.0818 10.608Z" fill="white"/>
<path d="M12.0833 14.508C12.1608 19.578 12.5483 25.818 14.1758 30.108C14.3308 30.576 14.5633 31.044 14.8733 31.512C13.7883 31.824 12.7033 31.98 11.6183 32.058C10.5333 32.058 9.44828 31.902 8.36328 31.512C8.67328 30.966 8.90578 30.498 9.13828 29.952C10.6108 25.74 10.9983 19.5 11.0758 14.508H12.0833ZM114.771 13.26H115.468V29.328H114.771V13.26Z" fill="white"/>
</svg>
