<svg width="155" height="39" viewBox="0 0 155 39" fill="none" xmlns="http://www.w3.org/2000/svg">
<path d="M49.9314 5.21045L40.4609 14.7343H49.9314V33.7897L59.3942 24.2893V5.21045H49.9314Z" fill="white"/>
<path d="M40.4627 33.7897L49.9333 24.2659H40.4627V5.21045L31 14.7109V33.7897H40.4627ZM68.8665 29.0239H73.8342V14.2585H81.375V29.0239H86.3428V9.97626H68.8665V29.0239ZM117.141 17.1055H112.894V14.2585H122.349V9.96846H107.919V29.0239H117.374C121.163 29.0239 124 27.1129 124 23.0647C124 19.0165 121.163 17.1055 117.133 17.1055H117.141ZM116.661 24.9601H112.886V21.1693H116.661C117.831 21.1693 118.986 21.6373 118.986 23.0647C118.986 24.4921 117.8 24.9601 116.661 24.9601ZM98.5335 24.9601C95.2165 24.9601 93.3487 22.5109 93.3487 19.5001C93.3487 17.0743 94.705 14.0401 98.4327 14.0401C99.2682 14.0473 100.092 14.239 100.846 14.6015C101.599 14.964 102.265 15.4886 102.796 16.1383L105.818 13.0963C104.887 11.9745 103.721 11.0723 102.405 10.4537C101.089 9.835 99.6534 9.51497 98.2002 9.51606C96.8913 9.48127 95.5893 9.71628 94.3741 10.2067C93.1589 10.697 92.056 11.4323 91.133 12.3674C90.2108 13.3025 89.4877 14.4177 89.0095 15.6442C88.5306 16.8708 88.3066 18.183 88.35 19.5001C88.3337 21.6007 88.9801 23.6523 90.1968 25.3593C91.4128 27.0664 93.1364 28.341 95.1181 28.9993C97.1005 29.6576 99.2387 29.6657 101.226 29.0225C103.213 28.3793 104.946 27.118 106.175 25.4203L103.137 22.3627C102.655 23.1675 101.972 23.8319 101.156 24.2901C100.341 24.7484 99.4209 24.9846 98.487 24.9757" fill="white"/>
</svg>
