<svg width="154" height="39" viewBox="0 0 154 39" fill="none" xmlns="http://www.w3.org/2000/svg">
<path d="M32.7818 6.62989C30.6741 6.62989 28.6137 7.26302 26.8612 8.44924C25.1087 9.63538 23.7428 11.3214 22.9362 13.294C22.1296 15.2665 21.9186 17.4371 22.3298 19.5312C22.7409 21.6252 23.756 23.5487 25.2463 25.0585C26.7367 26.5682 28.6355 27.5964 30.7027 28.0129C32.77 28.4294 34.9127 28.2156 36.86 27.3986C38.8073 26.5815 40.4717 25.1979 41.6426 23.4226C42.8136 21.6473 43.4386 19.5602 43.4386 17.4251C43.4396 16.0071 43.1646 14.603 42.6295 13.2927C42.0943 11.9826 41.3093 10.792 40.3196 9.78943C39.3298 8.78682 38.1546 7.99169 36.8612 7.44953C35.5678 6.90739 34.1816 6.62886 32.7818 6.62989ZM31.2418 22.0037L30.4718 24.3437C29.0311 23.835 27.7831 22.8838 26.9015 21.6224C26.0199 20.361 25.5489 18.8525 25.554 17.307C25.5591 15.7616 26.04 14.2562 26.9299 13.0008C27.8197 11.7454 29.074 10.8026 30.518 10.3037L31.288 12.6437C30.335 12.9696 29.5082 13.5925 28.9259 14.4233C28.3436 15.2541 28.0357 16.2502 28.0463 17.2691C27.9859 18.3075 28.2688 19.3367 28.8503 20.1941C29.4318 21.0515 30.2787 21.6883 31.2572 22.0037H31.2418ZM34.8762 24.4451L34.1062 22.0583C35.0747 21.7407 35.9196 21.1217 36.5205 20.2893C37.1214 19.457 37.4476 18.4537 37.4528 17.4225C37.4579 16.3914 37.1416 15.3848 36.549 14.5463C35.9564 13.7079 35.1177 13.0803 34.1524 12.7529L34.9224 10.3661C36.3864 10.86 37.6585 11.8106 38.5564 13.0817C39.4543 14.3529 39.9319 15.8794 39.9207 17.4424C39.9096 19.0054 39.4104 20.5248 38.4945 21.7827C37.5786 23.0407 36.2932 23.9726 34.8223 24.4451H34.8762Z" fill="white"/>
<path d="M51.0063 35.4432H49.3354V30.4669H52.2306V30.9661H49.9206V32.5261H50.9986C51.9842 32.5261 52.6233 32.9239 52.6233 33.9223V33.969C52.6233 34.944 51.9842 35.4432 51.0063 35.4432ZM51.0063 34.9986C51.7763 34.9986 52.0381 34.6476 52.0381 34.0548V34.008C52.0381 33.4074 51.6916 33.0642 50.9601 33.0642H49.9206V35.0065L51.0063 34.9986ZM53.17 34.4526C53.17 33.6102 54.0555 33.306 54.9872 33.306H55.5262V33.0564C55.5262 32.4559 55.326 32.214 54.7562 32.214C54.1864 32.214 53.9862 32.4169 53.9246 32.8615H53.3317C53.3488 32.6906 53.3995 32.5249 53.4809 32.3742C53.5622 32.2235 53.6725 32.0907 53.8053 31.9839C53.938 31.877 54.0905 31.7982 54.2539 31.752C54.4172 31.7058 54.588 31.6932 54.7562 31.7148C54.9318 31.6903 55.1106 31.7064 55.2791 31.7621C55.4476 31.8178 55.6014 31.9115 55.729 32.0362C55.8565 32.1609 55.9545 32.3133 56.0154 32.482C56.0763 32.6506 56.0986 32.831 56.0806 33.0096V35.3965H55.4415V34.944C55.3155 35.1264 55.1451 35.2726 54.9466 35.3683C54.7483 35.464 54.5287 35.506 54.3096 35.49C53.709 35.49 53.1315 35.1936 53.1315 34.4448L53.17 34.4526ZM55.5262 34.203V33.7584H55.0334C54.2634 33.7584 53.8091 33.9612 53.8091 34.4526C53.8091 34.944 54.0093 35.0532 54.4944 35.0532C54.9795 35.0532 55.5262 34.7412 55.5262 34.1952V34.203ZM59.3762 33.8521H57.6052V35.49H56.9815V31.8552H57.5744V33.4152H59.3454V31.8552H59.9383V35.49H59.3454L59.3762 33.8521ZM61.5399 33.6025V35.4432H60.947V31.8084H61.5399V33.5011L63.0106 31.8084H63.6959L62.1559 33.5011L63.8268 35.4432H63.1415L61.5399 33.6025ZM130.332 19.3675L131.51 20.8105C130.993 21.3468 130.373 21.7697 129.689 22.0528C129.003 22.336 128.268 22.4733 127.529 22.4563C126.583 22.4883 125.643 22.3016 124.78 21.9103C124.017 21.494 123.389 20.8631 122.973 20.0936C122.556 19.3241 122.368 18.4488 122.431 17.5735C122.431 14.6407 124.395 12.4489 127.298 12.4489C130.54 12.4489 132.11 14.8903 131.864 18.0727H124.495C124.52 18.4637 124.635 18.8432 124.832 19.1806C125.029 19.5181 125.301 19.8039 125.627 20.0149C126.237 20.3782 126.938 20.5518 127.644 20.514C128.146 20.5189 128.643 20.4197 129.105 20.2225C129.567 20.0253 129.984 19.7343 130.332 19.3675ZM124.587 16.3333H129.793C129.709 15.7172 129.399 15.1557 128.926 14.7598C128.452 14.3641 127.849 14.1628 127.236 14.1961C126.616 14.1736 126.007 14.3766 125.521 14.7686C125.036 15.1605 124.704 15.7155 124.587 16.3333ZM75.0765 22.2066H77.7252L73.5519 17.2771L77.679 12.6517H75.0765L71.9349 16.3333H70.9955V12.6517H68.9858V22.1521H70.9955V18.3768H71.9272L75.0765 22.2066ZM83.7697 14.4067C83.3817 14.4028 82.9974 14.4797 82.6409 14.6327C82.2836 14.7857 81.961 15.0116 81.6938 15.2962C81.4266 15.5809 81.2203 15.9181 81.0871 16.2871C80.9538 16.656 80.8976 17.0487 80.9207 17.4409C80.8976 17.833 80.9538 18.2257 81.0871 18.5946C81.2203 18.9636 81.4266 19.3008 81.6938 19.5855C81.961 19.8701 82.2836 20.0959 82.6409 20.2489C82.9974 20.402 83.3817 20.479 83.7697 20.475C84.1563 20.4818 84.5397 20.4065 84.8962 20.2538C85.252 20.1011 85.5723 19.8744 85.8364 19.5885C86.1005 19.3026 86.3023 18.9637 86.4293 18.5938C86.5564 18.2238 86.6049 17.8311 86.5725 17.4409C86.6072 17.0494 86.5602 16.6549 86.4347 16.2831C86.3084 15.9113 86.1067 15.5705 85.8426 15.2827C85.5785 14.9951 85.2574 14.767 84.9001 14.6134C84.5428 14.4598 84.1578 14.384 83.7697 14.3911V14.4067ZM84.1162 12.4645C86.765 12.4645 88.7362 14.5549 88.7362 17.4409C88.7362 20.3269 86.8189 22.464 84.1162 22.464C83.5457 22.4905 82.9759 22.3936 82.4446 22.1798C81.9133 21.9659 81.4336 21.6401 81.0362 21.2238V26.2002H79.0034V12.6517H81.0208V13.7983C81.3981 13.3496 81.874 12.9967 82.4099 12.7678C82.9466 12.5389 83.528 12.4403 84.1085 12.4801L84.1162 12.4645ZM110.835 12.6673H102.411V14.5549H105.607V22.1521H107.671V14.5861H110.881V12.6517L110.835 12.6673ZM67.5613 12.6673H59.1606V14.5549H62.3715V22.1521H64.4351V14.5861H67.6075V12.6517L67.5613 12.6673ZM56.6504 17.4253C56.6504 16.6329 56.3396 15.8731 55.7866 15.3129C55.2335 14.7526 54.4834 14.4379 53.7013 14.4379C52.9191 14.4379 52.169 14.7526 51.6159 15.3129C51.0629 15.8731 50.7522 16.6329 50.7522 17.4253C50.7522 18.2176 51.0629 18.9774 51.6159 19.5376C52.169 20.0979 52.9191 20.4127 53.7013 20.4127C54.4834 20.4127 55.2335 20.0979 55.7866 19.5376C56.3396 18.9774 56.6504 18.2176 56.6504 17.4253ZM48.6963 17.4253C48.6764 16.4076 48.9561 15.407 49.4997 14.5511C50.0434 13.6951 50.8264 13.0225 51.7488 12.619C52.6713 12.2156 53.6915 12.0995 54.6793 12.2857C55.6671 12.4718 56.5779 12.9517 57.2954 13.6642C58.013 14.3767 58.5049 15.2895 58.7083 16.2862C58.9117 17.283 58.8176 18.3185 58.4378 19.2608C58.058 20.2031 57.4099 21.0095 56.5759 21.5773C55.7419 22.145 54.76 22.4482 53.7552 22.4485C53.0922 22.4751 52.4309 22.3643 51.8118 22.1226C51.1928 21.8809 50.629 21.5136 50.1552 21.0431C49.6814 20.5727 49.3076 20.0091 49.0567 19.3869C48.8058 18.7647 48.6831 18.0971 48.6963 17.4253ZM120.807 12.6517V22.1521H118.789V16.0368L113.877 22.1599H112.252V12.6517H114.269V18.8214L119.182 12.6985H120.807V12.6517ZM101.056 22.2066H99.0388V12.6517H101.056V22.2066ZM95.7971 18.9229C95.8064 18.7348 95.7779 18.5467 95.7124 18.3704C95.6478 18.194 95.5469 18.0332 95.4175 17.8979C95.2882 17.7624 95.1334 17.6555 94.9609 17.5836C94.7892 17.5117 94.6044 17.4764 94.4188 17.4799H92.4014V20.4127H94.465C94.6514 20.4089 94.8346 20.3668 95.004 20.2889C95.1734 20.211 95.3259 20.0989 95.4514 19.9595C95.5761 19.8201 95.6724 19.6563 95.7332 19.4781C95.7941 19.2998 95.8187 19.1109 95.8048 18.9229H95.7971ZM97.8607 18.9229C97.87 19.3633 97.7891 19.8009 97.6228 20.2079C97.4565 20.6148 97.2078 20.9823 96.8936 21.2867C96.5795 21.5912 96.206 21.8261 95.7971 21.9764C95.3883 22.1267 94.9532 22.1892 94.5189 22.1599H90.3455V12.6517H92.4014V15.7716H94.7114C95.1288 15.7461 95.5469 15.8096 95.938 15.9583C96.3292 16.107 96.6857 16.3374 96.9829 16.6346C97.2809 16.9317 97.5135 17.2891 97.6659 17.6833C97.8184 18.0776 97.8877 18.4999 97.8684 18.9229H97.8607Z" fill="white"/>
</svg>
