<svg width="155" height="39" viewBox="0 0 155 39" fill="none" xmlns="http://www.w3.org/2000/svg">
<path d="M43.02 16.4001C43.9087 16.4001 44.8981 16.4312 45.756 17.0146C46.328 17.3958 47.0004 18.1504 47.0004 19.4961C47.0004 20.9741 46.0729 22.7166 43.4991 22.7166H41.335V26.7695H39.4414V16.4001H43.02ZM43.0972 21.1997C43.5146 21.1997 44.1174 21.2152 44.5966 20.7641C44.929 20.4607 45.1068 19.9473 45.1068 19.5117C45.1068 19.1072 44.9444 18.6171 44.6121 18.3293C44.2797 18.0415 43.7542 17.9014 43.1668 17.9014H41.335V21.1997H43.0972ZM48.7472 19.8462C49.2728 19.3483 50.0535 18.9127 51.2206 18.9127C52.3954 18.9127 53.176 19.3483 53.7016 19.8462C54.4822 20.5852 54.8841 21.7364 54.8841 22.9111C54.8841 24.0857 54.4822 25.237 53.7016 25.976C53.176 26.4738 52.3954 26.9172 51.2206 26.9172C50.0535 26.9172 49.2728 26.4738 48.7472 25.976C47.9666 25.237 47.5647 24.0857 47.5647 22.9111C47.557 21.7287 47.9666 20.5852 48.7472 19.8462ZM50.0226 25.0892C50.1848 25.2836 50.5636 25.6492 51.2206 25.6492C51.8853 25.6492 52.2563 25.2914 52.4186 25.0892C52.5422 24.957 52.9905 24.3502 52.9905 22.9111C52.9905 21.472 52.5422 20.873 52.4186 20.733C52.2563 20.5385 51.8775 20.1729 51.2206 20.1729C50.5636 20.1729 50.1848 20.5307 50.0226 20.733C49.9066 20.873 49.4506 21.472 49.4506 22.9111C49.4506 24.3424 49.9066 24.9492 50.0226 25.0892ZM60.8741 21.8842C60.8432 21.4953 60.6963 21.0364 60.4954 20.7486C60.3098 20.4763 59.9543 20.1729 59.3515 20.1729C58.764 20.1729 58.3776 20.4763 58.138 20.8808C57.7592 21.5031 57.7361 22.4677 57.7361 22.9111C57.7361 23.619 57.8366 24.4669 58.138 24.9492C58.3312 25.2525 58.7254 25.6415 59.3515 25.6415C59.7997 25.6415 60.1785 25.4626 60.4644 25.0659C60.6886 24.7469 60.8432 24.2957 60.8664 23.899L62.4585 24.0935C62.3657 24.8014 62.0566 25.5948 61.5002 26.1005C61.0364 26.5205 60.3098 26.9017 59.2896 26.9017C58.1535 26.9017 57.4115 26.4505 56.9786 26.0382C56.3912 25.4781 55.8347 24.4824 55.8347 22.9111C55.8347 21.4486 56.3294 20.5696 56.7236 20.1029C57.28 19.4339 58.223 18.8972 59.336 18.8972C60.2867 18.8972 61.0673 19.2316 61.5542 19.7451C62.0489 20.2429 62.3503 20.9975 62.4585 21.6743L60.8741 21.8842ZM68.325 21.8842C68.294 21.4953 68.1472 21.0364 67.9462 20.7486C67.7685 20.4763 67.4052 20.1729 66.8023 20.1729C66.2149 20.1729 65.8284 20.4763 65.5889 20.8808C65.2179 21.5031 65.187 22.4677 65.187 22.9111C65.187 23.619 65.2952 24.4669 65.5889 24.9492C65.7821 25.2525 66.1763 25.6415 66.8023 25.6415C67.2507 25.6415 67.6293 25.4626 67.9153 25.0659C68.1395 24.7469 68.294 24.2957 68.3172 23.899L69.9094 24.0935C69.8244 24.8014 69.5075 25.5948 68.951 26.1005C68.4872 26.5205 67.7685 26.9017 66.7482 26.9017C65.6043 26.9017 64.8701 26.4505 64.4372 26.0382C63.8499 25.4781 63.2933 24.4824 63.2933 22.9111C63.2933 21.4486 63.788 20.5696 64.1822 20.1029C64.7386 19.4339 65.6817 18.8972 66.7946 18.8972C67.7376 18.8972 68.5182 19.2316 69.0128 19.7451C69.5075 20.2429 69.8089 20.9975 69.9171 21.6743L68.325 21.8842ZM77.9478 24.5291C77.6773 25.4315 77.1361 25.9605 76.6878 26.2794C76.085 26.6838 75.3043 26.9172 74.4773 26.9172C73.4416 26.9172 72.3905 26.4738 71.7567 25.8282C71.1693 25.2292 70.7365 24.179 70.7365 22.9422C70.7365 21.3709 71.3857 20.3285 72.0891 19.7373C72.4986 19.3872 73.2639 18.905 74.4155 18.905C75.8762 18.905 76.8038 19.5817 77.2985 20.2818C77.8238 21.0053 78.071 22.0165 78.071 22.8955V23.2456H72.6378C72.6378 23.3311 72.6223 24.0313 72.8929 24.5913C73.2948 25.4393 74.0368 25.6492 74.5469 25.6492C74.9488 25.6492 75.4589 25.5248 75.884 25.0892C76.1391 24.8169 76.2472 24.5602 76.2859 24.3191L77.9478 24.5291ZM76.1777 22.0943C76.1777 21.6587 76.0695 21.1608 75.8453 20.8263C75.5593 20.4062 75.0492 20.1184 74.4928 20.1184C73.9208 20.1184 73.4262 20.4062 73.1247 20.7641C72.8851 21.0675 72.6764 21.5342 72.6764 22.0943H76.1777ZM85.4832 19.0605V26.7695H83.7371V20.3674H81.7577C81.712 21.4098 81.681 21.8298 81.65 22.5455C81.6035 23.3467 81.5493 25.0347 80.8696 25.9605C80.4906 26.4582 80.0264 26.6528 79.6947 26.7461C79.5009 26.8083 79.2924 26.8316 79.0762 26.8316C78.929 26.8316 78.7748 26.8161 78.6275 26.7695V25.4393H78.7747C78.9987 25.4237 79.3002 25.307 79.4932 25.1514C80.0961 24.6691 80.1504 23.58 80.2124 22.7166C80.2899 21.5809 80.3054 20.9041 80.3123 19.8773L80.3279 19.0605H85.4832ZM89.0621 21.8065H90.9864C91.4809 21.8065 92.4395 21.8687 93.0735 22.4988C93.6455 23.0589 93.6997 23.8445 93.6997 24.2647C93.6997 25.3692 93.251 25.9293 92.903 26.2171C92.7798 26.3105 92.2156 26.7617 91.1337 26.7617H87.323V19.0605H89.0621V21.8065ZM89.0621 25.4937H90.43C90.7625 25.4937 91.1182 25.4781 91.4196 25.2214C91.5971 25.0503 91.8134 24.7702 91.8134 24.2802C91.8134 23.8601 91.6901 23.5256 91.3499 23.3C91.0484 23.1056 90.6694 23.0744 90.4377 23.0744H89.0699V25.4937H89.0621ZM96.2347 19.0605L97.6491 21.4564L99.1177 19.0605H100.71L98.4683 22.5455L101.127 26.7617H99.0867L97.3476 23.8601L95.5155 26.7617H93.9237L96.5362 22.7633L94.1941 19.0605H96.2347ZM102.472 19.8462C102.997 19.3483 103.779 18.9127 104.945 18.9127C106.12 18.9127 106.901 19.3483 107.427 19.8462C108.207 20.5852 108.609 21.7364 108.609 22.9111C108.609 24.0857 108.199 25.237 107.427 25.976C106.901 26.4738 106.12 26.9172 104.945 26.9172C103.779 26.9172 102.997 26.4738 102.472 25.976C101.691 25.237 101.289 24.0857 101.289 22.9111C101.289 21.7287 101.691 20.5852 102.472 19.8462ZM103.748 25.0892C103.91 25.2836 104.289 25.6492 104.945 25.6492C105.61 25.6492 105.981 25.2914 106.151 25.0892C106.267 24.957 106.723 24.3502 106.723 22.9111C106.723 21.472 106.275 20.873 106.151 20.733C105.989 20.5385 105.61 20.1729 104.945 20.1729C104.289 20.1729 103.91 20.5307 103.748 20.733C103.624 20.873 103.176 21.472 103.176 22.9111C103.176 24.3424 103.631 24.9492 103.748 25.0892ZM109.544 21.1453C109.769 20.2118 110.355 19.6984 110.773 19.4417C111.028 19.2783 111.732 18.9127 112.937 18.9127C113.687 18.9127 114.452 19.045 115.024 19.3639C115.866 19.8307 116.075 20.5074 116.075 20.9975C116.075 21.5265 115.82 22.5377 114.514 22.6855V22.7166C114.962 22.7788 115.457 22.9733 115.759 23.2922C116.029 23.58 116.237 24.0624 116.237 24.5758C116.237 25.3459 115.789 26.0227 115.217 26.4038C114.529 26.855 113.578 26.9172 112.876 26.9172C112.164 26.9172 111.09 26.8394 110.333 26.2405C109.915 25.906 109.521 25.3304 109.405 24.6069L110.981 24.3346C111.043 24.5758 111.175 24.9414 111.353 25.1514C111.747 25.6104 112.357 25.6492 112.752 25.6492C113.146 25.6492 113.563 25.6026 113.895 25.377C114.197 25.167 114.344 24.8791 114.344 24.4979C114.344 24.1791 114.282 23.9223 114.012 23.6967C113.664 23.4089 113.2 23.3623 112.767 23.3623H111.971V22.1799H112.767C113.068 22.1799 113.501 22.1176 113.741 22.0009C114.058 21.8376 114.236 21.5653 114.236 21.122C114.236 20.8808 114.143 20.6474 113.919 20.4685C113.571 20.1806 113.076 20.1651 112.821 20.1651C112.473 20.1651 111.963 20.2118 111.546 20.5696C111.368 20.7174 111.129 21.0053 111.051 21.4564L109.544 21.1453ZM125.149 18.2126H120.179V20.5074H122.389C123.186 20.5074 123.951 20.5696 124.731 21.1142C125.497 21.6432 125.976 22.4288 125.976 23.5645C125.976 24.6224 125.582 25.4081 125.087 25.9059C124.338 26.6605 123.48 26.7695 122.583 26.7695H117.776V16.4001H125.149V18.2126ZM120.179 24.9492H122.119C122.482 24.9492 122.815 24.9336 123.155 24.5835C123.488 24.2491 123.533 23.8757 123.533 23.5878C123.533 23.2611 123.441 22.9266 123.155 22.6388C122.815 22.2966 122.374 22.2576 122.058 22.2576H120.179V24.9492ZM127.213 21.1997C127.452 20.1573 128.124 19.6283 128.534 19.3872C129.13 19.0372 129.926 18.905 130.923 18.905C132.182 18.905 133.458 19.0683 134.03 20.2662C134.331 20.8886 134.3 21.5498 134.3 22.1254V25.1047C134.3 25.7271 134.385 26.3027 134.524 26.7695H132.345C132.283 26.466 132.237 26.0615 132.229 25.5481C131.943 26.0615 131.247 26.925 129.663 26.925C128.959 26.925 128.233 26.7461 127.738 26.3338C127.259 25.937 126.957 25.307 126.957 24.6146C126.957 23.8445 127.29 22.9188 128.596 22.3743C129.439 22.0243 130.807 21.9076 131.417 21.8764L132.136 21.8454V21.682C132.136 21.4719 132.12 21.0208 131.912 20.7719C131.626 20.4373 131.054 20.4218 130.83 20.4218C130.521 20.4218 130.142 20.4529 129.825 20.6474C129.632 20.7641 129.377 21.013 129.284 21.4331L127.213 21.1997ZM131.464 23.1211C130.714 23.1833 129.964 23.2611 129.539 23.7823C129.423 23.9301 129.299 24.1635 129.299 24.4746C129.299 24.8092 129.462 25.0347 129.632 25.1514C129.84 25.3148 130.157 25.3925 130.459 25.3925C130.907 25.3925 131.433 25.1981 131.734 24.8325C131.781 24.7858 132.136 24.3346 132.136 23.4556V23.0511L131.464 23.1211ZM138.273 19.0605V21.9465H140.692V19.0605H142.926V26.7617H140.692V23.5256H138.273V26.7617H136.04V19.0605H138.273ZM146.907 19.0605V22.0243H147.509C148.158 22.0243 148.429 21.7053 148.591 21.3553C148.908 20.6785 148.893 20.1495 149.179 19.6206C149.403 19.2005 149.704 19.0916 149.897 19.0605H151.745C151.505 19.3172 151.296 19.6206 151.157 19.8928C150.918 20.3907 150.694 21.2075 150.554 21.5576C150.377 22.0399 150.076 22.5221 149.31 22.5844V22.6155C149.72 22.6777 150.138 22.8877 150.454 23.3545C150.647 23.6423 150.778 24.0157 150.995 24.6069C151.204 25.2137 151.296 25.4237 151.49 25.8904C151.644 26.2405 151.729 26.4505 151.984 26.7695H149.882C149.55 26.6605 149.325 26.4349 149.055 25.6492C148.846 25.0503 148.815 24.8325 148.677 24.4979L148.568 24.2257C148.344 23.6501 148.043 23.5334 147.578 23.5334H146.907V26.7695H144.673V19.0605H146.907Z" fill="white"/>
<path d="M18.849 38.22C9.7364 38.22 2.32422 30.7678 2.32422 21.5964C2.32422 16.3301 4.72796 11.4838 8.91714 8.31007L9.08718 8.16998V0.780029H18.5707V4.97287H18.849C27.9538 4.97287 35.366 12.4328 35.366 21.6042C35.366 30.7678 27.9538 38.22 18.849 38.22Z" fill="white"/>
<path d="M14.0671 21.8609L17.5065 18.4615V16.1512L14.0671 19.535V21.8609ZM14.0671 13.2496L17.5065 9.84245V7.66438L14.0671 11.0482V13.2496ZM14.0671 16.0967L17.5065 12.6973V10.5193L14.0671 13.903V16.0967ZM13.0855 7.68771L12.6295 7.24431V1.85352H12.104V6.73091L11.6556 6.27973V1.85352H11.1301V5.7741L10.6741 5.32292V1.85352H10.1562V6.99539L13.6034 10.3948V1.85352H13.0855V7.68771ZM14.0671 18.9438L17.5065 15.5444V13.3663L14.0671 16.7501V18.9438ZM10.1562 18.4615L13.6034 21.8609V19.535L10.1562 16.1512V18.4615ZM16.9886 5.32292L16.5326 5.7741V1.85352H16.0148V6.28751L15.5588 6.73091V1.85352H15.0409V7.23654L14.5849 7.68771V1.85352H14.0671V10.3948L17.5065 6.99539V1.85352H16.9886V5.32292ZM10.1562 9.84245L13.6034 13.2496V11.0482L10.1562 7.66438V9.84245ZM10.1562 12.6973L13.6034 16.0967V13.903L10.1562 10.5193V12.6973ZM10.1562 15.5444L13.6034 18.9438V16.7501L10.1562 13.3663V15.5444ZM30.6614 17.3414H22.2909C22.4687 17.0613 22.5691 16.7346 22.5691 16.3845C22.5691 15.3811 21.7575 14.5721 20.7605 14.5721C19.7635 14.5721 18.9596 15.3889 18.9596 16.3845C18.9596 16.7813 19.0833 17.1391 19.2997 17.4347C19.1452 17.5358 19.0369 17.7148 19.0369 17.9248C19.0369 18.1271 19.1452 18.306 19.2997 18.4071C19.0911 18.7027 18.9596 19.0683 18.9596 19.4573C18.9596 20.4607 19.7635 21.2698 20.7605 21.2698C21.7575 21.2698 22.5691 20.4607 22.5691 19.4573C22.5691 19.1072 22.4687 18.7727 22.2909 18.5004H28.5205V18.8816H27.9022V19.4184H28.5205V19.9707H27.9022V20.9897H28.5205V20.5307H29.4325V20.9897H30.0431V19.9707H29.4325V19.4184H30.0431V18.8816H29.4325V18.5004H30.6614C30.9011 18.5004 31.0943 18.2982 31.0943 18.057V17.7848C31.0943 17.5436 30.8933 17.3414 30.6614 17.3414ZM21.6958 19.4573C21.6958 19.9707 21.2784 20.3907 20.7605 20.3907C20.2504 20.3907 19.8331 19.9707 19.8331 19.4573C19.8331 19.2705 19.8871 19.0916 19.9876 18.9438L20.2426 18.5004C20.0804 18.3604 19.9798 18.1504 19.9798 17.917C19.9798 17.6836 20.0804 17.4737 20.2426 17.3336L19.9876 16.8902C19.8871 16.7424 19.8331 16.5713 19.8331 16.3768C19.8331 15.8633 20.2504 15.4433 20.7605 15.4433C21.2706 15.4433 21.6958 15.8633 21.6958 16.3768C21.6958 16.7579 21.2552 17.6681 21.2552 17.6681V18.1582C21.2552 18.166 21.6958 19.0761 21.6958 19.4573Z" fill="#031C17"/>
<path d="M7.02344 16.2368V18.5005C7.02344 20.6631 7.95865 22.0555 8.49967 22.5923C8.81657 22.9034 12.0164 26.0772 12.0628 26.1161C13.0598 27.0962 13.2299 27.4152 13.454 27.9753V25.4705C13.454 23.2379 12.3333 22.3744 11.7536 21.8066C10.4011 20.4842 9.50446 19.6129 8.77023 18.8816C7.39443 17.4893 7.02344 16.2368 7.02344 16.2368ZM11.7537 27.3996C10.4088 26.0694 9.50446 25.206 8.77798 24.4747C7.39446 23.0823 7.0312 22.141 7.0312 22.141V24.0935C7.0312 26.2561 8.00507 27.633 8.49975 28.2008C8.81657 28.512 12.0241 31.6702 12.0628 31.7091C13.0598 32.6893 13.2299 33.156 13.454 33.7083V31.0634C13.454 28.8309 12.3256 27.9675 11.7537 27.3996Z" fill="#031C17"/>
<path d="M18.8488 6.03857C18.6015 6.03857 18.3541 6.04635 18.1068 6.05414V7.11206C18.3541 7.09651 18.5937 7.09651 18.8488 7.09651C26.802 7.09651 33.248 13.5841 33.248 21.5964C33.248 29.6009 26.802 36.0886 18.8488 36.0886C10.8956 36.0886 4.44178 29.6009 4.44178 21.5964C4.44178 17.1546 6.42815 13.1796 9.55845 10.5193V9.16573C5.80983 12.005 3.39062 16.5168 3.39062 21.5964C3.39062 30.1844 10.3081 37.1465 18.8488 37.1465C27.3817 37.1465 34.2992 30.1844 34.2992 21.5964C34.2992 13.0085 27.3817 6.03857 18.8488 6.03857Z" fill="#031C17"/>
<path d="M29.7773 29.7177C30.0169 29.3909 30.2411 29.0487 30.4575 28.6986V26.6139H29.7773V29.7177ZM31.756 25.8515C31.8564 25.5482 31.9415 25.2448 32.0187 24.9414H29.7773V25.4937H30.1174C30.7125 25.4781 31.385 25.4704 31.756 25.8515Z" fill="#031C17"/>
<path d="M16.8333 24.8635H16.2227V31.0633H16.8333V24.8635Z" fill="#031C17"/>
<path d="M14.8216 23.6733H16.8311C17.3489 23.6733 17.7122 23.7822 17.9209 23.9845C18.1296 24.1867 18.2301 24.5524 18.2301 25.0736V30.8688C18.2301 31.39 18.1296 31.7557 17.9209 31.9579C17.604 32.2768 17.0166 32.2768 16.5297 32.2768C16.4215 32.2691 16.3133 32.2691 16.2205 32.2691V35.015C16.4215 35.0539 16.6224 35.0928 16.8311 35.124V32.868C17.7586 32.868 18.3615 32.5491 18.6474 31.9112V35.2717H18.8484C18.9721 35.2717 19.1034 35.2717 19.2271 35.264V25.1747C19.2271 24.6379 19.3353 24.2646 19.5363 24.0545C19.7372 23.8445 20.1005 23.7356 20.6106 23.7356C21.1284 23.7356 21.8937 23.6578 22.2878 24.0545C22.4888 24.2646 22.5815 24.6457 22.5815 25.1747V28.1462H21.2058V24.9724H20.6106V35.1551C20.8115 35.1317 21.0048 35.1006 21.2058 35.0617V28.7452H22.5815V34.7428C22.8675 34.665 23.1458 34.5716 23.424 34.4705V28.9786C23.424 28.3563 23.5708 27.8895 24.1969 27.6795L23.5013 23.8601H24.8925L25.1244 28.0295H25.2944L25.5263 23.8601H26.9948L26.2065 27.6795C26.8634 27.9129 26.9948 28.3174 26.9948 28.9786V32.5258C27.4045 32.2146 27.7909 31.8879 28.1619 31.53V23.8211H32.2429C32.2738 23.6345 32.297 23.4555 32.3201 23.2611H22.7824L22.9139 23.9533C22.6124 23.3933 22.0405 23.1133 21.198 23.1133H20.6029C19.5904 23.1133 18.9797 23.5178 18.7402 24.3268C18.5237 23.4789 17.8823 23.0588 16.8234 23.0588H14.2109V34.4393C14.4119 34.5094 14.6129 34.5794 14.8138 34.6416V23.6733H14.8216ZM27.4895 28.0529L26.8325 27.4228L27.4895 24.0001V28.0529Z" fill="#031C17"/>
<path d="M24.9023 33.8403C25.1111 33.7314 25.3197 33.6226 25.5284 33.5059V28.8152H24.9023V33.8403Z" fill="#031C17"/>
</svg>
