<svg width="155" height="39" viewBox="0 0 155 39" fill="none" xmlns="http://www.w3.org/2000/svg">
<path d="M76.6263 10.14H72.0327V28.86H76.1191V16.5218H76.3728L80.7132 23.641H82.8824L87.2232 16.5218H87.4766V28.86H91.591V10.14H87.0821L81.8966 18.6207L76.6263 10.14ZM100.13 10.14H95.9868V28.86H100.13V20.8614H102.187L107.908 28.86H113.291L105.653 18.876L112.614 10.14H107.457L102.159 17.0324L100.13 17.2593V10.14ZM131.158 10.14H116.278V28.86H124.732C125.803 28.86 126.761 28.7182 127.663 28.463C128.565 28.1792 129.327 27.7822 129.974 27.3C130.623 26.7611 131.13 26.1371 131.524 25.3996C131.862 24.6054 132.06 23.783 132.06 22.7902C132.06 21.7974 131.862 20.9182 131.524 20.124C131.13 19.3865 130.623 18.7625 130.002 18.2804C129.327 17.7698 128.565 17.4011 127.663 17.1742C126.761 16.9189 125.803 16.8055 124.732 16.8055H120.421V13.9124H127.467L131.158 10.14ZM120.449 25.116V20.4644H124.873C125.831 20.4644 126.564 20.6629 127.071 21.0884C127.607 21.4854 127.861 22.0244 127.861 22.7902C127.861 23.4992 127.607 24.0382 127.071 24.492C126.564 24.8891 125.775 25.116 124.76 25.116H120.449ZM46.3873 10.1684L37.0873 19.5L32.4654 14.82L37.1154 10.14H27.8154L23.25 14.82L37.2 28.86L49.0928 16.7771H56.2227L62.7891 10.1684H46.3873Z" fill="white"/>
<path d="M39.1172 28.6614L40.4418 27.3283L49.629 18.0818H62.8182L56.2235 24.6906H52.3344L48.4454 28.6614H39.1172Z" fill="white"/>
</svg>
