<svg width="60" height="60" viewBox="0 0 60 60" fill="none" xmlns="http://www.w3.org/2000/svg">
<path d="M11.801 23.9451L27.1509 11.8755L33.0928 56.6335H11.801V23.9451Z" fill="white"/>
<path fill-rule="evenodd" clip-rule="evenodd" d="M28.7737 11.2272C29.3996 12.1383 29.1798 13.3923 28.2827 14.028L13.6351 24.4075V57.0525C13.6351 58.1634 12.7483 59.0641 11.6545 59.0641C10.5606 59.0641 9.67383 58.1634 9.67383 57.0525V23.3582C9.67383 22.7007 9.99021 22.0847 10.5211 21.7085L26.0161 10.7285C26.9132 10.0928 28.1478 10.3161 28.7737 11.2272Z" fill="#031C17"/>
<path fill-rule="evenodd" clip-rule="evenodd" d="M25.4788 4.77133C25.4788 3.14661 27.3135 2.19987 28.6376 3.14129L38.0402 9.82599C38.8317 10.3887 39.3019 11.2998 39.3019 12.271V27.4441C39.3019 28.4052 39.7623 29.3081 40.5403 29.8724L47.7397 35.0953C48.5176 35.6596 48.9781 36.5625 48.9781 37.5236V57.0525H25.4788V4.77133Z" fill="#031C17"/>
<path fill-rule="evenodd" clip-rule="evenodd" d="M0 57.0526C0 55.9416 0.886757 55.041 1.98063 55.041H57.2731C58.367 55.041 59.2537 55.9416 59.2537 57.0526C59.2537 58.1636 58.367 59.0642 57.2731 59.0642H1.98063C0.886757 59.0642 0 58.1636 0 57.0526Z" fill="#031C17"/>
</svg>
