<svg width="60" height="60" viewBox="0 0 60 60" fill="none" xmlns="http://www.w3.org/2000/svg">
<rect x="7.68555" y="23.9785" width="44.6291" height="20.5436" fill="white"/>
<path fill-rule="evenodd" clip-rule="evenodd" d="M22.0904 14.179V15.7611H11.0158C9.75701 15.7611 8.54978 16.2611 7.65968 17.1512C6.76958 18.0413 6.26953 19.2486 6.26953 20.5074L6.26953 48.985C6.26953 50.2438 6.76958 51.451 7.65968 52.3411C8.54978 53.2312 9.75701 53.7312 11.0158 53.7312H48.9859C50.2447 53.7312 51.452 53.2312 52.3421 52.3411C53.2322 51.451 53.7322 50.2438 53.7322 48.985V20.5074C53.7322 19.2486 53.2322 18.0413 52.3421 17.1512C51.452 16.2611 50.2447 15.7611 48.9859 15.7611H37.9113V14.179C37.9113 12.081 37.0779 10.069 35.5944 8.58547C34.1109 7.10197 32.0989 6.26855 30.0009 6.26855C27.9029 6.26855 25.8908 7.10197 24.4073 8.58547C22.9238 10.069 22.0904 12.081 22.0904 14.179ZM30.0009 9.43273C28.7421 9.43273 27.5348 9.93279 26.6448 10.8229C25.7547 11.713 25.2546 12.9202 25.2546 14.179V15.7611H34.7471V14.179C34.7471 12.9202 34.2471 11.713 33.357 10.8229C32.4669 9.93279 31.2597 9.43273 30.0009 9.43273ZM8.35789 29.5791C14.2517 35.0208 21.9791 38.0426 30.0009 38.0426C38.0227 38.0426 45.7501 35.0208 51.6439 29.5791L49.4922 27.2565C44.1835 32.1557 37.2247 34.876 30.0009 34.876C22.7771 34.876 15.8182 32.1557 10.5095 27.2565L8.35789 29.5791Z" fill="#031C17"/>
</svg>
