<?xml version="1.0" encoding="UTF-8"?>
<svg id="Layer_1" data-name="Layer 1" xmlns="http://www.w3.org/2000/svg" viewBox="0 0 60 60">
  <defs>
    <style>
      .cls-1 {
        fill: #fff;
      }

      .cls-2 {
        fill: #031c17;
        fill-rule: evenodd;
      }
    </style>
  </defs>
  <path class="cls-1" d="M11.8,23.94l15.35-12.07,5.94,44.76H11.8V23.94Z"/>
  <path class="cls-2" d="M28.77,11.23c.63,.91,.41,2.17-.49,2.8l-14.65,10.38V57.05c0,1.11-.89,2.01-1.98,2.01s-1.98-.9-1.98-2.01V23.36c0-.66,.32-1.27,.85-1.65l15.49-10.98c.9-.64,2.13-.41,2.76,.5Z"/>
  <path class="cls-2" d="M25.48,4.77c0-1.62,1.83-2.57,3.16-1.63l9.4,6.68c.79,.56,1.26,1.47,1.26,2.45v15.17c0,.96,.46,1.86,1.24,2.43l7.2,5.22c.78,.56,1.24,1.47,1.24,2.43v19.53H25.48V4.77Z"/>
  <path class="cls-2" d="M0,57.05c0-1.11,.89-2.01,1.98-2.01H57.27c1.09,0,1.98,.9,1.98,2.01s-.89,2.01-1.98,2.01H1.98c-1.09,0-1.98-.9-1.98-2.01Z"/>
</svg>